<svg xmlns="http://www.w3.org/2000/svg" width="128" height="139" fill="none" viewBox="0 0 128 139">
    <path fill="#fff" fill-rule="evenodd" d="M53.204 3.45c-4.232 4.53-9.93 6.764-17.25 6.764-10.032 0-12.363 6.873-4.777 14.083 4.574 4.347 8.13 10.617 9.807 17.296.857 3.412.26 4.135-5.514 6.668-7.926 3.477-22.416 16.786-27.328 25.102-12.89 21.822-10.194 47.246 6.098 57.495C24.566 137.354 34.677 139 64.275 139c29.598 0 39.709-1.646 50.035-8.142 10.309-6.486 13.771-14.022 13.689-29.797-.06-11.34-.586-13.66-5.045-22.263-5.331-10.287-17.771-23.467-26.841-28.44l-5.566-3.052 6.31.665c3.471.365 8.293 2.062 10.717 3.775 3.595 2.54 4.708 2.75 6.056 1.138 2.046-2.447-2.554-7.082-10.322-10.398l-5.254-2.243 5.729-.121c3.149-.067 6.903.502 8.338 1.263 1.618.86 3.432.849 4.78-.03 1.805-1.176 1.573-1.912-1.374-4.364-4.916-4.09-16.611-3.957-25.18.29-3.593 1.78-6.922 2.853-7.395 2.384-1.48-1.47 2.439-13.37 6.226-18.898 4.192-6.12 4.747-12.784 1.179-14.144-1.345-.51-5.659-.506-9.587.01-6.133.808-7.962.39-12.919-2.951-7.187-4.845-10.291-4.894-14.647-.231zM65.503 9.47c3.384 2.825 6.218 3.737 11.749 3.78l7.29.055-6.005 5.135c-6.98 5.968-8.677 6.237-13.852 2.2-2.1-1.638-5.14-2.979-6.756-2.979-1.617 0-4.657 1.34-6.756 2.979-5.005 3.905-10.119 3.772-14.297-.372L33.5 16.916l8.606-1.49c6.087-1.053 9.813-2.688 12.727-5.585 2.265-2.251 4.59-4.095 5.166-4.095.573 0 3.052 1.675 5.505 3.723zm-3.342 17.279c2.305 2.526 4.09 2.993 9.233 2.419l6.374-.714-.968 8.38C75.707 46.28 75.06 46.98 66.162 48.314c-13.915 2.088-17.933-.334-20.58-12.403-.92-4.196-.59-5.01 2.498-6.175 1.957-.737 4.456-2.417 5.557-3.73 2.69-3.218 5.106-3.008 8.524.741zm29.382 28.394c10.258 5.425 21.884 17.307 26.535 27.123 6.951 14.668 5.532 31.719-3.373 40.554-8.272 8.206-18.263 10.233-50.43 10.233s-42.158-2.027-50.43-10.233C-2.7 106.405 8.34 71.058 34.825 55.661c6.911-4.018 7.467-4.101 15.494-2.32 8.497 1.887 21.833 1.133 25.98-1.465 3.549-2.227 5.744-1.756 15.244 3.266zM50.263 67.8c-.55.545-1.001 5.862-1.001 11.814 0 10.692-.05 10.83-4.115 11.295-5.782.662-6.448 5.313-.853 5.949 5.902.671 5.972 6.235.089 6.907-2.272.259-4.129 1.388-4.129 2.508s1.857 2.249 4.129 2.508c3.583.408 4.227 1.257 4.879 6.428 1.061 8.428 5.094 8.166 5.715-.373l.463-6.329h7.42c5.594 0 7.42-.55 7.42-2.234 0-1.687-1.835-2.234-7.506-2.234-7.007 0-7.507-.249-7.507-3.723 0-3.62.293-3.723 10.625-3.723 9.74 0 10.99-.362 15.013-4.354 6.978-6.922 5.263-18.9-3.336-23.31-4.211-2.161-25.384-3.037-27.306-1.13zm26.022 7.942c3.651 3.622 3.859 8.507.518 12.17-1.91 2.093-4.688 2.723-12.01 2.723h-9.526V72.765h9.008c7.006 0 9.674.66 12.01 2.978z" clip-rule="evenodd"/>
</svg>
