<svg xmlns="http://www.w3.org/2000/svg" width="128" height="132" fill="none" viewBox="0 0 128 132">
    <path fill="#fff" fill-rule="evenodd" d="M89.548 26.996c-4.436-8.404-.565-20.681 7.844-24.877 13.669-6.82 29.359 3.753 27.388 18.456-.828 6.17-14.929 26.876-18.304 26.876-1.975 0-13.447-13.863-16.928-20.455zm27.455-10.792c-.559-2.544-2.457-5.635-4.22-6.87-4.412-3.091-8.89-2.809-13.546.855-5.326 4.189-5.14 10.313.565 18.605 2.477 3.6 5.091 6.91 5.808 7.353.718.443 3.804-2.822 6.858-7.256 4.589-6.664 5.375-8.864 4.535-12.687zM.229 76c.446-7 5.817-16.856 15.71-22.08 26.925-14.217 56.9 15.717 42.282 42.22-5.522 10.012-25.086 35.012-27.401 35.016-2.59.006-21.409-23.904-27.764-35.275C-.142 90.16-.293 84.177.229 76zm96.265-15.095c-3.342 0-3.508-4.095-.308-7.63 2.762-3.053 6.586-2.175 6.586 1.511 0 3.3-2.892 6.119-6.278 6.119zm-45.327 32.51c5.82-9.116 2.43-24.449-6.952-31.442-2.198-1.64-7.243-3.276-11.21-3.638-9.25-.843-19.117 4.087-23.122 11.552-3.107 5.796-3.645 16.436-1.082 21.387 2.573 4.966 20.896 29.432 22.002 29.375.942-.048 15.067-18.938 20.364-27.233zM83.451 75.24c-2.018-2.433-.124-7.566 3.236-8.77 4.748-1.703 5.737 4.475 1.352 8.442-2.419 2.19-3.008 2.232-4.588.328zM86.382 90.8c-2.795 0-6.03-3.958-6.03-7.375 0-2.16 4.951-2.023 7.174.2 2.864 2.864 2.178 7.175-1.144 7.175zm12.705 13.454c-3.807 0-7.669-4.822-6.011-7.506 1.345-2.176 4.689-1.773 7.348.885 3.526 3.528 2.902 6.621-1.337 6.621zm13.997 14.294c-2.368 1.464-7.925-4.591-6.829-7.443 1.077-2.809 4.179-3.075 6.681-.573 2.245 2.245 2.327 6.67.148 8.016zm6.13 9c0-1.987.841-3.925 1.868-4.31 2.487-.926 7.738 4.186 6.445 6.277-.559.906-2.657 1.646-4.665 1.646-2.862 0-3.648-.779-3.648-3.613zm-73.349 3.555c-2.986-1.598-3.602-3.208-1.884-4.924.547-.549 2.9-.997 5.231-.997 3.158 0 4.235.719 4.235 2.829 0 3.56-3.807 5.113-7.582 3.092zm24.397.335c-4.484 1.071-7.847-.376-7.847-3.376 0-2.296 1.063-2.88 5.231-2.88 4.127 0 5.232.595 5.232 2.814 0 1.549-1.178 3.098-2.616 3.442zm19.963-.956c-3.403 2.489-8.379 1.014-8.379-2.486 0-2.118 1.087-2.814 4.396-2.814 5.355 0 7.44 2.773 3.983 5.3zm17.551.779c-3.841 1.422-9.019-1.716-7.334-4.443 1.524-2.466 10.551-1.455 10.551 1.181 0 1.139-1.449 2.607-3.217 3.262zM30.229 93c5.799 0 10.5-4.701 10.5-10.5S36.028 72 30.229 72c-5.8 0-10.5 4.701-10.5 10.5s4.7 10.5 10.5 10.5z" clip-rule="evenodd"/>
</svg>
