<svg xmlns="http://www.w3.org/2000/svg" width="137" height="124" fill="none" viewBox="0 0 137 124">
    <path fill="#fff" fill-rule="evenodd" d="M0 7.75C0 6 1.018 3.503 3 1.538 4.676-.121 6.73-.038 8.373.028c.302.012.59.023.86.023h104.62c1.732 0 4.393 0 6.176 1.487 1.803 1.503 3.001 4.46 3.001 6.212v29.728c0 10.834-.092 18.012-.339 22.532 4.586 2.144 8.898 5.558 11.035 9.15 8.026 13.497 1.232 28.746-19.635 44.073L99.432 124l-6.437-3.71c-10.842-6.249-23.217-16.867-27.886-23.926a27.937 27.937 0 0 1-2.97-5.887c-1.11.222-2.66.328-4.75.352-6.814.077-7.325.387-11.628 7.037-4.932 7.622-13.18 13.006-22.246 14.524-8.474 1.42-9.982-1.084-4.138-6.876 3.698-3.663 4.686-5.803 4.335-9.385-.445-4.51-.698-4.658-9.241-5.41-4.71-.415-7.886-.645-10.03-2.253C-.071 85.079.002 75.579.002 45.367V7.75zm61.028 78.734c-2.073-10.542 2.416-21.36 12.101-26.304 6.235-3.183 13.194-3.031 19.881.432 4.854 2.516 6.156 2.514 11.072-.012 3.065-1.574 7.45-2.86 9.744-2.86 1.741 0 3.656.354 5.602.98-.365-4.469-.649-11.052-.9-20.28-.553-20.26-1.295-28.183-2.809-29.988-1.841-2.193-7.556-2.453-53.896-2.453-46.126 0-52.137.27-54.578 2.46-2.508 2.25-2.744 5.433-2.744 37.171 0 27.053-.073 36.107 4.163 39.137 2.203 1.575 5.571 1.521 10.722 1.521 8.605 0 8.912.135 9.85 4.364.531 2.4.301 6.749-.51 9.664-.813 2.916-1.026 5.298-.473 5.295 3.316-.018 11.097-6.732 14.531-12.538l4.012-6.785h8.86c2.303 0 4.057.056 5.372.196zm59.923-20.017c-5.779-2.265-13.298-.94-17.695 3.772l-4.463 4.782-4.524-4.782c-6.427-6.797-17.623-6.65-23.127.3-9.014 11.381-1.71 25.756 20.919 41.172l6.495 4.424 10.985-7.682c6.045-4.225 12.956-10.547 15.358-14.049 5.608-8.172 5.833-19.778.486-25.09-1.166-1.157-2.554-2.056-4.073-2.7a.453.453 0 0 1-.159-.024.563.563 0 0 1-.202-.123z" clip-rule="evenodd"/>
</svg>
