<svg xmlns="http://www.w3.org/2000/svg" width="110" height="74" fill="none" viewBox="0 0 110 74">
    <path fill="#fff" fill-rule="evenodd" d="M58.677.275c0 .218.116.404.257.413.142.009 3.123.078 6.626.154 8.49.182 17.278.766 20.973 1.392 4.223.716 8.47 2.547 8.47 3.652 0 .154-.463.81-1.028 1.458-.566.648-1.028 1.258-1.028 1.355 0 .47 2.833-.626 3.591-1.39 2.77-2.787-.9-5.279-9.54-6.479-4.99-.692-28.32-1.15-28.32-.555zM55.422 1.66c-.953.422 1.52.658 9.424.9 5.562.17 9.124.451 18.149 1.432 1.696.184 2.411.44 3.059 1.091.54.544 1.594 1.01 2.926 1.293 1.903.404 2.137.388 2.73-.189.994-.97.484-1.55-2.073-2.356-3.515-1.108-6.027-1.413-14.682-1.776-14.585-.613-18.845-.7-19.533-.395zM51.215 3.5c.08.246.674.484 1.319.527 14.452.98 18.448 1.486 22.848 2.89 2.92.93 3.73 1.065 4.798.8 3.024-.753.453-2.444-4.45-2.929C61.413 3.374 50.995 2.826 51.215 3.5zm50.555.961c.908.558 1.114.902 1.114 1.866 0 1.803-2.262 3.571-8.456 6.611-2.87 1.41-5.305 2.564-5.407 2.564-.103 0-.188-.556-.188-1.236 0-1.86-.822-1.29-1.028.713-.158 1.54-.262 1.696-1.38 2.084-.666.23-3.061 1.282-5.324 2.335-2.263 1.054-4.513 2.017-5 2.14l-.888.225.146-2.355c.08-1.295.003-2.564-.17-2.82-.476-.699-3.378.01-9.659 2.359-2.921 1.093-7.57 2.8-10.329 3.794l-5.016 1.806-2.18-.87c-1.199-.48-3.258-.985-4.576-1.123-2.168-.228-2.352-.2-1.942.297.25.302 1.173.652 2.053.776 3.39.48 4.29 1.898 4.117 6.482-.115 3.05-.096 3.146.738 3.57 1.232.628 2.178.549 3.21-.268 1.13-.894 1.128-1.177-.016-2.243l-.918-.857.747-.526c1.166-.822 1.006-2.404-.313-3.09-.583-.304-1.004-.609-.935-.678.215-.216 11.49-4.293 17.663-6.387l5.901-2.002.206 1.1c.112.606.155 1.78.095 2.61l-.109 1.509-3.084 1.263c-3.19 1.307-4.97 2.304-4.97 2.785 0 .444 2.378-.338 4.876-1.603 3.237-1.64 3.406-1.599 3.28.815-.1 1.932-.138 2.002-1.473 2.682-.754.384-2.878 1.51-4.72 2.5-1.843.992-3.467 1.803-3.61 1.803-.144 0-.256-1.306-.25-2.901.007-1.596-.09-3.005-.214-3.132-.125-.127-.588.006-1.028.296-.44.29-2.295 1.152-4.12 1.916-6.928 2.9-7.04 3.986-.126 1.234 2.144-.854 4.082-1.552 4.306-1.552.3 0 .343.66.163 2.5-.134 1.376-.266 2.521-.292 2.547-.367.358-11.711 5.99-12.065 5.99-.372 0-.49-.51-.49-2.112 0-1.838-.067-2.056-.514-1.682-.358.299-.52 1.123-.535 2.715l-.02 2.286-2.121 1.07a478.001 478.001 0 0 0-5.662 2.931c-2.874 1.511-3.874 1.868-5.312 1.897-.974.02-1.971.059-2.215.087-1.092.125-4.848 4.35-6.714 7.552-.54.926.395.34 2.36-1.48 3.13-2.9 4.678-3.73 6.557-3.517 1.791.203 2.783-.245 8.864-4.006l3.77-2.331.102 1.916c.11 2.032.248 2.192 1.258 1.45.483-.356.642-.943.665-2.457l.03-1.99 5.827-3.231c3.204-1.777 5.958-3.232 6.12-3.234.163-.002.192.553.065 1.233-.2 1.072-.148 1.221.39 1.118.477-.091.645-.5.726-1.759.104-1.624.123-1.649 2.127-2.667 1.112-.565 3.33-1.804 4.927-2.754 1.598-.95 2.993-1.727 3.1-1.727.106 0 .196.582.199 1.293.004.962.09 1.161.337.776.183-.285.335-.997.338-1.583.005-1.008.228-1.186 4.032-3.225 4.085-2.19 6.436-3.745 6.13-4.054-.093-.094-2.086.853-4.429 2.104-2.343 1.251-4.513 2.274-4.823 2.274-.452 0-.563-.366-.563-1.87 0-1.855.01-1.873 1.286-2.296.707-.234 2.981-1.196 5.054-2.139 2.074-.942 4.349-1.92 5.055-2.172l1.285-.46v1.71c0 2.378.629 2.15.754-.274l.103-1.983 2.747-1.38c1.511-.759 4.29-2.1 6.175-2.98 3.536-1.65 6.608-4.025 7.531-5.821.452-.88.427-1.019-.344-1.856-.906-.983-2.188-1.587-3.366-1.585-.648 0-.598.093.365.684zm5.089 1.303c.207.139.56.602.783 1.03.755 1.441-.391 2.639-5.086 5.311-2.887 1.644-3.133 1.857-2.257 1.96 1.307.152 6.289-2.338 8.048-4.023 1.748-1.673 2.121-3.048 1.062-3.91-.427-.348-1.259-.63-1.851-.627-.592.003-.906.12-.699.259zM84.641 6.922c-2.023.304-6.57 2.369-6.148 2.793.649.654 4.09.72 5.952.115 2.022-.657 4.888-2.219 4.601-2.508-.404-.406-2.871-.63-4.405-.4zm4.707 2.915c-1.13.473-4.138 1.648-6.682 2.613-5.132 1.945-7.424 3.137-6.409 3.334.974.19 4.924-1.144 9.89-3.337 2.514-1.11 4.842-2.115 5.172-2.231.576-.203.871-1.283.343-1.253-.142.008-1.183.402-2.314.874zm7.438.042c-.742.838-.81.851-1.43.286-.88-.801-1.63-.34-.854.523.543.603.508.663-.663 1.155-.68.286-1.235.674-1.235.862 0 .5 4.784-1.706 5.137-2.37.56-1.053-.133-1.385-.955-.456zm-23.202.62c-1.319.264-3.94.74-5.825 1.057-3.175.536-5.04 1.15-5.428 1.788-.087.143 1.098.278 2.634.3 1.654.023 3.405.27 4.292.603l1.5.565 4.755-1.628c2.615-.894 4.755-1.752 4.755-1.905 0-.376-1.473-.915-3.019-1.104-.696-.085-2.344.06-3.664.324zm15.936 1.684c0 .764.985 1.43 1.44.973.28-.282.265-.525-.057-.916-.545-.66-1.383-.695-1.383-.057zm-34.098 1.415c-.189.061-1.731.534-3.427 1.05l-3.085.94 1.542.434c.849.239 2.04.64 2.65.892 1.155.478 1.543.416 5.232-.842a61.877 61.877 0 0 1 2.542-.806c2.465-.693.525-1.853-3.021-1.806-1.15.014-2.245.077-2.433.138zm28.843.754c-.126.126-.228.514-.228.862 0 .44.254.633.836.633 1.128 0 1.327-.445.513-1.146-.758-.653-.804-.668-1.12-.349zm11.927.471c-.346.385-1.434 1.164-2.417 1.73-.983.566-1.875 1.26-1.983 1.541-.21.555.305.714.624.193.108-.175.94-.567 1.85-.871 1.758-.588 3.706-2.3 3.324-2.921-.334-.544-.688-.46-1.398.328zm-34.501.865c-.12.12-2.032.825-4.25 1.565-3.703 1.236-4.08 1.3-4.63.799-2.04-1.86-8.198-2.015-8.785-.222-.078.237.1.43.396.43.295 0 2.15.544 4.122 1.208 4.399 1.481 5.99 1.519 9.22.218 1.35-.544 2.944-1.097 3.542-1.229 1.256-.276 2.97-1.738 2.768-2.36-.148-.453-2.02-.774-2.383-.409zm33.977 2.777c-2.892 2.964-5.376 4.652-19 12.912-29.716 18.018-36.05 21.9-37.24 22.825-1.505 1.169-2.683 3.459-2.683 5.21 0 1.553.406 1.595 2.202.227 1.348-1.026 2.388-1.297 2.745-.716.22.36-2.852 2.74-9.402 7.287-2.545 1.766-5.766 4.144-7.159 5.284-2.321 1.901-2.469 2.096-1.777 2.353 1.647.614 4.53-.65 7.496-3.286 3.138-2.79 50.24-38.405 57.984-43.844 3.726-2.617 6.786-5.711 7.984-8.074.52-1.022.892-1.911.83-1.974-.064-.064-.954.744-1.98 1.796zm-17.396-.808c.071.5.386.816.881.887.921.131 1.018-.536.171-1.183-.873-.667-1.175-.581-1.052.296zM39.143 18.84c-4.908.8-13.3 3.37-14.138 4.332-.65.745-1.81 4.332-1.502 4.642.103.103.619-.714 1.146-1.816 1.456-3.045 2.221-3.459 6.04-3.266 6.216.315 7.805.192 9.654-.747.942-.478 2.33-1.066 3.084-1.305.754-.24 1.658-.688 2.008-.996.613-.538.6-.568-.342-.778-1.091-.242-4.625-.281-5.95-.066zm-2.462 2.27c.098.85.002.946-.942.946-1.119 0-1.272-.319-.685-1.423.512-.963 1.496-.675 1.627.477zm33.556-.463c-.198.762.321 1.409 1.131 1.409.953 0 1.03-.407.236-1.25-.928-.985-1.146-1.01-1.367-.159zm-42.09 3.118c-2.044.624-3.397 2.147-3.397 3.825 0 .621.255.674 3.256.674 1.79 0 3.34.039 3.444.086.221.1 1.864-3.847 1.866-4.483.002-.49-3.661-.562-5.168-.102zm6.182 1.181c-.37.842-.765 1.992-.877 2.556l-.204 1.024 2.348.399c3.269.555 7.556 1.682 8.736 2.295.952.496 1 .482 1.327-.38.373-.987.44-3.363.13-4.53-.158-.594-.738-.892-2.823-1.45-1.443-.388-3.471-.799-4.508-.913-1.037-.115-2.238-.281-2.67-.37-.66-.136-.895.084-1.46 1.37zm27.432-.69c0 1.158.79 1.747 1.692 1.26.804-.433.942-1.046.235-1.046-.26 0-.664-.233-.899-.517-.621-.754-1.028-.634-1.028.303zm-6.32.759c-1.12.456-2.143.946-2.273 1.09-.131.144-.344 1.155-.474 2.245-.18 1.53-.131 1.987.218 1.999.25.009 1.64-.573 3.09-1.293l2.635-1.31.02-1.81c.024-2.137-.124-2.18-3.215-.921zm-4.646 3.421c0 .962-.708 1.15-1.358.36-.518-.628-.182-1.222.693-1.222.481 0 .665.239.665.862zm-27.416.756c-3.29.553-10.28 3.343-10.28 4.103 0 .257-.386 1.655-.857 3.108-.61 1.881-.857 3.397-.856 5.27.002 2.954.65 12.193.87 12.416.08.079.956.422 1.95.762 1.783.611 1.807.61 1.919-.078.062-.384-.324-1.313-.857-2.067a217.092 217.092 0 0 1-1.3-1.853c-.182-.265-.206-.606-.052-.758.49-.482 2.847 2.561 3.259 4.206.323 1.293.525 1.555 1.197 1.555.682 0 .843-.222 1.035-1.434.197-1.237.11-1.559-.641-2.347-1.042-1.094-1.11-2.102-.197-2.933.786-.716 1.248-2.068 1.561-4.568.34-2.703 0-3.79-1.24-3.972-1.03-.153-1.635.197-1.012.584.588.366 1.03 2.596.693 3.49-.47 1.244-1.247 1.014-2.467-.728-.601-.858-1.6-1.862-2.22-2.23-.62-.368-1.128-.908-1.128-1.198 0-1.073 1.026-.47 3.057 1.794 1.53 1.706 2.083 2.141 2.082 1.638-.002-.905-.94-2.37-2.872-4.479-1.8-1.966-2.044-2.62-.586-1.575 1.68 1.204 2.089.978 2.089-1.157 0-1.795-.041-1.878-1.025-2.095-1.007-.223-1.611-.74-1.268-1.085.096-.097 1.83.301 3.853.885 4.319 1.246 5.3 1.332 5.07.447-.47-1.805 1.162-3.32 4.936-4.587 1.178-.395 2.141-.861 2.141-1.036 0-.308-5.137-.367-6.854-.078zm27.416 3.038c0 .885-.49 1.086-1.335.547-.66-.42-.211-1.409.64-1.409.513 0 .695.226.695.862zm-8.396.757c-.377.087-2.536.717-4.798 1.4-3.114.939-4.927 1.277-7.468 1.393-3.563.163-4.125.56-1.93 1.364 1.49.547 5.16.264 7.988-.616 1.908-.593 8.409-3.296 8.75-3.637.182-.183-1.64-.114-2.542.096zm1.542 2.15c-1.036.347-2.81 1.055-3.94 1.576-2.965 1.365-3.778 1.584-7.026 1.894-1.602.153-3.8.615-4.882 1.028-2.147.817-5.14 3.328-6.236 5.234l-.666 1.157 1.265-.948 2.38-1.784c.612-.46 1.955-1.26 2.983-1.778 1.629-.822 2.297-.948 5.169-.976l3.298-.032 4.708-2.328c2.59-1.28 4.911-2.328 5.16-2.328.25 0 .817-.306 1.262-.679l.809-.678-1.2.007c-.66.004-2.047.29-3.084.636zm-26.54 1.853c-.246 1.867.352 3 1.583 3 .504 0 .595-.175.432-.83-.307-1.23.385-2.274 1.508-2.274.521 0 1.133.187 1.359.414.505.509.532 1.818.056 2.713-.326.614-.23.667 1.2.667h1.554v-1.89c0-1.678-.087-1.91-.771-2.067a417.51 417.51 0 0 0-3.734-.805l-2.963-.63-.224 1.702zm55.674.233c-.2.375-.668.846-1.04 1.047-.57.307-.678.256-.678-.32 0-.685.812-1.378 1.64-1.398.332-.008.352.156.078.671zM19.952 38.61c0 .569.137 1.035.303 1.035.364 0 .765-1.382.518-1.785-.385-.626-.82-.227-.82.75zm45.374 4.067c-.772.703-2.353 1.948-3.512 2.767-1.802 1.27-2.109 1.39-2.109.822 0-.405.573-1.04 1.457-1.619.8-.523 1.765-1.232 2.142-1.575.798-.725 2.588-1.704 3.084-1.687.188.007-.29.588-1.062 1.292zm-33.722.737l-2.57.197v2.76l2.076-.056c1.142-.03 2.723-.23 3.513-.445 1.336-.361 1.436-.472 1.436-1.583 0-1.338.46-1.248-4.455-.873zm48.663.561c-2.798.73-10.57 4.713-12.251 6.278-1.973 1.838-1.886 2.474.17 1.248 6.428-3.835 11.054-5.993 12.844-5.993.93 0 1.114.916.388 1.943-2.125 3.01-2.285 3.575-1.014 3.575.452 0 2.22-.543 3.928-1.207 2.673-1.039 3.51-1.207 6.011-1.207 3.217 0 4.027-.44 1.96-1.063-1.087-.328-2.103-.297-5.205.159-2.12.31-3.936.484-4.035.385-.098-.1.293-.683.87-1.297 1.09-1.158 1.817-2.356 1.817-2.99 0-.52-3.218-.421-5.483.17zM20.65 48.181c.007.142.233.647.502 1.12.682 1.202.638 1.524-.373 2.733-.488.584-.71 1.062-.492 1.062.54 0 1.837-.71 2.145-1.173.434-.655.285-2.435-.271-3.234-.504-.723-1.538-1.07-1.511-.508zm-2.068 2.291c0 .61.753.907 1.68.663 1.21-.319.864-1.143-.48-1.143-.798 0-1.2.161-1.2.48zm35.297.17c0 .169-1.779 1.635-3.953 3.259l-3.953 2.952.229-1.275c.126-.701.25-1.303.275-1.338.024-.034 1.335-.927 2.912-1.983 2.597-1.74 4.49-2.42 4.49-1.614zm-21.932 4.559c-2.526.905-7.469 1.687-10.624 1.681-2.304-.004-6.103-.6-7.577-1.189-.87-.347-1.822 1.99-1.818 4.473.002 2.343.8 4.206 2.49 5.822l1.039.993 4.732-.18c5.293-.203 8.674-.954 12.302-2.734 2.16-1.061 3.52-2.167 3.138-2.552-.11-.11-1.566.351-3.238 1.024-4.465 1.798-7.285 2.376-10.725 2.198-2.745-.142-5.483-.986-5.483-1.69 0-.148.305-1.089.678-2.092l.678-1.824 4.034-.007c3.263-.006 4.492-.159 6.433-.798 2.78-.915 6.408-2.794 6.604-3.42.181-.577-.414-.51-2.663.295zM7.615 63.074c-1.036.346-3.243 1.28-4.903 2.077-2.502 1.2-2.95 1.532-2.614 1.94.765.927 2.75.562 5.343-.981 1.349-.803 2.93-1.725 3.513-2.048.583-.323 1.06-.827 1.06-1.12 0-.653-.055-.65-2.399.132z" clip-rule="evenodd"/>
</svg>
