<svg height="150" viewBox="0 0 150 150" width="150" xmlns="http://www.w3.org/2000/svg"><path d="m15.3424922 0c5.0960928 0 8.782628.86877545 11.0596057 2.55202787 2.3311914 1.68325243 3.4696802 4.66966803 3.4696802 8.95924683 0 5.6470404-1.5179851 8.524859-5.3671616 9.339336v.1628954c4.7165965.6515816 6.3972229 4.0723849 6.3972229 9.7737238 0 4.2895787-1.1384888 7.2759943-3.3612527 8.9049483-2.2227639 1.5746555-5.8008716 2.3891325-10.7343232 2.3891325-6.3430091 0-11.65595693-.1628954-15.9930572-.4886862-.65056504-.0542985-.8132063-.1628954-.8132063-.7601785v-39.63787976c0-.59728312.16264126-.70588005.8132063-.76017852 3.84917649-.27149232 8.72841429-.43438772 14.5292859-.43438772zm-.650565 6.08142812h-7.69835302v12.32575168h6.12615412c3.8491765 0 6.4514367-.3257908 7.7525667-1.0316709 1.3553439-.70588 2.0059089-2.334834 2.0059089-4.9954588 0-4.94116034-2.2769776-6.29862198-8.1862767-6.29862198zm2.0059088 17.59270278h-9.70426182v12.3257517h9.59583432c5.2587341 0 7.3188567-1.3031632 7.3188567-5.8642343 0-4.9954588-2.2769776-6.4615174-7.2104292-6.4615174zm52.0723101-23.40263857h5.3671616c.5421375 0 .8132063.27149232.8132063.81447698v39.85507359c0 .5972831-.2710688.8687755-.8132063.8687755h-5.3671616c-.5421375 0-.8132063-.2714924-.8132063-.8687755v-16.9954197h-20.004875v16.9954197c0 .5972831-.2710687.8687755-.8132063.8687755h-5.3671616c-.5421375 0-.8132063-.2714924-.8132063-.8687755v-39.85507359c0-.54298466.2710688-.81447698.8132063-.81447698h5.3671616c.5421376 0 .8132063.27149232.8132063.81447698v16.72392729h20.004875v-16.72392729c0-.54298466.2710688-.81447698.8132063-.81447698zm42.0969799 0h5.855085c.921634 0 1.084275.38008926.596351 1.19456624l-12.523377 18.73297053 13.661866 20.416223c.542138.814477.325283 1.1945663-.596351 1.1945663h-5.855086c-.596351 0-1.084275-.2714924-1.463771-.8687755l-9.866903-15.0949734-9.8126894 15.0949734c-.3794963.5972831-.8674201.8687755-1.4637714.8687755h-5.8550853c-.9216338 0-1.1384888-.3800893-.5963513-1.1945663l13.6618658-20.416223-12.523377-18.73297053c-.4879238-.81447698-.3252825-1.19456624.5963513-1.19456624h5.8550854c.5963513 0 1.084275.27149232 1.4637713.86877544l8.6742006 13.41172093 8.728414-13.41172093c.379497-.59728312.86742-.86877544 1.463772-.86877544zm-110.72459711 52.23488417h4.44690133c.09501926 0 .14252889.0488522.14252889.1465567v.5764563c0 .0977045-.04750963.1465567-.14252889.1465567h-3.6297357v2.5110046h3.30667022c.09501926 0 .14252889.0488522.14252889.1465567v.5666859c0 .0977044-.04750963.1465566-.14252889.1465566h-3.30667022v2.2862844h3.6297357c.09501926 0 .14252889.0488522.14252889.1465567v.5764563c0 .0977045-.04750963.1465567-.14252889.1465567h-4.44690133c-.09501926 0-.14252889-.0488522-.14252889-.1465567v-7.1031142c0-.0977045.04750963-.1465567.14252889-.1465567zm27.07370181 0h.6746367c.0950193 0 .1425289.0488522.1425289.1563271v7.0933438c0 .0977045-.0475096.1465567-.1425289.1465567h-.5796175c-.1425288 0-.256552-.0586227-.3325674-.175868l-3.7532607-5.8134154v5.8427267c0 .0977045-.0475096.1465567-.1425289.1465567h-.6746367c-.0950193 0-.1425289-.0488522-.1425289-.1465567v-7.0933438c0-.1074749.0475096-.1563271.1425289-.1563271h.6461309c.3325674.0097704.389579.0488522.5416098.2833429l3.4777049 5.3835157v-5.5105315c0-.1074749.0475096-.1563271.1425289-.1563271zm18.8070262 0h4.4469014c.0950192 0 .1425288.0488522.1425288.1465567v.5764563c0 .0977045-.0475096.1465567-.1425288.1465567h-3.6297357v2.5110046h3.3066702c.0950192 0 .1425289.0488522.1425289.1465567v.5666859c0 .0977044-.0475097.1465566-.1425289.1465566h-3.3066702v2.2862844h3.6297357c.0950192 0 .1425288.0488522.1425288.1465567v.5764563c0 .0977045-.0475096.1465567-.1425288.1465567h-4.4469014c-.0950192 0-.1425289-.0488522-.1425289-.1465567v-7.1031142c0-.0977045.0475097-.1465567.1425289-.1465567zm24.2896375-.0488522c1.1402311 0 1.7483544.087934 2.2139488.43967.4845982.3517361.636629.9281924.636629 1.9443188 0 .7718652-.1140231 1.3190102-.3515713 1.6414349-.2280462.3224247-.6271271.5178336-1.2067445.5959972l1.6058254 2.62825c.0760154.1074749.0285058.1954089-.1140231.1954089h-.6081232c-.1995405 0-.2755559-.0586227-.3800771-.2149498l-1.5678178-2.5500864h-1.4347908v2.6184795c0 .1172453-.0285057.1465567-.1425289.1465567h-.6746367c-.1140231 0-.1425289-.0293114-.1425289-.1465567v-7.0835733c0-.1172454.0285058-.1367863.1425289-.1465567.6271271-.0488522 1.3017639-.0683931 2.0239102-.0683931zm-.0855173.8695697h-1.1212273v2.9702155h1.1212273c.256552 0 .4655944 0 .6081233-.0097704.2945597-.0097705.6651348-.0390818.8266675-.1172454.3990809-.175868.5416098-.5178336.5321079-1.3092397 0-.6546199-.1235251-1.0747491-.3800771-1.2603876-.2470501-.1856384-.7791579-.2735724-1.5868216-.2735724zm23.1399045-.8695697c.769656 0 1.3777792.0293113 1.8243697.0977044.1045212.0097705.1520308.0683932.1520308.1660976v.459211c0 .0977044-.0475096.1465567-.1425288.1465567h-1.8338717c-.8361695 0-1.292262.1367862-1.5868217.6155381-.2755558.4787518-.3420693 1.0942899-.3420693 2.2765139 0 1.1431421.123525 1.9150074.3610732 2.2960548.2375481.3810473.7601541.5666858 1.5678178.5666858h1.4442927v-2.6771022c0-.1074749.0475096-.1563271.1425289-.1563271h.6271271c.0950193 0 .1425289.0488522.1425289.1563271v2.9115929c0 .0781636-.0095019.1465567-.0285058.1954089-.0855173.2051794-.4085828.3419657-.9501926.3908179l-.6651348.0390818c-.1805366.0097704-.4180847.0097704-.7126444.0097704-.9501926 0-1.5583159-.1563271-2.0144083-.4787518-.6841387-.5373746-.8646753-1.4948783-.8741772-3.2535585 0-1.5144192.1330269-2.364448.5796175-2.9604452.4465905-.6155381 1.1307291-.8011765 2.308968-.8011765zm24.5081814.0488522h.731649c.142529 0 .180536.0683931.104521.2149498l-2.575022 4.9340752v2.1006459c0 .0977045-.04751.1465567-.142529.1465567h-.684139c-.095019 0-.142529-.0488522-.142529-.1465567v-2.1006459l-2.575021-4.9340752c-.076016-.1465567-.038008-.2149498.104521-.2149498h.74115c.104521 0 .190038.0488522.256552.1563271l1.957397 3.9179489 1.966898-3.9179489c.04751-.1074749.133027-.1563271.256552-.1563271z" fill-rule="evenodd" transform="translate(16.625 46.015625)"/></svg>