<?xml version="1.0" encoding="UTF-8"?>
<svg width="351px" height="179px" viewBox="0 0 351 179" version="1.1" xmlns="http://www.w3.org/2000/svg" xmlns:xlink="http://www.w3.org/1999/xlink">
    <!-- Generator: Sketch 52.6 (67491) - http://www.bohemiancoding.com/sketch -->
    <title>bhxe_logo</title>
    <desc>Created with Sketch.</desc>
    <g id="Energy" stroke="none" stroke-width="1" fill="none" fill-rule="evenodd">
        <g id="BHX_energy_firstscreen" transform="translate(-550.000000, -158.000000)" fill="#FFFFFF">
            <g id="bhxe_logo" transform="translate(538.000000, 154.000000)">
                <path d="M12.716,160.804 L25.82,160.804 C26.1,160.804 26.24,160.944 26.24,161.224 L26.24,162.876 C26.24,163.156 26.1,163.296 25.82,163.296 L15.124,163.296 L15.124,170.492 L24.868,170.492 C25.148,170.492 25.288,170.632 25.288,170.912 L25.288,172.536 C25.288,172.816 25.148,172.956 24.868,172.956 L15.124,172.956 L15.124,179.508 L25.82,179.508 C26.1,179.508 26.24,179.648 26.24,179.928 L26.24,181.58 C26.24,181.86 26.1,182 25.82,182 L12.716,182 C12.436,182 12.296,181.86 12.296,181.58 L12.296,161.224 C12.296,160.944 12.436,160.804 12.716,160.804 Z M92.496,160.804 L94.484,160.804 C94.764,160.804 94.904,160.944 94.904,161.252 L94.904,181.58 C94.904,181.86 94.764,182 94.484,182 L92.776,182 C92.356,182 92.02,181.832 91.796,181.496 L80.736,164.836 L80.736,181.58 C80.736,181.86 80.596,182 80.316,182 L78.328,182 C78.048,182 77.908,181.86 77.908,181.58 L77.908,161.252 C77.908,160.944 78.048,160.804 78.328,160.804 L80.232,160.804 C81.212,160.832 81.38,160.944 81.828,161.616 L92.076,177.044 L92.076,161.252 C92.076,160.944 92.216,160.804 92.496,160.804 Z M147.916,160.804 L161.02,160.804 C161.3,160.804 161.44,160.944 161.44,161.224 L161.44,162.876 C161.44,163.156 161.3,163.296 161.02,163.296 L150.324,163.296 L150.324,170.492 L160.068,170.492 C160.348,170.492 160.488,170.632 160.488,170.912 L160.488,172.536 C160.488,172.816 160.348,172.956 160.068,172.956 L150.324,172.956 L150.324,179.508 L161.02,179.508 C161.3,179.508 161.44,179.648 161.44,179.928 L161.44,181.58 C161.44,181.86 161.3,182 161.02,182 L147.916,182 C147.636,182 147.496,181.86 147.496,181.58 L147.496,161.224 C147.496,160.944 147.636,160.804 147.916,160.804 Z M219.492,160.664 C222.852,160.664 224.644,160.916 226.016,161.924 C227.444,162.932 227.892,164.584 227.892,167.496 C227.892,169.708 227.556,171.276 226.856,172.2 C226.184,173.124 225.008,173.684 223.3,173.908 L228.032,181.44 C228.256,181.748 228.116,182 227.696,182 L225.904,182 C225.316,182 225.092,181.832 224.784,181.384 L220.164,174.076 L215.936,174.076 L215.936,181.58 C215.936,181.916 215.852,182 215.516,182 L213.528,182 C213.192,182 213.108,181.916 213.108,181.58 L213.108,161.28 C213.108,160.944 213.192,160.888 213.528,160.86 C215.376,160.72 217.364,160.664 219.492,160.664 Z M219.24,163.156 L215.936,163.156 L215.936,171.668 L219.24,171.668 C219.996,171.668 220.612,171.668 221.032,171.64 C221.9,171.612 222.992,171.528 223.468,171.304 C224.644,170.8 225.064,169.82 225.036,167.552 C225.036,165.676 224.672,164.472 223.916,163.94 C223.188,163.408 221.62,163.156 219.24,163.156 Z M287.428,160.664 C289.696,160.664 291.488,160.748 292.804,160.944 C293.112,160.972 293.252,161.14 293.252,161.42 L293.252,162.736 C293.252,163.016 293.112,163.156 292.832,163.156 L287.428,163.156 C284.964,163.156 283.62,163.548 282.752,164.92 C281.94,166.292 281.744,168.056 281.744,171.444 C281.744,174.72 282.108,176.932 282.808,178.024 C283.508,179.116 285.048,179.648 287.428,179.648 L291.684,179.648 L291.684,171.976 C291.684,171.668 291.824,171.528 292.104,171.528 L293.952,171.528 C294.232,171.528 294.372,171.668 294.372,171.976 L294.372,180.32 C294.372,180.544 294.344,180.74 294.288,180.88 C294.036,181.468 293.084,181.86 291.488,182 L289.528,182.112 C288.996,182.14 288.296,182.14 287.428,182.14 C284.628,182.14 282.836,181.692 281.492,180.768 C279.476,179.228 278.944,176.484 278.916,171.444 C278.916,167.104 279.308,164.668 280.624,162.96 C281.94,161.196 283.956,160.664 287.428,160.664 Z M359.648,160.804 L361.804,160.804 C362.224,160.804 362.336,161 362.112,161.42 L354.524,175.56 L354.524,181.58 C354.524,181.86 354.384,182 354.104,182 L352.088,182 C351.808,182 351.668,181.86 351.668,181.58 L351.668,175.56 L344.08,161.42 C343.856,161 343.968,160.804 344.388,160.804 L346.572,160.804 C346.88,160.804 347.132,160.944 347.328,161.252 L353.096,172.48 L358.892,161.252 C359.032,160.944 359.284,160.804 359.648,160.804 Z" id="ENERGY"></path>
                <path d="M57.6,4.8 C72.64,4.8 83.52,7.36 90.24,12.32 C97.12,17.28 100.48,26.08 100.48,38.72 C100.48,55.36 96,63.84 84.64,66.24 L84.64,66.72 C98.56,68.64 103.52,78.72 103.52,95.52 C103.52,108.16 100.16,116.96 93.6,121.76 C87.04,126.4 76.48,128.8 61.92,128.8 C43.2,128.8 27.52,128.32 14.72,127.36 C12.8,127.2 12.32,126.88 12.32,125.12 L12.32,8.32 C12.32,6.56 12.8,6.24 14.72,6.08 C26.08,5.28 40.48,4.8 57.6,4.8 Z M55.68,22.72 L32.96,22.72 L32.96,59.04 L51.04,59.04 C62.4,59.04 70.08,58.08 73.92,56 C77.92,53.92 79.84,49.12 79.84,41.28 C79.84,26.72 73.12,22.72 55.68,22.72 Z M61.6,74.56 L32.96,74.56 L32.96,110.88 L61.28,110.88 C76.8,110.88 82.88,107.04 82.88,93.6 C82.88,78.88 76.16,74.56 61.6,74.56 Z M215.28,5.6 L231.12,5.6 C232.72,5.6 233.52,6.4 233.52,8 L233.52,125.44 C233.52,127.2 232.72,128 231.12,128 L215.28,128 C213.68,128 212.88,127.2 212.88,125.44 L212.88,75.36 L153.84,75.36 L153.84,125.44 C153.84,127.2 153.04,128 151.44,128 L135.6,128 C134,128 133.2,127.2 133.2,125.44 L133.2,8 C133.2,6.4 134,5.6 135.6,5.6 L151.44,5.6 C153.04,5.6 153.84,6.4 153.84,8 L153.84,57.28 L212.88,57.28 L212.88,8 C212.88,6.4 213.68,5.6 215.28,5.6 Z M339.52,5.6 L356.8,5.6 C359.52,5.6 360,6.72 358.56,9.12 L321.6,64.32 L361.92,124.48 C363.52,126.88 362.88,128 360.16,128 L342.88,128 C341.12,128 339.68,127.2 338.56,125.44 L309.44,80.96 L280.48,125.44 C279.36,127.2 277.92,128 276.16,128 L258.88,128 C256.16,128 255.52,126.88 257.12,124.48 L297.44,64.32 L260.48,9.12 C259.04,6.72 259.52,5.6 262.24,5.6 L279.52,5.6 C281.28,5.6 282.72,6.4 283.84,8.16 L309.44,47.68 L335.2,8.16 C336.32,6.4 337.76,5.6 339.52,5.6 Z" id="BHX"></path>
            </g>
        </g>
    </g>
</svg>