<?xml version="1.0" encoding="UTF-8"?>
<svg width="100px" height="48px" viewBox="0 0 100 48" version="1.1" xmlns="http://www.w3.org/2000/svg" xmlns:xlink="http://www.w3.org/1999/xlink">
    <defs>
        <polygon id="path-1" points="0 0.0407088608 47.9597772 0.0407088608 47.9597772 48 0 48"></polygon>
        <polygon id="path-3" points="0 0 20 0 20 23 0 23"></polygon>
    </defs>
    <g id="Energy" stroke="none" stroke-width="1" fill="none" fill-rule="evenodd">
        <g id="BHX_energy_internal" transform="translate(-1289.000000, -362.000000)">
            <g id="Group-15-Copy" transform="translate(1289.000000, 362.000000)">
                <g id="Group-3">
                    <mask id="mask-2" fill="white">
                        <use xlink:href="#path-1"></use>
                    </mask>
                    <g id="Clip-2"></g>
                    <path d="M23.9798278,48 C37.2235747,48 47.9597772,37.2637975 47.9597772,24.0200506 C47.9597772,10.7769114 37.2235747,0.0407088608 23.9798278,0.0407088608 C10.736081,0.0407088608 -0.000121518987,10.7769114 -0.000121518987,24.0200506 C-0.000121518987,37.2637975 10.736081,48 23.9798278,48" id="Fill-1" fill="#C30452" mask="url(#mask-2)"></path>
                </g>
                <polygon id="Fill-4" fill="#FEFEFE" points="31 31.1121162 25.8930739 31.1121162 25.8930739 12 24 12 24 33 25.8930739 33 25.8930739 32.9863869 31 32.9863869"></polygon>
                <path d="M43.1211332,25.283068 L30.4927659,25.283068 L30.4927659,23.4035807 L44.9714571,23.4035807 C44.9906925,23.7671923 45,24.1314244 45,24.5 C45,35.8222199 35.8222199,45 24.5,45 C13.1784006,45 4,35.8222199 4,24.5 C4,13.1784006 13.1784006,4 24.5,4 C24.7990798,4 25.0962982,4.00620498 25.3922756,4.01923543 L25.3897936,5.88569223 C25.0950572,5.87204129 24.7984593,5.86521581 24.5,5.86521581 C14.2084267,5.86521581 5.86521581,14.2084267 5.86521581,24.5 C5.86521581,34.7921938 14.2084267,43.1354047 24.5,43.1354047 C34.5111084,43.1354047 42.6780979,35.2414341 43.1167898,25.3389128 L43.1211332,25.283068 Z" id="Fill-6" fill="#FEFEFE"></path>
                <path d="M17,18 C18.6563981,18 20,16.6568997 20,14.9996768 C20,13.3431003 18.6563981,12 17,12 C15.3429556,12 14,13.3431003 14,14.9996768 C14,16.6568997 15.3429556,18 17,18" id="Fill-8" fill="#FEFEFE"></path>
                <polygon id="Fill-10" fill="#808184" points="61 34 78 34 78 28.9798032 67.7397163 28.9798032 67.2429787 28.9798032 67.2429787 28.4934642 67.2429787 11 61 11"></polygon>
                <g id="Group-14" transform="translate(80.000000, 11.000000)">
                    <mask id="mask-4" fill="white">
                        <use xlink:href="#path-3"></use>
                    </mask>
                    <g id="Clip-13"></g>
                    <path d="M10.6575535,0 C7.46974281,0 4.80711044,1.01417058 2.95601902,2.9321906 C1.02226064,4.93645151 0,7.88824231 0,11.4700397 C0,15.2954396 1.0816944,18.5238733 3.04570996,20.5589345 C4.58612492,22.1555112 6.64199265,23 8.99232764,23 C14.1522585,23 15.339853,19.7939665 15.339853,19.7939665 L15.339853,21.2667819 L15.279879,23 L19.9400259,23 L20,10.0845852 L10.7234709,10.0845852 L10.7234709,13.9452655 L14.455911,13.9452655 L14.9935163,13.9452655 C14.9935163,13.9452655 15.0345796,18.8061162 10.6283769,18.8061162 C9.50886103,18.8061162 8.5109142,18.3855518 7.7431381,17.5897835 C6.54743895,16.3510506 5.91636049,14.2661489 5.91636049,11.5607606 C5.91636049,7.08015388 7.63453642,4.40612598 10.5111303,4.40612598 C12.3076507,4.40612598 13.658418,5.54965791 14.0047547,7.282876 L19.9400259,7.282876 C19.6315107,4.76452972 18.9653123,3.45187602 17.3384482,2.11402206 C15.5905554,0.711207421 13.3423384,0 10.6575535,0 Z" id="Fill-12" fill="#808184" mask="url(#mask-4)"></path>
                </g>
            </g>
        </g>
    </g>
</svg>