<?xml version="1.0" encoding="UTF-8"?>
<svg width="382px" height="32px" viewBox="0 0 382 32" version="1.1" xmlns="http://www.w3.org/2000/svg" xmlns:xlink="http://www.w3.org/1999/xlink">
    <!-- Generator: Sketch 52.6 (67491) - http://www.bohemiancoding.com/sketch -->
    <title>bhx_small_logo</title>
    <desc>Created with Sketch.</desc>
    <defs>
        <linearGradient x1="0%" y1="50%" x2="100%" y2="50%" id="linearGradient-1">
            <stop stop-color="#B69A81" offset="0%"></stop>
            <stop stop-color="#E0CEBC" offset="63.8299314%"></stop>
            <stop stop-color="#DBC6B3" offset="100%"></stop>
        </linearGradient>
    </defs>
    <g id="Symbols" stroke="none" stroke-width="1" fill="none" fill-rule="evenodd">
        <g id="top" transform="translate(-46.000000, -25.000000)">
            <g id="bhx_small_logo" transform="translate(47.000000, 26.000000)">
                <g id="BHX-f" fill="url(#linearGradient-1)" stroke="#858585" stroke-opacity="0.3">
                    <path d="M18.6794019,18.6200132 L18.6711195,18.6118666 L4.91232358,4.76602127 L4.91232358,9.57362752 L15.5201902,20.0469537 C16.0489908,20.5690208 16.3526794,21.2702712 16.3677577,22.0053341 L16.3943039,23.2946555 L16.4015245,25.2508746 C16.40471,26.0946278 15.7066508,26.7800215 14.8444298,26.7800215 L3.92416736,26.7800215 L3.92416736,16.6329119 L7.27196335,16.6329119 L8.98982187,15.0123861 L7.26261908,13.2951612 L3.92416736,13.2951612 L3.92416736,3.20021475 L14.9425446,3.20021475 C15.7162075,3.20021475 16.3469455,3.80748848 16.3592629,4.56447646 L16.3943039,6.68558069 L16.3677577,7.97502684 C16.3526794,8.71008971 16.0489908,9.41129853 15.5201902,9.93338644 L13.4449135,11.9704894 L15.7741844,14.2780506 L18.6711195,11.3684528 L18.6794019,11.360327 C19.4099537,10.628901 19.8557177,9.67807835 19.9347192,8.6830522 C19.960416,8.36130373 19.9523459,6.12373662 19.9523459,6.12373662 L19.9423645,4.13210488 C19.9313213,1.84684285 18.0348599,6.23462991e-05 15.6996426,6.23462991e-05 L3.92416736,6.23462991e-05 L3.92416736,0 L0,0 L0,30 L3.92416736,30 L3.92416736,29.980257 L15.8599817,29.980257 C18.1066408,29.980257 19.9308966,28.2035953 19.9417274,26.0052648 L19.9523459,23.8566035 C19.9523459,23.8566035 19.960416,21.6189948 19.9347192,21.2972879 C19.8557177,20.3022202 19.4099537,19.3514184 18.6794019,18.6200132 Z M9.67874918,15.6743168 L4.90276695,20.4034083 L4.90276695,25.1970489 L12.0383889,18.0203872 L9.67874918,15.6743168 Z M24.8780488,0 L24.8780488,30 L20.9538814,30 L20.9538814,16.6329119 L18.1263912,16.6329119 L16.4652354,14.9631118 L18.0414433,13.2951612 L20.9538814,13.2951612 L20.9538814,0 L24.8780488,0 Z" id="Fill-1"></path>
                </g>
                <g id="BHX-f-Copy" transform="translate(95.000000, 9.000000)" fill="#D9C5B0">
                    <path d="M2.35375631,7.31367763 L2.35375631,11.1207567 L5.58321353,11.1207567 C7.28003236,11.1207567 8.04635156,10.7855672 8.04635156,9.30993974 C8.04635156,7.66572584 7.1523125,7.31367763 5.61956623,7.31367763 L2.35375631,7.31367763 Z M2.35375631,1.87924327 L2.35375631,5.68632237 L4.41550445,5.68632237 C6.82384375,5.68632237 7.69965253,5.55244489 7.69965253,3.82492944 C7.69965253,2.23129148 6.84207404,1.87924327 4.9446142,1.87924327 L2.35375631,1.87924327 Z M10.053301,3.55618278 C10.053301,5.24998093 9.56075966,6.19009841 8.24699256,6.44099474 L8.24699256,6.49157068 C9.92558111,6.7097414 10.4,7.88389656 10.4,9.51125181 C10.4,12.2949119 8.79444047,13 5.65613467,13 C4.41550445,13 1.73338727,12.9494241 0.273670017,12.8492639 C0.0546908548,12.8324052 0,12.7986879 0,12.6142345 L0,0.368906858 C0,0.184453429 0.0546908548,0.150736135 0.273670017,0.134869174 C1.73338727,0.0337172935 3.90462499,0 5.16348549,0 C8.48420201,0 10.053301,0.822106949 10.053301,3.55618278 Z" id="Fill-3"></path>
                    <path d="M39.6118534,2.53232494 L38.0983958,7.27656634 L42.5411261,7.27656634 L41.0671905,2.53232494 C40.8695808,1.92544533 40.8509823,1.84060197 40.3,1.84060197 C39.8478226,1.84060197 39.8083006,1.92544533 39.6118534,2.53232494 Z M43.3873605,1.97535319 L46.7885716,12.7304975 C46.8280935,12.9331235 46.7688106,13 46.5526024,13 L44.5462831,13 C44.3695968,13 44.3300748,12.9331235 44.2719544,12.7304975 L43.1118694,9.10019963 L37.5078916,9.10019963 L36.3280456,12.7304975 C36.2687627,12.9331235 36.2304032,13 36.0723155,13 L34.0473976,13 C33.8311894,13 33.7719065,12.9331235 33.8114284,12.7304975 L37.3114444,1.97535319 C37.9007861,0.202625921 38.2553211,0 40.3,0 C42.5016042,0 42.8166173,0.202625921 43.3873605,1.97535319 Z" id="Fill-4"></path>
                    <path d="M80.3456331,0 C80.5319018,0 80.6,0.0509060197 80.6,0.253531941 L80.6,6.48303133 C80.6,11.6994011 79.5494848,13 75.3994993,13 C71.2495137,13 70.2,11.6994011 70.2,6.48303133 L70.2,0.253531941 C70.2,0.0509060197 70.2670968,0 70.4533654,0 L72.1307848,0 C72.3170534,0 72.3851517,0.0509060197 72.3851517,0.253531941 L72.3851517,6.48303133 C72.3851517,10.1802058 72.9940299,11.108492 75.3994993,11.108492 C77.8219933,11.108492 78.4318729,10.1802058 78.4318729,6.48303133 L78.4318729,0.253531941 C78.4318729,0.0509060197 78.4829466,0 78.6862398,0 L80.3456331,0" id="Fill-5"></path>
                    <path d="M119.288667,0 C119.495814,0 119.6,0.0843960121 119.6,0.255197465 L119.6,12.7287271 C119.6,12.915604 119.495814,13 119.288667,13 L117.235584,13 C117.028437,13 116.925476,12.915604 116.925476,12.7287271 L116.925476,7.4087642 L109.274524,7.4087642 L109.274524,12.7287271 C109.274524,12.915604 109.171563,13 108.964416,13 L106.911333,13 C106.704186,13 106.6,12.915604 106.6,12.7287271 L106.6,0.255197465 C106.6,0.0843960121 106.704186,0 106.911333,0 L108.964416,0 C109.171563,0 109.274524,0.0843960121 109.274524,0.255197465 L109.274524,5.48875493 L116.925476,5.48875493 L116.925476,0.255197465 C116.925476,0.0843960121 117.028437,0 117.235584,0 L119.288667,0" id="Fill-6"></path>
                    <path d="M148.812373,2.53232494 L147.297618,7.27656634 L151.741908,7.27656634 L150.266678,2.53232494 C150.070213,1.92544533 150.05045,1.84060197 149.500581,1.84060197 C149.048363,1.84060197 149.008838,1.92544533 148.812373,2.53232494 Z M152.587055,1.97535319 L155.988571,12.7304975 C156.028096,12.9331235 155.968808,13 155.75258,13 L153.747244,13 C153.570542,13 153.531016,12.9331235 153.471728,12.7304975 L152.31154,9.10019963 L146.708223,9.10019963 L145.528272,12.7304975 C145.468984,12.9331235 145.429458,13 145.272519,13 L143.24742,13 C143.031192,13 142.971904,12.9331235 143.011429,12.7304975 L146.511758,1.97535319 C147.101153,0.202625921 147.45572,0 149.500581,0 C151.702382,0 152.017424,0.202625921 152.587055,1.97535319 Z" id="Fill-7"></path>
                    <path d="M189.545658,0 C189.731908,0 189.8,0.0509060197 189.8,0.253531941 L189.8,6.48303133 C189.8,11.6994011 188.749586,13 184.6,13 C180.450414,13 179.4,11.6994011 179.4,6.48303133 L179.4,0.253531941 C179.4,0.0509060197 179.468092,0 179.654342,0 L181.330599,0 C181.51685,0 181.584941,0.0509060197 181.584941,0.253531941 L181.584941,6.48303133 C181.584941,10.1802058 182.194762,11.108492 184.6,11.108492 C187.022261,11.108492 187.632082,10.1802058 187.632082,6.48303133 L187.632082,0.253531941 C187.632082,0.0509060197 187.682149,0 187.885423,0 L189.545658,0" id="Fill-8"></path>
                    <path d="M225.150691,0.285605309 C225.383998,0.319322603 225.461001,0.402624151 225.461001,0.553360287 L225.461001,1.59363796 C225.461001,1.77809139 225.36446,1.87924327 225.170229,1.87924327 L220.678771,1.87924327 C219.221461,1.87924327 218.502,2.28186742 218.502,3.17041727 L218.502,3.43916393 C218.502,4.14326036 218.774384,4.56274315 219.804155,4.93165001 L223.750845,6.2902586 C225.57823,6.92791212 226.2,7.79960333 226.2,9.42695858 L226.2,9.94660157 C226.2,12.4634984 223.906001,13 220.854614,13 C219.33754,13 217.802078,12.9157068 216.072384,12.697536 C215.878152,12.6648104 215.8,12.5805172 215.8,12.3960638 L215.8,11.3895034 C215.8,11.20505 215.89769,11.1207567 216.11146,11.1207567 L221.534998,11.1207567 C222.97277,11.1207567 223.692231,10.7518499 223.692231,9.86330002 L223.692231,9.57769471 C223.692231,8.8061637 223.362383,8.3539553 222.254459,7.96818979 L218.054923,6.54214662 C216.480385,6.03837059 215.994231,5.03280189 215.994231,3.42230529 L215.994231,3.03653978 C215.994231,0.520634678 218.152614,0 221.243077,0 C222.856691,0 223.614079,0.0842932337 225.150691,0.285605309" id="Fill-9"></path>
                    <path d="M285.274349,0 C285.567774,0 285.664812,0.135636448 285.489219,0.373753768 L280.975789,6.23626246 L285.899321,12.6262462 C286.114191,12.8985238 285.958237,13 285.684451,13 L283.57387,13 C283.281601,13 283.183407,12.915604 283.047092,12.7287271 L279.490181,8.00355514 L275.954063,12.7287271 C275.816593,12.915604 275.719555,13 275.42613,13 L273.315549,13 C273.041763,13 272.885809,12.8985238 273.100679,12.6262462 L278.025366,6.23626246 L273.510781,0.373753768 C273.335188,0.135636448 273.433381,0 273.725651,0 L275.836231,0 C276.149295,0 276.246333,0.101476157 276.364165,0.271272896 L279.490181,4.46896978 L282.635835,0.271272896 C282.753667,0.101476157 282.850705,0 283.163769,0 L285.274349,0" id="Fill-10"></path>
                </g>
            </g>
        </g>
    </g>
</svg>