<svg xmlns="http://www.w3.org/2000/svg" xmlns:xlink="http://www.w3.org/1999/xlink" width="1142" height="146" viewBox="0 0 1142 146">
    <defs>
        <path id="a" d="M.025.314h25.57v26.374H.025z"/>
        <path id="c" d="M1.058.197h33.565V27.42H1.058z"/>
    </defs>
    <g fill="none" fill-rule="evenodd">
        <path fill="#4A4A4A" fill-rule="nonzero" d="M30.21 27.933a19.39 19.39 0 0 1-1.893 3.437c-.995 1.434-1.81 2.426-2.439 2.977-.974.904-2.017 1.368-3.135 1.394-.802 0-1.77-.23-2.895-.698-1.13-.465-2.168-.696-3.118-.696-.995 0-2.063.23-3.205.696-1.144.467-2.066.711-2.77.735-1.072.046-2.14-.43-3.206-1.43-.68-.6-1.531-1.628-2.551-3.083-1.094-1.554-1.993-3.356-2.698-5.41-.754-2.22-1.133-4.37-1.133-6.45 0-2.383.51-4.438 1.532-6.161.803-1.384 1.87-2.475 3.208-3.276a8.566 8.566 0 0 1 4.336-1.236c.851 0 1.967.266 3.354.788 1.383.525 2.271.79 2.66.79.292 0 1.278-.31 2.95-.93 1.582-.575 2.917-.813 4.01-.719 2.963.242 5.19 1.421 6.67 3.546-2.65 1.621-3.96 3.892-3.935 6.805.024 2.27.84 4.158 2.441 5.657a8.016 8.016 0 0 0 2.44 1.615 26.78 26.78 0 0 1-.622 1.649zM23.416.93c0 1.778-.643 3.439-1.926 4.976-1.548 1.827-3.42 2.883-5.45 2.716a5.59 5.59 0 0 1-.041-.674c0-1.707.736-3.534 2.043-5.028.653-.757 1.483-1.386 2.49-1.887 1.004-.495 1.954-.768 2.847-.815.026.238.037.476.037.712z"/>
        <g fill="#4A4A4A" fill-rule="nonzero">
            <path d="M179.768 17.093c-1.039 0-1.788.34-2.547.688v7.853c.727.07 1.144.07 1.835.07 2.493 0 2.835-1.143 2.835-2.737v-3.751c0-1.177-.39-2.123-2.123-2.123zm-16.559-.428c-1.73 0-2.125.95-2.125 2.126v.66h4.247v-.66c0-1.176-.394-2.126-2.122-2.126zm-32.078 8.174c0 .93.439 1.413 1.408 1.413 1.04 0 1.655-.339 2.413-.687v-1.862h-2.273c-1.075 0-1.548.2-1.548 1.136zm64.745-7.746c-1.733 0-2.333.946-2.333 2.123v4.297c0 1.18.6 2.129 2.333 2.129 1.728 0 2.333-.949 2.333-2.13v-4.296c0-1.177-.605-2.123-2.333-2.123zm-73.237 12.563h-5.093v-12.33H115v-4.248h2.546v-2.55c0-3.467 1.436-5.528 5.519-5.528h3.4v4.25h-2.125c-1.59 0-1.695.593-1.695 1.701l-.006 2.127h3.85l-.451 4.249h-3.399v12.33zm17.409.032h-4.245l-.184-1.074a9.732 9.732 0 0 1-4.81 1.248c-3.114 0-4.771-2.08-4.771-4.956 0-3.394 1.934-4.605 5.393-4.605h3.521v-.734c0-1.731-.198-2.24-2.862-2.24h-4.356l.426-4.249h4.761c5.845 0 7.127 1.846 7.127 6.524v10.086zm14.436-12.05c-2.642-.452-3.4-.552-4.671-.552-2.284 0-2.974.504-2.974 2.443v3.667c0 1.94.69 2.446 2.974 2.446 1.27 0 2.03-.102 4.671-.556v4.144c-2.314.518-3.821.655-5.095.655-5.47 0-7.643-2.876-7.643-7.03v-2.977c0-4.158 2.174-7.04 7.643-7.04 1.274 0 2.781.138 5.095.659v4.141zm15.941 5.216h-9.341v.342c0 1.94.69 2.446 2.973 2.446 2.053 0 3.305-.102 5.942-.556v4.144c-2.543.518-3.868.655-6.364.655-5.469 0-7.644-2.876-7.644-7.03V19.45c0-3.635 1.614-6.612 7.218-6.612s7.216 2.943 7.216 6.612v3.403zm16.559.079c0 4.015-1.148 6.944-8.1 6.944-2.511 0-3.984-.22-6.755-.647V6.276l5.092-.85v8.03c1.1-.41 2.525-.617 3.821-.617 5.093 0 5.942 2.283 5.942 5.952v4.142zm16.323.087c0 3.464-1.43 6.824-7.414 6.824-5.987 0-7.443-3.36-7.443-6.824v-3.345c0-3.465 1.456-6.825 7.443-6.825 5.984 0 7.414 3.36 7.414 6.825v3.345zm16.312 0c0 3.464-1.432 6.824-7.414 6.824-5.987 0-7.444-3.36-7.444-6.824v-3.345c0-3.465 1.457-6.825 7.444-6.825 5.982 0 7.414 3.36 7.414 6.825v3.345zm16.74 6.636h-5.52l-4.668-7.792v7.792h-5.093V6.276l5.093-.85v15.051l4.668-7.399h5.52l-5.096 8.075 5.096 8.503zm-24.172-12.563c-1.73 0-2.33.946-2.33 2.123v4.297c0 1.18.6 2.129 2.33 2.129 1.728 0 2.34-.949 2.34-2.13v-4.296c0-1.177-.612-2.123-2.34-2.123zM238.066 27.245c.672 0 1.208.548 1.208 1.233 0 .695-.536 1.236-1.213 1.236a1.22 1.22 0 0 1-1.22-1.236c0-.685.547-1.233 1.22-1.233h.005zm-.005.192c-.54 0-.984.466-.984 1.04 0 .586.443 1.046.99 1.046.546.005.983-.46.983-1.04 0-.58-.437-1.046-.984-1.046h-.005zm-.23 1.758h-.219V27.82c.115-.016.225-.032.389-.032.208 0 .344.043.427.103.08.06.124.153.124.284 0 .182-.119.29-.266.335v.011c.12.022.201.131.229.333.032.214.065.296.087.34h-.23c-.032-.044-.065-.17-.093-.35-.032-.175-.12-.24-.296-.24h-.151v.59zm0-.761h.16c.179 0 .332-.066.332-.236 0-.12-.087-.24-.333-.24-.072 0-.121.004-.158.01v.466z"/>
        </g>
        <path fill="#4A4A4A" d="M488.72 34.983c-2.816-.112-5.12-.888-6.922-2.33-.344-.275-1.163-1.101-1.438-1.45-.73-.925-1.227-1.825-1.559-2.824-1.019-3.076-.494-7.112 1.501-11.54 1.709-3.793 4.345-7.554 8.945-12.762.677-.767 2.695-3.009 2.708-3.009.005 0-.105.192-.244.426-1.196 2.018-2.219 4.394-2.776 6.452-.896 3.301-.788 6.134.316 8.331.761 1.514 2.067 2.825 3.535 3.55 2.57 1.267 6.332 1.372 10.927.306.316-.074 15.992-4.265 34.834-9.314 18.843-5.05 34.263-9.177 34.265-9.174.005.004-43.777 18.874-66.505 28.664-3.6 1.55-4.562 1.941-6.254 2.54-4.326 1.53-8.2 2.26-11.333 2.134z"/>
        <g transform="translate(299 3)">
            <mask id="b" fill="#fff">
                <use xlink:href="#a"/>
            </mask>
            <path fill="#4A4A4A" d="M13.323 12.314v3.605h8.58c-.263 2.022-.934 3.502-1.955 4.542-1.255 1.26-3.21 2.638-6.625 2.638-5.283 0-9.412-4.279-9.412-9.583s4.13-9.582 9.412-9.582c2.845 0 4.932 1.127 6.464 2.578l2.525-2.535c-2.13-2.08-4.99-3.663-8.99-3.663C6.086.314 0 6.234 0 13.501c0 7.268 6.085 13.187 13.323 13.187 3.91 0 6.858-1.29 9.164-3.692 2.364-2.374 3.108-5.729 3.108-8.425 0-.835-.058-1.612-.19-2.257H13.323" mask="url(#b)"/>
        </g>
        <path fill="#4A4A4A" d="M335.32 26.055c-2.568 0-4.786-2.125-4.786-5.158 0-3.063 2.218-5.157 4.786-5.157 2.568 0 4.787 2.094 4.787 5.157 0 3.033-2.219 5.158-4.787 5.158zm0-13.671c-4.684 0-8.507 3.575-8.507 8.513 0 4.894 3.823 8.513 8.507 8.513 4.685 0 8.508-3.604 8.508-8.513 0-4.938-3.823-8.513-8.508-8.513zM372.75 26.055c-2.568 0-4.524-2.198-4.524-5.158 0-3.004 1.956-5.157 4.524-5.157 2.539 0 4.524 2.197 4.524 5.186.014 2.975-1.985 5.129-4.524 5.129zm4.275-11.766h-.131c-.832-.997-2.437-1.905-4.465-1.905-4.232 0-7.924 3.707-7.924 8.513 0 4.777 3.692 8.513 7.924 8.513 2.028 0 3.633-.908 4.465-1.934h.131v1.187c0 3.253-1.736 4.996-4.523 4.996-2.277 0-3.692-1.64-4.276-3.033l-3.24 1.348c.935 2.256 3.4 5.026 7.516 5.026 4.363 0 8.055-2.579 8.055-8.865V12.823h-3.532v1.466zM354.29 26.055c-2.568 0-4.786-2.125-4.786-5.158 0-3.063 2.218-5.157 4.786-5.157 2.569 0 4.787 2.094 4.787 5.157 0 3.033-2.218 5.158-4.787 5.158zm0-13.671c-4.684 0-8.507 3.575-8.507 8.513 0 4.894 3.823 8.513 8.507 8.513 4.685 0 8.508-3.604 8.508-8.513 0-4.938-3.823-8.513-8.508-8.513zM383.475 29.41h3.663V3.666h-3.663zM398.184 15.578c1.503 0 2.787.777 3.21 1.876l-7.66 3.18c0-3.576 2.524-5.056 4.45-5.056zm.263 10.477c-1.897 0-3.24-.865-4.115-2.579l11.338-4.704-.379-.966c-.7-1.905-2.86-5.422-7.252-5.422-4.364 0-7.997 3.443-7.997 8.513 0 4.777 3.59 8.513 8.405 8.513 3.881 0 6.129-2.388 7.063-3.766l-2.89-1.934c-.963 1.407-2.276 2.345-4.173 2.345z"/>
        <g fill="#4A4A4A">
            <path d="M836.044 28.976h5.22l1.375-3.164 5.358.138 1.51 3.163h5.223l-9.344-25.997-9.342 25.86zm7.97-7.977s1.1-4.816 1.234-4.402c.138.412 1.237 4.263 1.237 4.263l-2.472.139zM858.027 20.036c0-6.742 7.42-3.439 7.42-3.439l3.023-3.44c-2.61-2.477-6.596-2.338-6.596-2.338-2.06 0-7.968.687-8.793 9.765 3.299 14.445 15.526 6.742 15.526 6.742l-3.022-3.44s-7.558 2.889-7.558-3.85"/>
            <path d="M922.331 9.444l-2.198-4.403H895.95l-4.946 13.068-5.633-13.205h-24.595l-2.61 4.54h11.128v19.532h5.221V9.444h7.144l9.208 23.383 9.068-23.383h22.396"/>
            <path d="M877.07 29.113h4.728v-18.02h-4.671l-.056 18.02M899.88 29.113h4.726v-18.02h-4.67l-.056 18.02M916.643 29.113h4.727v-18.02h-4.671l-.056 18.02M912.026 14.944h3.022l.139-3.713-5.359-.138s-3.71 0-3.71 3.44 4.397 8.253 4.397 8.253 1.099.963.55 1.788c-.55.826-5.084.277-5.084.277v4.125h6.595s3.572.413 3.572-3.44c0-3.85-4.946-8.939-4.946-8.939-.755-.813-.355-1.653.824-1.653M931.812 10.543s-9.894-.275-9.618 9.63c.274 9.903 8.794 9.491 9.618 9.491.825 0 9.07-.826 8.93-10.041-.136-9.217-8.93-9.08-8.93-9.08zm.137 14.17s-4.809.687-4.809-4.677c0-5.365 4.535-4.677 4.535-4.677s3.984.273 4.121 3.852c.55 5.225-3.847 5.501-3.847 5.501zM950.36 11.093l-.411 6.053-8.381-6.603.137 18.433h4.946V22.1l8.108 6.877V11.093h-4.398M961.098 25.385c.367.2.66.488.876.862a2.374 2.374 0 0 1 .016 2.367c-.205.37-.493.661-.865.875-.37.215-.766.321-1.187.321-.408 0-.799-.106-1.174-.316a2.247 2.247 0 0 1-.868-.857 2.335 2.335 0 0 1-.32-1.19c0-.41.105-.806.318-1.186a2.24 2.24 0 0 1 .858-.863 2.363 2.363 0 0 1 2.346-.013zm-2.553-.412a2.65 2.65 0 0 0-1.053 1.037c-.26.449-.389.93-.389 1.438 0 .488.123.958.374 1.41.245.44.59.786 1.038 1.045.441.253.915.38 1.423.38.49 0 .962-.125 1.413-.377.435-.241.78-.582 1.037-1.03.255-.446.382-.922.382-1.428 0-.494-.127-.97-.379-1.424a2.697 2.697 0 0 0-1.031-1.034 2.808 2.808 0 0 0-1.422-.381c-.476 0-.94.122-1.393.364zm.654 4.038v-1.3h.286c.17 0 .3.036.393.105.133.103.303.34.512.713l.27.482h.598l-.373-.598a3.395 3.395 0 0 0-.45-.605.795.795 0 0 0-.26-.163.956.956 0 0 0 .611-.255.8.8 0 0 0 .116-1.052.846.846 0 0 0-.52-.335 3.303 3.303 0 0 0-.638-.045H958.7v3.053h.499zm0-2.631h.553c.237 0 .4.018.49.053.185.074.278.206.278.397 0 .308-.243.461-.731.461h-.59v-.911z"/>
        </g>
        <g fill="#4A4A4A">
            <path d="M1139.815 30.793h.34c.162 0 .273-.024.332-.073a.236.236 0 0 0 .088-.19.234.234 0 0 0-.043-.139.252.252 0 0 0-.118-.09.88.88 0 0 0-.281-.03h-.318v.522zm-.28.972v-1.728h.596c.204 0 .35.016.442.048a.424.424 0 0 1 .218.167.46.46 0 0 1-.054.583.54.54 0 0 1-.36.158.48.48 0 0 1 .147.091c.07.068.155.182.256.343l.212.338h-.342l-.154-.272c-.12-.215-.218-.348-.292-.403a.362.362 0 0 0-.224-.059h-.165v.734h-.28zm.707-2.228c-.226 0-.447.058-.661.174-.214.115-.382.28-.503.496a1.349 1.349 0 0 0-.182.67c0 .232.06.454.179.665.119.213.285.378.499.496.213.119.436.178.668.178.232 0 .455-.06.669-.178.213-.118.379-.283.497-.496.119-.211.178-.433.178-.664 0-.233-.06-.456-.181-.671a1.236 1.236 0 0 0-.503-.496 1.378 1.378 0 0 0-.66-.174zm0-.266c.27 0 .535.07.792.208.258.138.459.336.602.594.145.257.216.525.216.805 0 .276-.07.542-.212.798-.142.255-.34.453-.596.594a1.637 1.637 0 0 1-.802.212c-.28 0-.546-.07-.802-.212a1.505 1.505 0 0 1-.597-.594 1.619 1.619 0 0 1-.213-.798c0-.28.072-.548.216-.805.145-.258.346-.456.604-.594.257-.138.521-.208.792-.208zM1140.648 9.36h-14.861l-3.282 5.058V9.36s-3.583-.415-7.396 3.383V9.36h-8.467v6.139s.901 4.853 5.282 4.684h3.185v-.259c2.793-2.783 5.462-3.303 6.69-3.383h5.78l-10.11 15.772h18.38l4.66-7.181h-9.971l10.11-15.772zm-34.006 16.99v5.963h8.467V21.666h-3.185c-4.38-.17-5.282 4.684-5.282 4.684zM1099.555 20.183c.224.009.437-.001.643-.026 3.827-.458 4.64-4.658 4.64-4.658V9.36h-8.467v2.26c-1.813-1.69-4.132-2.706-6.66-2.706-4.081 0-7.616 2.647-9.356 6.51V9.36h-4.527V3.276h-8.466v19.109c-1.194-3.066-4.81-4.458-8.792-5.202-2.508-.468-3.378-.394-3.432-1.573-.05-1.093 1.342-1.287 2.853-1.287 1.83 0 4.736 1.662 4.736 1.662l3.099-4.876c-2.44-1.52-4.532-2.469-9.288-2.469s-9.31 2.894-9.31 7.267c0 4.374 3.293 6.743 8.72 7.594 2.855.447 4.088 1.008 4.024 2.126-.045.788-.718 1.726-2.683 1.64-4.146-.182-6.585-2.916-6.585-2.916l-3.415 5.042s3.598 3.28 9.512 3.28c5.98 0 9.346-1.905 10.56-5.382.047-.134.09-.27.129-.408.296 1.443 1.24 4.362 4.108 5.43.681.254 1.471.404 2.387.404 4.042 0 6.44-.404 6.44-.404v-4.99c-4.225 0-4.574-2.77-4.597-3.447v-7.335h4.086a13.354 13.354 0 0 0-.71 4.316c0 6.595 4.704 11.943 10.507 11.943 2.528 0 4.847-1.016 6.66-2.707v2.22h8.467V26.35s-.814-4.21-4.649-4.66a4.093 4.093 0 0 0-.634-.024h-3.184v.282a4.743 4.743 0 0 1-4.63 3.692c-2.621 0-4.746-2.117-4.746-4.728 0-2.611 2.125-4.728 4.746-4.728a4.742 4.742 0 0 1 4.63 3.69v.309h3.184"/>
        </g>
        <g fill="#4A4A4A">
            <path d="M725.998 32.85h-9.424c-.087 0-.245-.38-.29-.459-1.296-2.336-2.593-4.683-3.881-7.015-1.38 2.483-2.72 5.007-4.096 7.493-3.086.007-6.145-.015-9.205-.007.346-.648.716-1.28 1.085-1.915 2.573-4.439 5.11-8.937 7.687-13.38-2.74-4.777-5.52-9.516-8.275-14.282-.007 0-.026-.03-.007-.026h9.469c1.164 2.114 2.298 4.254 3.444 6.383 1.19-2.11 2.34-4.262 3.519-6.383h9.152c.008.038-.018.079-.037.11-2.672 4.686-5.408 9.388-8.075 14.082 2.965 5.138 5.987 10.272 8.934 15.4"/>
            <path d="M691.815 24.545c.09-.361.064-.824.064-1.302v-10.87c0-.466-.053-.828-.189-1.166a2.534 2.534 0 0 0-.542-.82c-.441-.448-1.104-.85-1.937-.786a2.21 2.21 0 0 0-1.032.342 2.541 2.541 0 0 0-1.131 1.58c-.087.357-.083.812-.083 1.282v10.871c0 .233-.011.459.019.658.08.572.335 1.03.67 1.373.434.44 1.105.809 1.971.715 1.12-.12 1.94-.862 2.19-1.877zm11.304-9.802c.24.977.38 2.053.38 3.185 0 3.533-1.025 6.15-2.45 8.28-.24.36-.485.706-.749 1.038a13.43 13.43 0 0 1-2.75 2.61c-.701.497-1.432.948-2.243 1.328-1.612.756-3.56 1.347-5.806 1.347-3.512 0-6.104-1.069-8.203-2.536-2.099-1.47-3.734-3.415-4.846-5.868-.746-1.643-1.235-3.54-1.292-5.849a14.33 14.33 0 0 1 .324-3.25c.528-2.467 1.564-4.4 2.875-6.067 1.311-1.662 2.973-2.964 4.981-3.945a13.26 13.26 0 0 1 2.63-.948 13.204 13.204 0 0 1 3.173-.4h.019c1.123-.052 2.313.129 3.248.336.972.214 1.873.541 2.675.903 2.487 1.12 4.34 2.798 5.833 4.893.983 1.373 1.722 3.02 2.2 4.943zM675.544 11.33h-10.011c-.042 1.242-.008 2.615-.019 3.864 2.706.022 5.452.004 8.177.008V23.3c-2.744.007-5.51-.011-8.237.007.003 3.213.019 6.365.019 9.577 0 .011-.004.015-.008.019h-8.346c-.015.003-.015-.008-.026-.008-.02-9.862-.02-19.789-.004-29.655 0-.011 0-.026.007-.026h17.88c.01 0 .014 0 .018.007.189 2.701.37 5.406.55 8.11"/>
        </g>
        <g fill="#4A4A4A">
            <path d="M81.125 128.425c-2.798 0-5.182-2.322-5.182-5.129 0-2.8 2.384-5.189 5.182-5.189 2.856 0 5.234 2.39 5.234 5.19 0 2.806-2.378 5.128-5.234 5.128zm5.234-12.823c-1.55-1.074-3.392-1.607-5.355-1.607-5.118 0-9.342 4.112-9.342 9.301 0 5.13 4.224 9.365 9.342 9.365 2.021 0 3.87-.588 5.355-1.606v1.193h4.404V114.17H86.36v1.431zM101.828 128.425c-2.856 0-5.233-2.322-5.233-5.129 0-2.8 2.377-5.189 5.233-5.189 2.8 0 5.182 2.39 5.182 5.19 0 2.806-2.383 5.128-5.182 5.128zm5.182-12.823c-1.547-1.074-3.334-1.607-5.295-1.607-5.184 0-9.4 4.112-9.4 9.301 0 5.13 4.216 9.365 9.4 9.365 1.961 0 3.748-.588 5.295-1.606v1.193h4.462v-24.222h-4.462v7.576zM173.002 121.57c-2.92-.778-6.666-.658-6.666-2.51.12-1.245 1.313-1.611 3.097-1.611 2.68 0 2.856 1.497 2.912 2.446h4.527c-.3-3.52-3.155-5.9-7.682-5.9-4.64 0-7.44 2.56-7.44 5.786 0 1.904 1.016 3.58 2.501 4.353 1.194.595 2.798.953 4.706 1.254 1.904.299 3.69.414 3.802 1.852 0 .893-.946 2.084-2.969 2.084-3.034-.06-3.747-1.728-3.747-2.865h-4.705c.178 3.641 3.155 6.202 8.152 6.202 4.463 0 8.095-1.732 8.095-6.202 0-2.446-1.784-4.172-4.583-4.89M129.385 128.425c-2.741 0-5.12-2.322-5.12-5.129 0-2.8 2.379-5.189 5.12-5.189 2.855 0 5.234 2.39 5.234 5.19 0 2.806-2.379 5.128-5.234 5.128zm5.234-12.823c-1.543-1.074-3.329-1.607-5.355-1.607-5.12 0-9.345 4.112-9.345 9.301 0 5.13 4.225 9.365 9.345 9.365 2.026 0 3.868-.588 5.355-1.606v1.193h4.403v-24.222h-4.403v7.576zM150.03 128.425c-2.799 0-5.173-2.322-5.173-5.129 0-2.8 2.374-5.189 5.173-5.189 2.798 0 5.12 2.39 5.12 5.19 0 2.806-2.322 5.128-5.12 5.128zm5.12-12.823c-1.487-1.074-3.336-1.607-5.299-1.607-5.117 0-9.335 4.112-9.335 9.301 0 5.13 4.218 9.365 9.335 9.365 2.028 0 3.812-.588 5.3-1.606v1.193h4.46V114.17h-4.46v1.431zM113.679 108.026h-.005v4.48h4.46v-4.48h-4.455M113.674 132.247h4.46v-18.076h-4.46zM174.666 112.75c-1.07 0-1.97-.917-1.97-2.004 0-1.088.9-2.014 1.97-2.014 1.072 0 2.042.926 2.042 2.014 0 1.087-.97 2.004-2.042 2.004zm0-4.319c-1.249 0-2.276 1.04-2.276 2.315 0 1.273 1.027 2.304 2.276 2.304 1.27 0 2.34-1.03 2.34-2.304 0-1.275-1.07-2.315-2.34-2.315z"/>
            <path d="M174.666 110.589h-.385v-.716h.535c.236 0 .384.157.384.39 0 .244-.303.326-.534.326zm.534.233c.243-.076.401-.315.401-.636 0-.481-.4-.715-.856-.715h-.862v2.548h.398v-1.03h.535c.315 0 .384.234.384.715 0 .157 0 .234.088.315h.4c-.087-.158-.087-.396-.087-.716 0-.4-.235-.48-.4-.48zM.062 132.66h65.78v-3.857H.062zM.062 125.345h65.78v-3.858H.062zM.062 118.03h65.78v-3.859H.062z"/>
        </g>
        <g fill="#4A4A4A">
            <path d="M591.711 107.016h-4.21c-.007 5.724-.016 9.432-.024 15.156-1.809-5.586-3.62-9.284-5.435-15.156H578v26.836c1.365-.194 2.826-.38 4.192-.559.004-5.609.008-9.057.011-14.666 1.88 5.521 3.036 8.778 4.91 14.024 1.47-.167 3.084-.374 4.555-.523l.043-25.112M607.436 107.016h-11.662l-.047 24.758c3.9-.355 7.806-.645 11.714-.87l.007-4.148c-2.542.157-4.973.32-7.505.49l.013-6.273c1.85-.032 3.806-.004 5.696-.036l.007-4.166c-1.874.033-3.852.037-5.696.072.005-2.22.009-3.437.013-5.656a284.864 284.864 0 0 1 4.029-.015h.595c.946 0 1.896-.001 2.862-.01.003-1.206-.028-2.94-.026-4.146M623.155 107.034H610.17c-.002 1.2-.003 2.926-.006 4.125l.56-.002c.563 0 1.127.006 1.692.011.563.006 1.127.011 1.691.011h.434l-.026 19.383c1.374-.051 2.844-.094 4.218-.13l.019-19.273c1.451-.006 2.951-.01 4.403-.013l.001-4.112M637.598 107.016h-11.71l-.004 23.304a335.5 335.5 0 0 1 4.172.008c0-3.297-.002-6.305-.003-9.602a230.217 230.217 0 0 0 2.35-.003c.555-.002 1.113-.005 1.666-.005.57 0 1.134.003 1.686.01l-.003-4.121c-.521-.006-1.054-.007-1.592-.007-.576 0-1.158.002-1.738.004-.58.002-1.156.004-1.723.004l-.647-.001-.002-5.435a902.919 902.919 0 0 0 2.753 0h1.393c1.131 0 2.263.001 3.405.006l-.003-4.162M640.331 107.034c.01 7.844-.028 15.687-.017 23.53 3.744.14 7.678.29 11.417.549l-.007-4.148c-2.366-.14-4.83-.306-7.199-.405-.01-6.716.027-12.809.016-19.525h-4.21M655.186 107.035l.048 24.333c1.372.106 2.791.22 4.162.342.004-8.22.016-16.45 0-24.675h-4.21M663.005 107.036c1.684 4.1 3.224 8.214 4.933 12.569a913.903 913.903 0 0 1-5.36 12.352c1.47.145 2.991.357 4.46.521 1.054-2.584 2.013-4.574 3.068-7.228 1.053 2.827 2.01 5.012 3.061 7.93 1.467.19 3.368.463 4.833.672-1.776-4.747-3.718-9.69-5.503-14.176 1.778-4.213 3.592-8.234 5.44-12.639h-4.598c-1.14 2.722-1.924 4.471-3.017 7.063-1.017-2.697-1.7-4.441-2.72-7.064h-4.597"/>
        </g>
        <g>
            <path fill="#4A4A4A" d="M487.127 145.2s15.286-8.044 18.55-27.855c.28-1.693 2.082-9.775-2.702-20.58 0 0-6.712 3.383-16.822 3.825-10.12 0-16.613-3.827-16.613-3.827-2.388 5.97-3.003 10.954-2.981 14.64"/>
            <path fill="#4A4A4A" d="M466.559 111.402c.02 3.594.645 5.95.82 6.78 4.126 19.65 19.748 27.018 19.748 27.018"/>
            <path fill="#000" d="M435.268 134.567c7.159 0 12.962-5.803 12.962-12.962s-5.803-12.962-12.962-12.962-12.962 5.803-12.962 12.962 5.803 12.962 12.962 12.962"/>
            <path fill="#000" d="M432.02 111.37c-2.278.678-3.72 1.474-5.166 3.285l5.964-.027c.002-.266-.454-.372-.637-.793-.334-.766-.328-1.22-.185-1.706.25-.844.023-.759.023-.759M446.042 119.013c.16.67.214 1.374.25 2.086.017.314-.03.588-.03.588 0 2.977-.718 5.13-2.575 7.17 0 0-3.808-7.681-4.077-8.298-.28-.64-.714-.83.465-.89.708-.038 5.967-.656 5.967-.656M435.358 132.592c1.717 0 2.837-.355 4.3-1.03 0 0-3.314-4.95-3.616-5.446-.175-.289-.475-.831-.684-.831-.209 0-.508.542-.683.831-.303.496-3.616 5.446-3.616 5.446 1.463.675 2.583 1.03 4.3 1.03"/>
            <path fill="#4A4A4A" d="M411.274 110.97h12.155l1.921 2.565c-.631.774-1.32 1.768-1.76 2.676l9.803-.035c1.141.02 1.353-1.11 1.33-1.426-.022-.316-.162-1.044-.524-1.405a1.997 1.997 0 0 1-.399-1.154c0-1.018.58-1.564 1.558-1.564.922 0 1.555.636 1.559 1.564.001.42-.167.84-.4 1.154-.417.316-.501 1.089-.524 1.405-.023.317.189 1.447 1.33 1.426l9.821.035c-.841-1.736-2.223-3.4-3.712-4.595a12.858 12.858 0 0 0-8.074-2.837 12.882 12.882 0 0 0-10.008 4.756l-1.92-2.564h1.217V97.603h21.422v13.368h13.374v21.397h-12.388l-1.429-2.84a12.913 12.913 0 0 0 2.623-8.516c-.071-1.349-.416-2.708-.864-3.909l-9.083.895c-1.448.194-1.483 1.169-.07 4.05 1.1 2.244 4.985 9.916 4.985 9.916.812-.655 1.778-1.606 2.41-2.436l1.428 2.84h-.986v13.404h-21.422v-12.273l4.714-.383a12.832 12.832 0 0 0 6.673 1.462 13.206 13.206 0 0 0 6.37-2.039l-5.31-8.507c-.249-.34-1.04-1.495-1.736-1.495-.706 0-1.408 1.053-1.69 1.45l-5.356 8.552c.31.2.72.404 1.049.577l-4.714.383v-1.13h-1.316l1.603-3.05c.666.912 1.685 1.935 2.566 2.645 0 0 3.885-7.672 4.985-9.917 1.412-2.88 1.377-3.855-.071-4.049l-9.083-.895c-.448 1.201-.793 2.56-.863 3.909a12.915 12.915 0 0 0 2.466 8.306l-1.603 3.05h-12.057"/>
            <path fill="#000" d="M424.756 119.085c-.16.67-.24 1.446-.277 2.158-.016.315-.016.444-.016.444 0 2.977.756 5.093 2.613 7.134 0 0 3.772-7.645 4.04-8.262.282-.646.809-.825-.465-.89-.707-.038-5.895-.584-5.895-.584"/>
            <path fill="#4A4A4A" d="M487.045 145.817s15.597-8.207 18.928-28.424c.285-1.728 2.125-9.974-2.756-21 0 0-6.85 3.452-17.167 3.903-10.326 0-16.951-3.905-16.951-3.905-2.437 6.091-3.064 11.177-3.043 14.938l3.777.275c-.137-3.4.237-7.668 1.671-10 0 0 6.317 2.445 14.638 2.445 8.314-.357 14.622-2.67 14.622-2.67 2.544 5.512 2.391 10.86 1.244 16.903-3.11 16.39-15.064 23.124-15.064 23.124s-12.231-6.216-16.04-22.458c-.582-2.478-.975-4.89-1.071-7.344l-3.777-.275c.022 3.667.66 6.072.837 6.918 4.211 20.05 20.152 27.57 20.152 27.57"/>
            <path fill="#000" d="M484.237 109.891c.102 0 .253-.072.268-.179.017-.122-.118-.267-.268-.25-.144.015-.268.082-.268.25 0 .127.18.16.268.16l.263.04c-.175.101-.35.188-.513-.05-.163-.237-.199-.351-.314-.363-.125-.012-.152.01-.263-.012-.376-.075.038-.163.038-.163.564.012 1.027.037 1.178.188.15.15.05.3-.126.4l-.263-.02"/>
            <path fill="#000" d="M499.234 121.395c.997-3.753 2.597-10.05.458-17.705 0 0-7.28 2.325-13.505 2.325l.968 2.076c.256.085.455.147.516.155.2.025.3.226.25.601-.05.376.035 1.202.076 1.43.077.421.137.568.563.242.426-.325 1.467-1.145 1.843-1.42.376-.277.802-.026 1.028.15.225.175.652.877.175 1.328-.605.573-3.108 2.982-3.258 3.208-.15.226 0 .48-.075.53-.076.051-.251.1-.402.1-.152 0-2.71-.359-2.932-.411-.17-.04-.15-.044-.15-.344 0-.301-.01-.955 0-1.206.005-.132.191-.144.526-.215.226-.048.293-.083.393-.158.1-.075-.04-.341-.04-.341s-.438-.348-.112-.323c.326.025.816.146.993.23.19.092.303.115.558.168.25.053.54.065.364-.06-.176-.125-.727-.25-.978-.351-.25-.1-.628-.161-.753-.212-.125-.05-.05-.154.176-.18.225-.024.473-.095.473-.095s.173.003.282-.04c.113-.043.072-.13-.004-.255-.075-.125-.417-.471-.809-.88-.307-.321-.647-.733-.848-.909-.2-.175-.221-.312-.221-.462v-.35c-.026-.502.45-.577.702-.502.44.132.973.341 1.664.572l-.968-2.076c-1.138 0-2.304-.066-3.451-.173l-.11 2.949c.214-.017.411-.022.584-.019.1 0 1.102.201 1.628.376.527.176.77.827 1.33 1.266.29.229.191.246-.151.339-.635.172-2.005-.05-2.431-.05-.427 0-.01.17.216.345.226.176.76.306 1.388.582.626.275.086.512-.867.537-.828.022-1.615-.287-1.99-.387-.377-.1-1.151-.172-.677.928.551 1.278 1.629 1.403 5.79 1.954 4.16.552 4.171 3.058 4.171 3.534s-.441 3.158-3.449 3.158l.015-2.406c.375-.25.55-.584.49-.802-.125-.45-.176-.834-3.082-.902-4.258-.1-6.743-1.854-6.743-4.938 0-2.698 2.284-3.4 3.778-3.515l.11-2.949c-5.215-.485-10.028-1.832-10.028-1.832-.919 2.278-1.004 4.968-.914 7.496.135 3.886 1.098 7.52 1.793 9.89h9.05c.13-.743.753-1.338 1.185-1.67.326-.251.414-.063.49.112 0 0 .133.3.26.647l.275-.152c-.21-.57-.43-1.121-.477-1.26-.1-.287-.118-.277-.156-.577-.03-.238.467-.492.662-.488 0 0 .063-.1.063-.213 0-.275.115-.188.289-.212.272-.04 1.55.046 2.343.1.118.008.216-.041.187.225 0 0 .01 2.525-.024 3.487h11.5"/>
            <path fill="#000" d="M485.242 121.395c-.106-.282-.271-.676-.413-1.062l-.257.152c.123.332.202.708.258.91h.412M473.587 121.395c.08.27.158.525.232.761 3.208 10.227 13.025 17.035 13.025 17.035s.432-.408 1.14-1.005l-.624-1.291c-.15 0-.642.1-.742.025-.1-.076-.422-.351-.448-.552-.014-.11-.045-1.573-.074-2.908l-.273.176v.852s-.383.113-.383.427c0 .188.013.375.026.989.012.614-.858 0-.866-1.003-.01-1.472.746-1.967 1.223-2.017v.752l.273-.176c-.023-1.101-.045-2.115-.051-2.205-.025-.326.088-.314.088-.314s.201-.077.435.013c.163.063 1.142.53 1.161.626.015.074.01.535-.004 1.154l.286-.126c.012-.423.023-.87.023-1.015 0-.3-.196-.48-2.314-1.233-2.118-.751-2.21-2.251-2.21-2.477 0-.225.142-1.917 2.085-1.917l-.006.728.296-.05c-.017-.707-.034-1.452-.034-1.53 0-.15.025-.138.226-.138 0 0 1.538.012 1.663.038.126.025.151.05.151.163l-.005 1.466.356-.1v-1.003c.225-.05.317-.351.306-.526-.012-.2-.1-.352-1.955-.34-2.693.018-3.543-1.254-3.91-2.492a1.72 1.72 0 0 1-.046-.787h-9.05"/>
            <path fill="#000" d="M484.867 121.395c.025.09-.002.145-.016.148-.075.012-.213.1-.213.338 0 .238.025.564 1.943.564 4.01 0 4.11 2.305 4.097 2.82-.013.514-.156 2.193-2.436 2.193v-.915l-.356.1-.008 1.905c0 .1-.075.075-.187.05-.113-.025-1.564-.49-1.664-.501-.1-.013-.113-.05-.113-.151 0-.047-.014-.659-.03-1.303l-.295.05.014.765s-.062.037-.175.175c-.176.213-.037.513.188.614.226.1 1.184.32 2.173.757.99.44 1.774 1.298 1.774 2.326 0 .89-.475 1.667-1.579 2.155l.027-.877-.286.126c-.033 1.492-.12 3.904-.12 4.01 0 .15-.094.15-.245.15l.623 1.292c2.665-2.246 9.146-8.448 11.219-16.525a.675.675 0 0 0 .032-.266h-11.5c.037.202.037.334.037.36 0 .238.004.355-.146.355.085 0-2.157.04-2.061 0-.132.055-.08-.066-.192-.33a13.82 13.82 0 0 1-.148-.385h-.357M438.707 111.37c2.277.678 3.72 1.474 5.165 3.285l-5.964-.027c-.001-.266.454-.372.637-.793.334-.766.329-1.22.185-1.706-.25-.844-.023-.759-.023-.759"/>
            <path fill="#1A1919" d="M497.05 143.81v-.587h.392c.2 0 .412.044.412.278 0 .291-.217.309-.46.309h-.343zm0 .243h.331l.5.82h.32l-.538-.833c.278-.035.491-.182.491-.521 0-.373-.221-.538-.669-.538h-.72v1.893h.286v-.82zm.349 1.516c.894 0 1.658-.695 1.658-1.647 0-.941-.764-1.636-1.658-1.636-.903 0-1.668.695-1.668 1.636 0 .952.765 1.647 1.668 1.647zm-1.338-1.647c0-.776.586-1.363 1.338-1.363.742 0 1.328.587 1.328 1.363 0 .791-.586 1.373-1.328 1.373-.752 0-1.338-.582-1.338-1.373zM450.37 144.172v-.586h.39c.2 0 .412.043.412.277 0 .291-.217.309-.46.309h-.342zm0 .243h.33l.499.82h.322l-.54-.833c.279-.035.491-.182.491-.522 0-.372-.221-.538-.668-.538h-.721v1.894h.287v-.82zm.347 1.515c.894 0 1.659-.694 1.659-1.646 0-.942-.765-1.636-1.659-1.636-.904 0-1.668.694-1.668 1.636 0 .952.764 1.646 1.668 1.646zm-1.338-1.646c0-.776.587-1.363 1.338-1.363.742 0 1.329.587 1.329 1.363 0 .791-.587 1.373-1.329 1.373-.751 0-1.338-.582-1.338-1.373z"/>
        </g>
        <g fill="#4A4A4A">
            <path d="M312.222 126.463c3.083 0 5.583-2.513 5.583-5.614 0-3.102-2.5-5.615-5.583-5.615s-5.583 2.513-5.583 5.615c0 3.101 2.5 5.614 5.583 5.614"/>
            <path d="M312.222 128.507c-4.204 0-7.613-3.429-7.613-7.658 0-4.23 3.409-7.659 7.613-7.659 4.204 0 7.612 3.429 7.612 7.659s-3.408 7.658-7.612 7.658zm-14.395-5.66c-.568-.755-1.393-1.469-2.588-2.16 1.35-.7 2.216-1.559 2.733-2.705a14.939 14.939 0 0 0-.145 4.865zm-6.976 5.588c-.645.534-1.516.496-2.312.496h-3.45v-5.323h3.147c1.905 0 3.535.497 3.617 2.73 0 .726-.433 1.677-1.002 2.097zm-5.75-15.593h3.099c1.511 0 3.1.267 3.1 2.205.11 1.75-.932 2.786-3.02 2.786l-3.179.012v-5.003zm27.188-6.713c-6.4 0-11.84 4.131-13.829 9.886.077-.565.111-1.18.111-1.858 0-2.13-1.216-4.444-2.956-5.699-1.628-1.18-3.272-1.9-5.24-1.9h-12.677v28.994h11.882c2.346 0 4.357-.866 6.363-2.313 1.854-1.332 3.039-3.702 3.039-5.947 0-.105 0-.209-.003-.312 2.313 5.068 7.403 8.588 13.31 8.588 8.084 0 14.637-6.59 14.637-14.72 0-8.128-6.553-14.719-14.637-14.719zM268.637 117.199h-5.982v-10.694h-7.378v29.097h7.342v-11.357h5.982v11.357h7.474v-29.097h-7.438V117.2M323.956 135.404a.598.598 0 0 1-.618-.612c0-.352.261-.614.618-.614.352 0 .617.266.617.614a.604.604 0 0 1-.617.612zm0-1.471c-.497 0-.886.349-.886.859s.391.857.886.857c.494 0 .885-.349.885-.857 0-.51-.389-.86-.885-.86z"/>
            <path d="M324.08 134.736h-.177v-.233h.15c.09 0 .196.01.196.106 0 .104-.061.127-.169.127zm.198.16c.166-.007.296-.077.296-.264 0-.24-.193-.301-.516-.301h-.464v1h.31v-.426h.051l.282.426h.357l-.316-.435z"/>
        </g>
        <g fill="#4A4A4A">
            <path d="M785.567 140.42c8.742-1.159 15.649-8.197 16.706-17.02h-13.222v-2.439h15.338c0 10.98-8.213 20.146-18.822 21.46-.84.094-1.71.125-2.55.125a21.36 21.36 0 0 1-9.085-2.002c-7.28-3.44-12.35-10.887-12.35-19.489 0-8.603 5.07-16.048 12.35-19.49a21.936 21.936 0 0 1 8.617-2.033v2.003c-3.11.062-6.035.875-8.617 2.252-6.16 3.284-10.36 9.791-10.36 17.268s4.2 13.983 10.36 17.268a19.256 19.256 0 0 0 9.084 2.252c.84 0 1.711-.062 2.551-.156zm0-7.415h-3.484v-23.4h2.302v21.054h4.666v2.346h-3.484zm-11.635-24.025c1.618 0 2.955 1.345 2.955 2.972 0 1.658-1.337 3.003-2.955 3.003a2.996 2.996 0 0 1-2.986-3.003c0-1.627 1.337-2.972 2.986-2.972zm9.084-12.764c-13.657 0-24.701 11.137-24.701 24.84 0 13.701 11.044 24.806 24.701 24.806 13.627 0 24.67-11.105 24.67-24.807 0-13.702-11.044-24.839-24.67-24.839zM839.916 130.409h-3.608l-.187-1.69c-.933 1.095-2.458 2.096-5.133 2.096-4.324 0-8.213-2.815-8.213-8.76 0-5.442 3.391-9.165 8.898-9.165 4.074 0 7.341 2.127 8.026 6.32h-5.289c-.405-1.409-1.4-2.16-2.862-2.16-2.178 0-3.204 2.003-3.204 4.975 0 2.409.746 4.629 3.546 4.629 1.12 0 2.582-.782 2.862-1.97h-2.458v-3.66h7.622v9.385zm-30.58-.063v-17.018h5.568v13.045h7.622v3.973h-13.19z"/>
        </g>
        <g>
            <g transform="translate(925 103)">
                <mask id="d" fill="#fff">
                    <use xlink:href="#c"/>
                </mask>
                <path fill="#4A4A4A" d="M2.835 4.305c-1.002.03-1.758-.408-1.777-1.02-.012-.449.967-1.848 1.564-2.074C3.03 1.057 5.017.3 8.331.202c1.227-.037 3.313.114 5.074.376 10.249 1.52 21.007 9.349 21.215 16.29.14 4.723-3.935 9.155-11.889 9.39a20.407 20.407 0 0 1-5.818-.661c-.038 1.158.048 1.773-1.593 1.822-1.005.03-1.396-1.599-1.543-2.926-4.802-2.132-7.695-5.598-7.735-6.967-.06-2.036 3.637-3.736 7.963-4.409.06-1.685.345-5.98 1.235-6.005.357-.011 1.096.819 1.375 2.088.255 1.153.281 3.257.284 3.632l.327-.012c6.07-.18 9.706 1.72 9.773 3.97.051 1.746-1.49 2.638-2.3 2.662-.81.025-1.757-.436-1.765-.687-.014-.48 1.728-.592 1.704-1.369-.034-1.171-4.86-1.684-7.833-1.704-.004 1.01-.017 2.23.007 3.047.024.787.072 2.819.096 4.514 1.349.287 2.739.44 4.1.4 3.205-.096 10.527-1.266 10.364-6.774C31.144 9.183 15.95 2.113 7.812 2.356c-3.206.095-5.128.439-5.119.755.006.209 1.56.29 1.574.706.01.415-.884.472-1.432.488zM13.971 15.81c-3.041.227-6.932.793-6.9 1.86.032 1.116 2.9 3.261 6.667 4.658.174-2.284.218-4.707.233-6.518z" mask="url(#d)"/>
            </g>
            <path fill="#4A4A4A" d="M961.94 115.716c.524-.016 1.275 1.242 1.298 2.029.023.786.212 4.897.265 6.081.056 1.185.017 2.319-.06 2.845-.077.524-.267.784-1.167.81-.9.027-1.32-.51-1.395-1.303-.076-.793-.143-3.044-.105-4.173.04-1.128.093-3.286.24-4.638.147-1.35.508-1.639.924-1.651M959.716 110.902a.955.955 0 0 1-.116-.467c-.015-.504.853-2.433 3.038-2.592a9.27 9.27 0 0 0-1.676 1.499c-.523.59-.94 1.108-1.246 1.56zm1.904 1.04c.452-.636 2.789-3.772 5.199-3.844.706-.02.893.418.909.902.021.754-1.343 2.957-4.414 3.049a8.87 8.87 0 0 1-1.694-.107zm5.529-5.462c-.149-.373-.65-1.127-2.438-1.075-3.895.116-6.892 3.006-6.823 5.283.02.74.376 1.387.9 1.918-.135.372-.15.62-.146.763.013.396.608 1.44 1.064 1.426.384-.01.65-.373 1.02-.96.636.246 1.27.37 1.77.356 3.662-.11 6.985-3.546 6.92-5.745-.03-1.012-.685-1.99-2.267-1.966zM971.44 115.504c2.144-.064 4.831.215 4.85.902.013.401-.197 1.24-1.34 1.356-1.351.137-8.157.427-8.131 1.268.012.445 2.057.544 3.934.657 1.927.117 5.022.19 5.115 3.313.073 2.468-.858 2.99-1.278 3.186-.533.249-2.322.929-3.693.97-4.134.124-5.839-2.256-5.875-3.466-.031-1.071 1.07-2.024 2.926-2.08 1.855-.056 4.727.615 4.749 1.38.018.617-1.248.936-1.809.953-2.53.075-2.406-.955-3.865-.911-.83.024-1.995 1.792 2.167 1.668 3.71-.11 4.832-1.334 4.814-1.992-.026-.87-2.688-1.295-4.228-1.375-1.54-.08-3.85-.068-4.638-.568-.787-.5-.677-1.629-.404-2.563.571-1.953 4.562-2.634 6.707-2.698M978.763 116.313c1.448-.044 4.486 6.536 4.998 6.521.512-.015.13-1.537-.192-3.218-.732-3.802-1.872-5.762-.8-5.794.792-.023 3.389 2.493 3.534 7.368.067 2.264-.251 5.226-2.299 5.286-1.942.058-4.153-6.081-4.655-6.067-.271.009-.293 3.804-.366 4.948-.072 1.145-.47 1.757-1.107 1.777-.966.028-1.39-.9-1.444-2.726-.055-1.828.545-8.042 2.331-8.095M993.495 119.873c.685-.02 1.292-.135 1.23.756-.06.894-.098 1.252-.812 1.274l-3.666.109c-.121.408-.435 1.46-.577 1.905-.176.557.381.434 1.1.228.718-.204 2.67-.573 3.472-.598.801-.023 1.4 1.257.94 1.697-.46.44-2.941 2.536-5.53 2.613-1.11.033-2.618-.939-2.67-2.679-.027-.922.342-2.16.696-3.12-.086-.054-.153-.181-.202-.458-.116-.625-.397-1.313.642-1.431.085-.01.19-.02.313-.03l.858-1.773c-.35-.051-.65-.129-.882-.24-.632-.302-1.124-1.079-1.135-1.428-.022-.763 5.57-1.22 6.865-1.259 1.391-.041 1.785.228 2.23.863.443.636.613 1.085.618 1.26.003.174-.157.605-1.838.654-.86.027-2.25.17-3.583.22l-.581 1.551c1.298-.064 2.512-.114 2.512-.114M1001.348 124.246c1.834-3.592 3.725-5.638 4.39-5.658 1.152-.035.176 5.188-4.39 5.658zm-4.063.923c-1.502 2.968-2.513 6.112-2.442 8.478.079 2.666 1.714 3.66 2.21 3.646.498-.015.523-.805.612-1.392a39.524 39.524 0 0 1 2.371-8.76c.394.099.783.145 1.144.135 3.046-.091 6.575-3.734 6.46-7.615-.06-2.049-.842-3.501-2.153-3.463-1.918.058-4.675 2.96-6.888 6.604-.199-1.478.967-3.756 1.958-5.347.698-1.118.576-2.447.286-2.438-.405.012-4.334 3.343-4.199 7.911.027.888.257 1.633.641 2.241z"/>
        </g>
        <g>
            <path fill="#4A4A4A" d="M1102.934 145.99c-13.71 0-24.824-11.178-24.824-24.965 0-13.787 11.115-24.964 24.824-24.964 13.709 0 24.823 11.177 24.823 24.964 0 13.787-11.114 24.965-24.823 24.965"/>
            <path fill="#000" d="M1102.94 124.797l-20.153 8.389c4.246 7.175 11.941 11.554 20.24 11.51 8.277-.021 15.95-4.443 20.153-11.64l-20.24-8.26M1099.45 118.872l3.211-21.395c-8.277.108-15.907 4.595-20.045 11.814a23.65 23.65 0 0 0-.13 23.368l16.964-13.787M1106.324 119.156l17.158 13.353a23.663 23.663 0 0 0-.26-23.26c-4.138-7.175-11.703-11.64-19.959-11.77l3.061 21.677"/>
        </g>
    </g>
</svg>
