<?xml version="1.0" encoding="UTF-8"?>
<svg width="24px" height="32px" viewBox="0 0 24 32" version="1.1" xmlns="http://www.w3.org/2000/svg" xmlns:xlink="http://www.w3.org/1999/xlink">
    <!-- Generator: Sketch 52.6 (67491) - http://www.bohemiancoding.com/sketch -->
    <title>EPIC-05</title>
    <desc>Created with Sketch.</desc>
    <defs>
        <linearGradient x1="-7.45991189%" y1="-15.7425325%" x2="142.140382%" y2="156.23658%" id="linearGradient-1">
            <stop stop-color="#696667" offset="0%"></stop>
            <stop stop-color="#6F6C6D" offset="1.623042%"></stop>
            <stop stop-color="#8F8D8D" offset="11.7%"></stop>
            <stop stop-color="#A8A6A7" offset="22.09%"></stop>
            <stop stop-color="#BAB9B9" offset="32.81%"></stop>
            <stop stop-color="#C5C3C3" offset="44.04%"></stop>
            <stop stop-color="#C8C7C7" offset="56.62%"></stop>
            <stop stop-color="#CECDCD" offset="67.17%"></stop>
            <stop stop-color="#DEDEDE" offset="81.19%"></stop>
            <stop stop-color="#F9F9F9" offset="97.08%"></stop>
            <stop stop-color="#FFFFFF" offset="100%"></stop>
        </linearGradient>
        <linearGradient x1="30.8509434%" y1="-17.4686016%" x2="93.9932615%" y2="158.894195%" id="linearGradient-2">
            <stop stop-color="#6C696A" offset="0%"></stop>
            <stop stop-color="#7F7D7E" offset="3.702033%"></stop>
            <stop stop-color="#A19FA0" offset="11.38%"></stop>
            <stop stop-color="#BEBDBE" offset="19.85%"></stop>
            <stop stop-color="#D6D5D6" offset="29.14%"></stop>
            <stop stop-color="#E8E8E8" offset="39.61%"></stop>
            <stop stop-color="#F5F5F5" offset="51.91%"></stop>
            <stop stop-color="#FDFDFD" offset="67.79%"></stop>
            <stop stop-color="#FFFFFF" offset="100%"></stop>
        </linearGradient>
        <linearGradient x1="-14.8831522%" y1="50.3467626%" x2="100%" y2="50.3467626%" id="linearGradient-3">
            <stop stop-color="#696667" offset="0%"></stop>
            <stop stop-color="#696667" offset="0.1096308%"></stop>
            <stop stop-color="#918F90" offset="10.84%"></stop>
            <stop stop-color="#B3B1B2" offset="22.06%"></stop>
            <stop stop-color="#CFCECE" offset="34.06%"></stop>
            <stop stop-color="#E4E3E4" offset="46.88%"></stop>
            <stop stop-color="#F3F3F3" offset="60.89%"></stop>
            <stop stop-color="#FCFCFC" offset="77.01%"></stop>
            <stop stop-color="#FFFFFF" offset="100%"></stop>
        </linearGradient>
    </defs>
    <g id="Welcome" stroke="none" stroke-width="1" fill="none" fill-rule="evenodd">
        <g id="First---Desktop-HD-Copy" transform="translate(-706.000000, -9539.000000)">
            <g id="EPIC-05" transform="translate(706.000000, 9539.000000)">
                <path d="M23.8024691,31.9209877 L0.24691358,31.9209877 L0.177777778,30.8148148 C-0.197530864,23.9012346 0.661728395,19.891358 3.45679012,16 C0.671604938,12.108642 -0.197530864,8.09876543 0.177777778,1.18518519 L0.237037037,0.0790123457 L23.8024691,0.0790123457 L23.8024691,2.42962963 L2.47901235,2.42962963 C2.24197531,9.25432099 3.50617284,12.2666667 5.85679012,15.2790123 L6.41975309,16 L5.85679012,16.7209877 C3.4962963,19.7432099 2.24197531,22.745679 2.47901235,29.5703704 L23.8024691,29.5703704 L23.8024691,31.9209877 Z" id="Path" fill="#FFFFFF"></path>
                <path d="M23.8024691,27.8716049 L4.64197531,27.8716049 L4.64197531,26.3703704 C4.64197531,22.2716049 6.4,18.5777778 9.19506173,16 C6.39012346,13.4222222 4.64197531,9.72839506 4.64197531,5.62962963 L4.64197531,4.12839506 L23.8024691,4.12839506 L23.8024691,4.15802469 C23.8024691,5.65925926 22.5876543,6.87407407 21.0864198,6.87407407 L7.44691358,6.87407407 C7.77283951,9.84691358 9.24444444,12.4839506 11.417284,14.3209877 C13.5506173,13.017284 16.0691358,12.2666667 18.745679,12.2666667 L20.108642,12.2666667 C22.1432099,12.2666667 23.8024691,13.9160494 23.8024691,15.9604938 L23.8024691,16.0395062 C23.8024691,18.0938272 22.1432099,19.7530864 20.0888889,19.7530864 L18.7555556,19.7530864 C16.0691358,19.7530864 13.5604938,19.0024691 11.4271605,17.6987654 C9.25432099,19.5358025 7.78271605,22.1728395 7.45679012,25.145679 L21.1061728,25.145679 C22.6074074,25.145679 23.8222222,26.3604938 23.8222222,27.8617284 L23.8222222,27.8716049 L23.8024691,27.8716049 Z M14.0839506,16 C15.5061728,16.6419753 17.0864198,16.9975309 18.7555556,16.9975309 L20.0888889,16.9975309 C20.6320988,16.9975309 21.0666667,16.562963 21.0666667,16.0197531 L21.0666667,15.9703704 C21.0666667,15.4271605 20.6320988,14.9925926 20.0888889,14.9925926 L18.7555556,14.9925926 C17.0864198,15.0024691 15.5061728,15.3580247 14.0839506,16 Z" id="Shape" fill="#FFFFFF" fill-rule="nonzero"></path>
                <path d="M9.19506173,16 C9.87654321,15.3679012 10.6271605,14.8049383 11.4271605,14.3209877 C9.25432099,12.4839506 7.77283951,9.84691358 7.44691358,6.87407407 L4.70123457,6.87407407 C5.00740741,10.4691358 6.68641975,13.6790123 9.19506173,16 Z" id="Path" fill="url(#linearGradient-1)"></path>
                <path d="M14.0839506,16 C13.1160494,16.4345679 12.2271605,17.0074074 11.4271605,17.6790123 C13.5604938,18.982716 16.0691358,19.7432099 18.7555556,19.7432099 L18.7555556,17.0074074 C17.0864198,16.9975309 15.5061728,16.6419753 14.0839506,16 Z" id="Path" fill="url(#linearGradient-2)"></path>
                <path d="M7.44691358,25.1259259 L7.44691358,27.8617284 L23.8024691,27.8617284 L23.8024691,27.8320988 C23.8024691,26.3308642 22.5876543,25.1160494 21.0864198,25.1160494 L7.44691358,25.1160494 L7.44691358,25.1259259 Z" id="Path" fill="url(#linearGradient-3)"></path>
            </g>
        </g>
    </g>
</svg>