<?xml version="1.0" encoding="UTF-8"?>
<svg width="250px" height="250px" viewBox="0 0 250 250" version="1.1" xmlns="http://www.w3.org/2000/svg" xmlns:xlink="http://www.w3.org/1999/xlink">
    <!-- Generator: Sketch 52.6 (67491) - http://www.bohemiancoding.com/sketch -->
    <title>epic_logo</title>
    <desc>Created with Sketch.</desc>
    <defs>
        <linearGradient x1="19.7705729%" y1="17.7676923%" x2="159.844271%" y2="160.418654%" id="linearGradient-1">
            <stop stop-color="#CB1A1A" offset="0%"></stop>
            <stop stop-color="#A0003C" stop-opacity="0" offset="100%"></stop>
        </linearGradient>
        <linearGradient x1="-38.31247%" y1="-32.1352113%" x2="70.1261391%" y2="54.4760563%" id="linearGradient-2">
            <stop stop-color="#E79595" offset="0%"></stop>
            <stop stop-color="#A0003C" stop-opacity="0" offset="100%"></stop>
        </linearGradient>
        <linearGradient x1="-14.8421674%" y1="50.0269231%" x2="100.035193%" y2="50.0269231%" id="linearGradient-3">
            <stop stop-color="#CB1A1A" offset="0%"></stop>
            <stop stop-color="#A0003C" stop-opacity="0" offset="100%"></stop>
        </linearGradient>
    </defs>
    <g id="Welcome" stroke="none" stroke-width="1" fill="none" fill-rule="evenodd">
        <g id="First---Desktop-HD-Copy" transform="translate(-598.000000, -319.000000)">
            <g id="epic_logo" transform="translate(598.000000, 319.000000)">
                <rect id="Rectangle-6" fill="#FFFFFF" x="0" y="0" width="250" height="250"></rect>
                <path d="M20,20 L20,230 L230,230 L230,20 L20,20 Z M12.5,12.5 L237.5,12.5 L237.5,237.5 L12.5,237.5 L12.5,12.5 Z" id="Rectangle-6" fill="#FF1C1D" fill-rule="nonzero"></path>
                <g id="logo_red" transform="translate(59.000000, 39.000000)">
                    <g id="Group">
                        <path d="M127.529412,169.71978 L1.22352941,169.71978 L0.941176471,163.835165 C-1.03529412,127.032967 3.57647059,105.736264 18.5411765,85 C3.57647059,64.2637363 -1.12941176,42.967033 0.941176471,6.16483516 L1.22352941,0.28021978 L127.529412,0.28021978 L127.529412,12.7967033 L13.1764706,12.7967033 C11.9529412,49.1318681 18.6352941,65.1043956 31.3411765,81.1703297 L34.3529412,85 L31.3411765,88.8296703 C18.7294118,104.895604 11.9529412,120.868132 13.1764706,157.203297 L127.529412,157.203297 L127.529412,169.71978 Z" id="Path" fill="#FF1C1D"></path>
                        <path d="M127.529412,148.142857 L24.7529412,148.142857 L24.7529412,140.203297 C24.7529412,118.43956 34.1647059,98.7307692 49.1294118,85 C34.1647059,71.2692308 24.7529412,51.6538462 24.7529412,29.7967033 L24.7529412,21.8571429 L127.529412,21.8571429 L127.529412,36.4285714 L39.8117647,36.4285714 C41.5058824,52.3076923 49.5058824,66.3186813 61.0823529,76.032967 C72.5647059,69.1208791 86.0235294,65.1043956 100.423529,65.1043956 L107.576471,65.1043956 C118.588235,65.1043956 127.529412,73.978022 127.529412,84.9065934 L127.529412,85.1868132 C127.529412,96.1153846 118.588235,104.989011 107.576471,104.989011 L100.423529,104.989011 C86.0235294,104.989011 72.5647059,100.972527 61.0823529,94.0604396 C49.5058824,103.681319 41.6,117.692308 39.8117647,133.571429 L127.529412,133.571429 L127.529412,148.142857 Z M75.3882353,85 C83.0117647,88.456044 91.4823529,90.3241758 100.423529,90.3241758 L107.576471,90.3241758 C110.494118,90.3241758 112.847059,87.989011 112.847059,85.0934066 L112.847059,84.8131868 C112.847059,81.9175824 110.494118,79.5824176 107.576471,79.5824176 L100.423529,79.5824176 C91.5764706,79.6758242 83.1058824,81.543956 75.3882353,85 Z" id="Shape" fill="#FF1C1D" fill-rule="nonzero"></path>
                        <g transform="translate(24.470588, 36.428571)" id="Path">
                            <path d="M24.7529412,48.5714286 C28.4235294,45.2087912 32.3764706,42.2197802 36.7058824,39.6043956 C25.0352941,29.7967033 17.1294118,15.7857143 15.3411765,7.10542736e-15 L0.564705882,7.10542736e-15 C2.35294118,19.1483516 11.2941176,36.2417582 24.7529412,48.5714286 Z" fill="url(#linearGradient-1)"></path>
                            <path d="M51.0117647,48.5714286 C45.8352941,50.9065934 41.0352941,53.8956044 36.7058824,57.5384615 C48.1882353,64.4505495 61.6470588,68.467033 75.9529412,68.467033 L75.9529412,53.8956044 C67.1058824,53.8956044 58.6352941,51.9340659 51.0117647,48.5714286 Z" fill="url(#linearGradient-2)"></path>
                        </g>
                        <rect id="Rectangle" fill="url(#linearGradient-3)" x="39.8117647" y="133.571429" width="87.7176471" height="14.5714286"></rect>
                    </g>
                </g>
            </g>
        </g>
    </g>
</svg>