<?xml version="1.0" encoding="UTF-8"?>
<svg width="134px" height="24px" viewBox="0 0 134 24" version="1.1" xmlns="http://www.w3.org/2000/svg" xmlns:xlink="http://www.w3.org/1999/xlink">
    <!-- Generator: Sketch 52.6 (67491) - http://www.bohemiancoding.com/sketch -->
    <title>epic_top</title>
    <desc>Created with Sketch.</desc>
    <defs>
        <linearGradient x1="19.7705729%" y1="17.7676923%" x2="159.844271%" y2="160.418654%" id="linearGradient-1">
            <stop stop-color="#CB1A1A" offset="0%"></stop>
            <stop stop-color="#A0003C" stop-opacity="0" offset="100%"></stop>
        </linearGradient>
        <linearGradient x1="-38.31247%" y1="-32.1352113%" x2="70.1261391%" y2="54.4760563%" id="linearGradient-2">
            <stop stop-color="#E79595" offset="0%"></stop>
            <stop stop-color="#A0003C" stop-opacity="0" offset="100%"></stop>
        </linearGradient>
        <linearGradient x1="-14.8421674%" y1="50.0269231%" x2="100.035193%" y2="50.0269231%" id="linearGradient-3">
            <stop stop-color="#CB1A1A" offset="0%"></stop>
            <stop stop-color="#A0003C" stop-opacity="0" offset="100%"></stop>
        </linearGradient>
    </defs>
    <g id="Welcome" stroke="none" stroke-width="1" fill="none" fill-rule="evenodd">
        <g id="First---Desktop-HD-Copy" transform="translate(-48.000000, -28.000000)">
            <g id="epic_top" transform="translate(48.000000, 28.000000)">
                <g id="Group" transform="translate(39.000000, 2.000000)" fill="#FF1C1D">
                    <path d="M0.168704981,0.631578947 C1.13875862,0.568421053 1.41290421,0.568421053 1.68704981,0.568421053 L4.89244444,0.652631579 L9.55291954,0.631578947 C11.34541,0.631578947 12.0834943,0.505263158 13.5596628,0.568421053 L14.0446897,0.589473684 L14.0657778,1.34736842 L13.9814253,4.52631579 L13.2222529,4.52631579 L13.2222529,4.35789474 C13.2222529,3.85263158 13.2011648,2.75789474 12.5685211,2.14736842 C11.8093487,1.41052632 10.1222989,1.41052632 8.66721839,1.41052632 C7.80260536,1.41052632 6.47405364,1.30526316 5.90467433,1.95789474 C5.58835249,2.33684211 5.504,2.96842105 5.504,4.42105263 L5.504,8.94736842 C6.36861303,9.01052632 6.8114636,9.03157895 7.21213793,9.03157895 C7.69716475,9.03157895 8.92027586,8.96842105 9.29986207,8.94736842 C9.7005364,8.92631579 10.3542682,8.82105263 10.7971188,8.35789474 C11.1556169,7.97894737 11.3875862,7.34736842 11.4508506,6.86315789 L12.1256705,6.86315789 C12.0202299,9.26315789 11.9991418,10.8421053 12.0202299,12.5473684 L11.3243218,12.5473684 C11.3032337,11.2842105 10.9658238,10.6526316 10.5651494,10.3578947 C10.1012107,10.0421053 9.36312644,10 8.26654406,10 C7.14887356,10 6.30534866,10.0210526 5.52508812,10.0631579 L5.52508812,15.5789474 C5.52508812,16.3368421 5.58835249,17.3894737 6.11555556,17.9368421 C6.66384674,18.4421053 7.71825287,18.5052632 8.47742529,18.5052632 L11.703908,18.5052632 C12.210023,18.5052632 12.905931,18.5052632 13.4963985,18 C14.1290421,17.4947368 14.7405977,16.1263158 15.0358314,15.4526316 L15.7950038,15.5789474 L14.6773333,19.3684211 C14.0025134,19.3894737 13.3698697,19.4315789 12.3154636,19.4315789 C11.5562912,19.4315789 10.7971188,19.4315789 10.0379464,19.4105263 C8.64613027,19.3894737 7.2754023,19.3052632 5.88358621,19.3052632 C4.30197701,19.3052632 3.16321839,19.4105263 2.19316475,19.4315789 C0.843524904,19.4947368 0.48502682,19.4947368 0.358498084,19.4947368 L0,19.4947368 L0,18.7578947 C0.864613027,18.7578947 2.06663602,18.7368421 2.59383908,18.1263158 C3.03668966,17.6421053 3.05777778,16.8631579 3.05777778,16.2526316 L3.05777778,3.09473684 C3.05777778,2.4 2.80472031,1.93684211 2.19316475,1.64210526 C1.70813793,1.38947368 0.759172414,1.28421053 0.168704981,1.28421053 L0.168704981,0.631578947 Z" id="Path"></path>
                    <path d="M28.1948199,18.5894737 C30.7464828,18.4210526 31.2104215,18.1263158 31.2104215,16.0631579 L31.2104215,3.11578947 C31.2104215,1.89473684 30.7253946,1.47368421 29.2070498,1.47368421 C28.9329042,1.47368421 28.5744061,1.49473684 28.1737318,1.53684211 L28.1737318,0.8 C30.619954,0.4 32.7287663,0.126315789 34.4579923,0.126315789 C39.8354636,0.126315789 42.8721533,2.56842105 42.8721533,5.81052632 C42.8721533,8.90526316 40.5313716,11.1789474 36.9042146,11.1789474 C36.4191877,11.1789474 35.955249,11.1578947 35.5545747,11.0736842 L35.5545747,10.4 L35.8498084,10.4 C38.696705,10.4 40.2361379,8.8 40.2361379,5.85263158 C40.2361379,3.17894737 38.2116782,1.11578947 35.428046,1.11578947 C34.1627586,1.11578947 33.6355556,1.47368421 33.6355556,2.44210526 L33.6355556,16.0421053 C33.6355556,18.1052632 33.888613,18.6105263 36.292659,18.6947368 L36.2715709,19.4315789 L35.7865441,19.4315789 C34.1627586,19.4315789 32.8342069,19.3263158 31.821977,19.3263158 C31.0838927,19.3263158 29.8607816,19.3894737 28.1948199,19.4315789 L28.1948199,18.5894737 Z" id="Path"></path>
                    <path d="M56.3474636,0.631578947 C56.8535785,0.631578947 57.3596935,0.631578947 57.8658084,0.652631579 C58.646069,0.673684211 59.4052414,0.736842105 60.20659,0.736842105 C61.3242605,0.736842105 62.4841073,0.652631579 64.2555096,0.631578947 L64.2555096,1.45263158 C62.6528123,1.53684211 61.9569042,1.64210526 61.577318,1.95789474 C61.2188199,2.27368421 61.1766437,2.71578947 61.1766437,3.03157895 L61.1766437,16.6736842 C61.1766437,17.1578947 61.1766437,17.8105263 61.6405824,18.1894737 C61.9569042,18.4631579 62.5684598,18.5473684 63.4119847,18.5473684 L63.9180996,18.5473684 L63.9180996,19.3684211 C61.577318,19.4526316 61.5562299,19.3473684 59.7426513,19.3473684 C58.1188659,19.3473684 57.9079847,19.4526316 55.8835249,19.3684211 L55.8835249,18.5473684 C56.3685517,18.5473684 57.8025441,18.5263158 58.2875709,18 C58.6671571,17.6 58.6671571,16.7789474 58.6671571,16.3578947 L58.6671571,3.24210526 C58.6671571,2.8 58.646069,2.29473684 58.1821303,1.91578947 C57.7181916,1.53684211 56.579433,1.41052632 55.904613,1.41052632 L55.904613,0.631578947 L56.3474636,0.631578947 Z" id="Path"></path>
                    <path d="M94.8965517,14.8 C94.7911111,15.5368421 94.7067586,15.9578947 94.5802299,16.5684211 C94.4537011,17.2210526 94.3271724,17.6842105 94.2006437,18.4842105 C91.6278927,19.7473684 89.3081992,19.9368421 87.9585594,19.9368421 C85.8075709,19.9368421 83.8252874,19.4526316 82.2647663,18.6105263 C80.6831571,17.7684211 79.1648123,16.4421053 78.1104061,14.6315789 C77.1825287,13.0526316 76.8029425,11.5157895 76.8029425,9.93684211 C76.8029425,8.8 77.0138238,7.01052632 78.3001992,5.01052632 C79.2702529,3.47368421 81.020567,1.64210526 83.7831111,0.736842105 C85.1116628,0.273684211 86.5034789,0.105263158 87.7687663,0.105263158 C89.0129655,0.105263158 90.1728123,0.273684211 91.163954,0.505263158 C92.5135939,0.863157895 93.6312644,1.36842105 94.1162912,1.62105263 C94.2428199,3.43157895 94.3060843,3.30526316 94.4747893,5.41052632 L93.7999693,5.51578947 C93.4836475,4.18947368 92.7877395,3.26315789 92.197272,2.67368421 C91.0796015,1.55789474 89.6666973,0.989473684 87.8742069,0.989473684 C86.2504215,0.989473684 84.9218697,1.43157895 83.8885517,2.02105263 C82.6443525,2.75789474 81.6110345,3.85263158 80.8307739,5.34736842 C80.0505134,6.84210526 79.7763678,8.21052632 79.7763678,9.76842105 C79.7763678,11.4736842 80.0716015,12.9894737 80.7885977,14.3789474 C81.526682,15.8105263 82.6232644,17.0526316 83.930728,17.8105263 C85.1960153,18.5473684 86.8408889,18.8842105 88.2959693,18.8842105 C90.6578391,18.8842105 91.9863908,18.0210526 92.6612107,17.3473684 C93.3149425,16.6947368 93.8843218,15.7263158 94.1162912,14.5894737 L94.8965517,14.8 Z" id="Path"></path>
                </g>
                <g id="Group">
                    <path d="M17.9554045,23.9604396 L0.172265874,23.9604396 L0.132512211,23.1296703 C-0.145763432,17.9340659 0.503546401,14.9274725 2.61049055,12 C0.503546401,9.07252747 -0.159014653,6.06593407 0.132512211,0.87032967 L0.172265874,0.0395604396 L17.9554045,0.0395604396 L17.9554045,1.80659341 L1.85517095,1.80659341 C1.68290508,6.93626374 2.62374177,9.19120879 4.41265661,11.4593407 L4.83669569,12 L4.41265661,12.5406593 C2.63699299,14.8087912 1.68290508,17.0637363 1.85517095,22.1934066 L17.9554045,22.1934066 L17.9554045,23.9604396 Z" id="Path" fill="#FF1C1D"></path>
                    <path d="M17.9554045,20.9142857 L3.48507114,20.9142857 L3.48507114,19.7934066 C3.48507114,16.7208791 4.81019325,13.9384615 6.9171374,12 C4.81019325,10.0615385 3.48507114,7.29230769 3.48507114,4.20659341 L3.48507114,3.08571429 L17.9554045,3.08571429 L17.9554045,5.14285714 L5.60526651,5.14285714 C5.84378849,7.38461538 6.97014228,9.36263736 8.60004247,10.7340659 C10.2166914,9.75824176 12.1116161,9.19120879 14.1390529,9.19120879 L15.1461457,9.19120879 C16.6965385,9.19120879 17.9554045,10.443956 17.9554045,11.9868132 L17.9554045,12.0263736 C17.9554045,13.5692308 16.6965385,14.821978 15.1461457,14.821978 L14.1390529,14.821978 C12.1116161,14.821978 10.2166914,14.2549451 8.60004247,13.2791209 C6.97014228,14.6373626 5.85703971,16.6153846 5.60526651,18.8571429 L17.9554045,18.8571429 L17.9554045,20.9142857 Z M10.6142281,12 C11.687577,12.4879121 12.8801869,12.7516484 14.1390529,12.7516484 L15.1461457,12.7516484 C15.5569335,12.7516484 15.8882141,12.421978 15.8882141,12.0131868 L15.8882141,11.9736264 C15.8882141,11.5648352 15.5569335,11.2351648 15.1461457,11.2351648 L14.1390529,11.2351648 C12.8934381,11.2483516 11.7008282,11.5120879 10.6142281,12 Z" id="Shape" fill="#FF1C1D" fill-rule="nonzero"></path>
                    <g transform="translate(3.445317, 5.142857)" id="Path">
                        <path d="M3.48507114,6.85714286 C4.00186876,6.38241758 4.55842005,5.96043956 5.16797622,5.59120879 C3.5248248,4.20659341 2.41172223,2.22857143 2.15994903,7.10542736e-15 L0.0795073264,7.10542736e-15 C0.331280527,2.7032967 1.59014653,5.11648352 3.48507114,6.85714286 Z" fill="url(#linearGradient-1)"></path>
                        <path d="M7.18216182,6.85714286 C6.45334466,7.18681319 5.77753238,7.60879121 5.16797622,8.12307692 C6.78462519,9.0989011 8.6795498,9.66593407 10.6937354,9.66593407 L10.6937354,7.60879121 C9.44812062,7.60879121 8.25551072,7.33186813 7.18216182,6.85714286 Z" fill="url(#linearGradient-2)"></path>
                    </g>
                    <rect id="Rectangle" fill="url(#linearGradient-3)" x="5.60526651" y="18.8571429" width="12.350138" height="2.05714286"></rect>
                </g>
            </g>
        </g>
    </g>
</svg>