<?xml version="1.0" encoding="UTF-8"?>
<svg width="65px" height="40px" viewBox="0 0 65 40" version="1.1" xmlns="http://www.w3.org/2000/svg" xmlns:xlink="http://www.w3.org/1999/xlink">
    <!-- Generator: Sketch 52.6 (67491) - http://www.bohemiancoding.com/sketch -->
    <title>facebook_btn</title>
    <desc>Created with Sketch.</desc>
    <defs>
        <polygon id="path-1" points="20 0 65 0 45 40 0 40"></polygon>
    </defs>
    <g id="Welcome" stroke="none" stroke-width="1" fill="none" fill-rule="evenodd">
        <g id="First---Desktop-HD-Copy" transform="translate(-380.000000, -9371.000000)">
            <g id="facebook_btn" transform="translate(380.000000, 9371.000000)">
                <mask id="mask-2" fill="white">
                    <use xlink:href="#path-1"></use>
                </mask>
                <use id="Rectangle" fill="#FFFFFF" xlink:href="#path-1"></use>
                <g id="twitter" mask="url(#mask-2)">
                    <g transform="translate(-2.000000, 0.000000)">
                        <polygon id="Rectangle" fill="#50ABF1" points="1.13877575e-13 0 68.9764035 0 68.9764035 39.9764035 1.13877575e-13 39.9764035"></polygon>
                        <path d="M20.2962281,29.6335088 C22.9567544,31.3208772 26.1127193,32.2973684 29.4957895,32.2973684 C39.0000877,32.2973684 46.7045614,24.5920175 46.7045614,15.0885965 C46.7045614,14.8513158 46.6995614,14.6157895 46.6904386,14.3809649 C47.0342105,14.1104386 49.1603509,12.4063158 49.6814912,11.3107895 C49.6814912,11.3107895 47.9549123,12.0283333 46.2650877,12.1973684 C46.2617544,12.1973684 46.2576316,12.1981579 46.2542982,12.1981579 C46.2542982,12.1981579 46.2576316,12.1964912 46.2634211,12.1923684 C46.4191228,12.0883333 48.5959649,10.6064912 48.8907018,8.84087719 C48.8907018,8.84087719 47.6694737,9.4927193 45.9595614,10.0629825 C45.6764912,10.1570175 45.3801754,10.2494737 45.0746491,10.3351754 C43.9724561,9.15885965 42.4057895,8.42464912 40.6667544,8.42464912 C37.3310526,8.42464912 34.6280702,11.1268421 34.6280702,14.46 C34.6280702,14.9303509 34.682193,15.3881579 34.7845614,15.8277193 C34.3184211,15.8085965 27.2199123,15.410614 22.3907895,9.56254386 C22.3907895,9.56254386 19.5046491,13.5026316 24.1107018,17.5542105 C24.1107018,17.5542105 22.7105263,17.4984211 21.5025439,16.7766667 C21.5025439,16.7766667 21.0588596,21.55 26.2750877,22.7704386 C26.2750877,22.7704386 25.2486842,23.1592105 23.6112281,22.8820175 C23.6112281,22.8820175 24.5269298,26.7388596 29.1613158,27.0992982 C29.1613158,27.0992982 25.4966667,30.4098246 20.2945614,29.6330702 L20.2962281,29.6335088 Z" id="Path" fill="#FFFFFF"></path>
                    </g>
                </g>
            </g>
        </g>
    </g>
</svg>