<?xml version="1.0" encoding="UTF-8"?>
<svg width="65px" height="40px" viewBox="0 0 65 40" version="1.1" xmlns="http://www.w3.org/2000/svg" xmlns:xlink="http://www.w3.org/1999/xlink">
    <!-- Generator: Sketch 52.6 (67491) - http://www.bohemiancoding.com/sketch -->
    <title>instagram_btn</title>
    <desc>Created with Sketch.</desc>
    <defs>
        <polygon id="path-1" points="20 0 65 0 45 40 0 40"></polygon>
    </defs>
    <g id="Welcome" stroke="none" stroke-width="1" fill="none" fill-rule="evenodd">
        <g id="First---Desktop-HD-Copy" transform="translate(-325.000000, -9371.000000)">
            <g id="instagram_btn" transform="translate(325.000000, 9371.000000)">
                <mask id="mask-2" fill="white">
                    <use xlink:href="#path-1"></use>
                </mask>
                <use id="Rectangle" fill="#F5F5F5" xlink:href="#path-1"></use>
                <path d="M3,0 L-2,39.9763158 L64.9763158,39.9763158 L64.9763158,0 L3,0 Z M31.9877193,16.0131579 C29.7964912,16.0131579 28.0122807,17.7964912 28.0122807,19.9877193 C28.0122807,22.1798246 29.7964912,23.9640351 31.9877193,23.9640351 C34.1798246,23.9640351 35.9631579,22.1798246 35.9631579,19.9877193 C35.9631579,17.7964912 34.1798246,16.0131579 31.9877193,16.0131579 Z M31.9877193,16.0131579 C29.7964912,16.0131579 28.0122807,17.7964912 28.0122807,19.9877193 C28.0122807,22.1798246 29.7964912,23.9640351 31.9877193,23.9640351 C34.1798246,23.9640351 35.9631579,22.1798246 35.9631579,19.9877193 C35.9631579,17.7964912 34.1798246,16.0131579 31.9877193,16.0131579 Z M38.6105263,9.53157895 L25.3657895,9.53157895 C23.2517544,9.53157895 21.5315789,11.2517544 21.5315789,13.3657895 L21.5315789,26.6105263 C21.5315789,28.7245614 23.2517544,30.4447368 25.3657895,30.4447368 L38.6105263,30.4447368 C40.7245614,30.4447368 42.4447368,28.7245614 42.4447368,26.6105263 L42.4447368,13.3657895 C42.4447368,11.2517544 40.7245614,9.53157895 38.6105263,9.53157895 Z M31.9877193,26.872807 C28.1921053,26.872807 25.1035088,23.7842105 25.1035088,19.9877193 C25.1035088,16.1921053 28.1921053,13.1035088 31.9877193,13.1035088 C35.7842105,13.1035088 38.872807,16.1921053 38.872807,19.9877193 C38.872807,23.7842105 35.7842105,26.872807 31.9877193,26.872807 Z M39.0938596,14.527193 C38.195614,14.527193 37.4649123,13.7964912 37.4649123,12.8982456 C37.4649123,12 38.195614,11.2692982 39.0938596,11.2692982 C39.9921053,11.2692982 40.722807,12 40.722807,12.8982456 C40.722807,13.7964912 39.9921053,14.527193 39.0938596,14.527193 Z M31.9877193,16.0131579 C29.7964912,16.0131579 28.0122807,17.7964912 28.0122807,19.9877193 C28.0122807,22.1798246 29.7964912,23.9640351 31.9877193,23.9640351 C34.1798246,23.9640351 35.9631579,22.1798246 35.9631579,19.9877193 C35.9631579,17.7964912 34.1798246,16.0131579 31.9877193,16.0131579 Z M38.6105263,9.53157895 L25.3657895,9.53157895 C23.2517544,9.53157895 21.5315789,11.2517544 21.5315789,13.3657895 L21.5315789,26.6105263 C21.5315789,28.7245614 23.2517544,30.4447368 25.3657895,30.4447368 L38.6105263,30.4447368 C40.7245614,30.4447368 42.4447368,28.7245614 42.4447368,26.6105263 L42.4447368,13.3657895 C42.4447368,11.2517544 40.7245614,9.53157895 38.6105263,9.53157895 Z M31.9877193,26.872807 C28.1921053,26.872807 25.1035088,23.7842105 25.1035088,19.9877193 C25.1035088,16.1921053 28.1921053,13.1035088 31.9877193,13.1035088 C35.7842105,13.1035088 38.872807,16.1921053 38.872807,19.9877193 C38.872807,23.7842105 35.7842105,26.872807 31.9877193,26.872807 Z M39.0938596,14.527193 C38.195614,14.527193 37.4649123,13.7964912 37.4649123,12.8982456 C37.4649123,12 38.195614,11.2692982 39.0938596,11.2692982 C39.9921053,11.2692982 40.722807,12 40.722807,12.8982456 C40.722807,13.7964912 39.9921053,14.527193 39.0938596,14.527193 Z M31.9877193,16.0131579 C29.7964912,16.0131579 28.0122807,17.7964912 28.0122807,19.9877193 C28.0122807,22.1798246 29.7964912,23.9640351 31.9877193,23.9640351 C34.1798246,23.9640351 35.9631579,22.1798246 35.9631579,19.9877193 C35.9631579,17.7964912 34.1798246,16.0131579 31.9877193,16.0131579 Z M45.3535088,26.6105263 C45.3535088,30.3289474 42.3289474,33.3535088 38.6105263,33.3535088 L25.3657895,33.3535088 C21.6473684,33.3535088 18.622807,30.3289474 18.622807,26.6105263 L18.622807,13.3657895 C18.622807,9.64736842 21.6473684,6.62280702 25.3657895,6.62280702 L38.6105263,6.62280702 C42.3289474,6.62280702 45.3535088,9.64736842 45.3535088,13.3657895 L45.3535088,26.6105263 Z M38.6105263,9.53157895 L25.3657895,9.53157895 C23.2517544,9.53157895 21.5315789,11.2517544 21.5315789,13.3657895 L21.5315789,26.6105263 C21.5315789,28.7245614 23.2517544,30.4447368 25.3657895,30.4447368 L38.6105263,30.4447368 C40.7245614,30.4447368 42.4447368,28.7245614 42.4447368,26.6105263 L42.4447368,13.3657895 C42.4447368,11.2517544 40.7245614,9.53157895 38.6105263,9.53157895 Z M31.9877193,26.872807 C28.1921053,26.872807 25.1035088,23.7842105 25.1035088,19.9877193 C25.1035088,16.1921053 28.1921053,13.1035088 31.9877193,13.1035088 C35.7842105,13.1035088 38.872807,16.1921053 38.872807,19.9877193 C38.872807,23.7842105 35.7842105,26.872807 31.9877193,26.872807 Z M39.0938596,14.527193 C38.195614,14.527193 37.4649123,13.7964912 37.4649123,12.8982456 C37.4649123,12 38.195614,11.2692982 39.0938596,11.2692982 C39.9921053,11.2692982 40.722807,12 40.722807,12.8982456 C40.722807,13.7964912 39.9921053,14.527193 39.0938596,14.527193 Z M31.9877193,16.0131579 C29.7964912,16.0131579 28.0122807,17.7964912 28.0122807,19.9877193 C28.0122807,22.1798246 29.7964912,23.9640351 31.9877193,23.9640351 C34.1798246,23.9640351 35.9631579,22.1798246 35.9631579,19.9877193 C35.9631579,17.7964912 34.1798246,16.0131579 31.9877193,16.0131579 Z M31.9877193,16.0131579 C29.7964912,16.0131579 28.0122807,17.7964912 28.0122807,19.9877193 C28.0122807,22.1798246 29.7964912,23.9640351 31.9877193,23.9640351 C34.1798246,23.9640351 35.9631579,22.1798246 35.9631579,19.9877193 C35.9631579,17.7964912 34.1798246,16.0131579 31.9877193,16.0131579 Z M31.9877193,16.0131579 C29.7964912,16.0131579 28.0122807,17.7964912 28.0122807,19.9877193 C28.0122807,22.1798246 29.7964912,23.9640351 31.9877193,23.9640351 C34.1798246,23.9640351 35.9631579,22.1798246 35.9631579,19.9877193 C35.9631579,17.7964912 34.1798246,16.0131579 31.9877193,16.0131579 Z M38.6105263,9.53157895 L25.3657895,9.53157895 C23.2517544,9.53157895 21.5315789,11.2517544 21.5315789,13.3657895 L21.5315789,26.6105263 C21.5315789,28.7245614 23.2517544,30.4447368 25.3657895,30.4447368 L38.6105263,30.4447368 C40.7245614,30.4447368 42.4447368,28.7245614 42.4447368,26.6105263 L42.4447368,13.3657895 C42.4447368,11.2517544 40.7245614,9.53157895 38.6105263,9.53157895 Z M31.9877193,26.872807 C28.1921053,26.872807 25.1035088,23.7842105 25.1035088,19.9877193 C25.1035088,16.1921053 28.1921053,13.1035088 31.9877193,13.1035088 C35.7842105,13.1035088 38.872807,16.1921053 38.872807,19.9877193 C38.872807,23.7842105 35.7842105,26.872807 31.9877193,26.872807 Z M39.0938596,14.527193 C38.195614,14.527193 37.4649123,13.7964912 37.4649123,12.8982456 C37.4649123,12 38.195614,11.2692982 39.0938596,11.2692982 C39.9921053,11.2692982 40.722807,12 40.722807,12.8982456 C40.722807,13.7964912 39.9921053,14.527193 39.0938596,14.527193 Z M31.9877193,16.0131579 C29.7964912,16.0131579 28.0122807,17.7964912 28.0122807,19.9877193 C28.0122807,22.1798246 29.7964912,23.9640351 31.9877193,23.9640351 C34.1798246,23.9640351 35.9631579,22.1798246 35.9631579,19.9877193 C35.9631579,17.7964912 34.1798246,16.0131579 31.9877193,16.0131579 Z M31.9877193,16.0131579 C29.7964912,16.0131579 28.0122807,17.7964912 28.0122807,19.9877193 C28.0122807,22.1798246 29.7964912,23.9640351 31.9877193,23.9640351 C34.1798246,23.9640351 35.9631579,22.1798246 35.9631579,19.9877193 C35.9631579,17.7964912 34.1798246,16.0131579 31.9877193,16.0131579 Z M31.9877193,16.0131579 C29.7964912,16.0131579 28.0122807,17.7964912 28.0122807,19.9877193 C28.0122807,22.1798246 29.7964912,23.9640351 31.9877193,23.9640351 C34.1798246,23.9640351 35.9631579,22.1798246 35.9631579,19.9877193 C35.9631579,17.7964912 34.1798246,16.0131579 31.9877193,16.0131579 Z M38.6105263,9.53157895 L25.3657895,9.53157895 C23.2517544,9.53157895 21.5315789,11.2517544 21.5315789,13.3657895 L21.5315789,26.6105263 C21.5315789,28.7245614 23.2517544,30.4447368 25.3657895,30.4447368 L38.6105263,30.4447368 C40.7245614,30.4447368 42.4447368,28.7245614 42.4447368,26.6105263 L42.4447368,13.3657895 C42.4447368,11.2517544 40.7245614,9.53157895 38.6105263,9.53157895 Z M31.9877193,26.872807 C28.1921053,26.872807 25.1035088,23.7842105 25.1035088,19.9877193 C25.1035088,16.1921053 28.1921053,13.1035088 31.9877193,13.1035088 C35.7842105,13.1035088 38.872807,16.1921053 38.872807,19.9877193 C38.872807,23.7842105 35.7842105,26.872807 31.9877193,26.872807 Z M39.0938596,14.527193 C38.195614,14.527193 37.4649123,13.7964912 37.4649123,12.8982456 C37.4649123,12 38.195614,11.2692982 39.0938596,11.2692982 C39.9921053,11.2692982 40.722807,12 40.722807,12.8982456 C40.722807,13.7964912 39.9921053,14.527193 39.0938596,14.527193 Z M31.9877193,16.0131579 C29.7964912,16.0131579 28.0122807,17.7964912 28.0122807,19.9877193 C28.0122807,22.1798246 29.7964912,23.9640351 31.9877193,23.9640351 C34.1798246,23.9640351 35.9631579,22.1798246 35.9631579,19.9877193 C35.9631579,17.7964912 34.1798246,16.0131579 31.9877193,16.0131579 Z" id="Shape" fill="#C536A4" fill-rule="nonzero" mask="url(#mask-2)"></path>
            </g>
        </g>
    </g>
</svg>