<svg xmlns="http://www.w3.org/2000/svg" xmlns:xlink="http://www.w3.org/1999/xlink" width="65" height="40" viewBox="0 0 65 40">
    <defs>
        <path id="a" d="M20 0h45L45 40H0z"/>
    </defs>
    <g fill="none" fill-rule="evenodd">
        <mask id="b" fill="#fff">
            <use xlink:href="#a"/>
        </mask>
        <use fill="#F5F5F5" xlink:href="#a"/>
        <path fill="#C536A4" fill-rule="nonzero" d="M3 0l-5 39.976h66.976V0H3zm28.988 16.013a3.98 3.98 0 0 0-3.976 3.975 3.981 3.981 0 0 0 3.976 3.976 3.98 3.98 0 0 0 3.975-3.976 3.98 3.98 0 0 0-3.975-3.975zm0 0a3.98 3.98 0 0 0-3.976 3.975 3.981 3.981 0 0 0 3.976 3.976 3.98 3.98 0 0 0 3.975-3.976 3.98 3.98 0 0 0-3.975-3.975zm6.623-6.481H25.366a3.839 3.839 0 0 0-3.834 3.834V26.61a3.839 3.839 0 0 0 3.834 3.834H38.61a3.839 3.839 0 0 0 3.834-3.834V13.366a3.839 3.839 0 0 0-3.834-3.834zm-6.623 17.34a6.893 6.893 0 0 1-6.884-6.884 6.892 6.892 0 0 1 6.884-6.884 6.893 6.893 0 0 1 6.885 6.884 6.893 6.893 0 0 1-6.885 6.885zm7.106-12.345a1.63 1.63 0 0 1-1.63-1.629c0-.898.732-1.629 1.63-1.629.898 0 1.629.731 1.629 1.63a1.63 1.63 0 0 1-1.63 1.628zm-7.106 1.486a3.98 3.98 0 0 0-3.976 3.975 3.981 3.981 0 0 0 3.976 3.976 3.98 3.98 0 0 0 3.975-3.976 3.98 3.98 0 0 0-3.975-3.975zm6.623-6.481H25.366a3.839 3.839 0 0 0-3.834 3.834V26.61a3.839 3.839 0 0 0 3.834 3.834H38.61a3.839 3.839 0 0 0 3.834-3.834V13.366a3.839 3.839 0 0 0-3.834-3.834zm-6.623 17.34a6.893 6.893 0 0 1-6.884-6.884 6.892 6.892 0 0 1 6.884-6.884 6.893 6.893 0 0 1 6.885 6.884 6.893 6.893 0 0 1-6.885 6.885zm7.106-12.345a1.63 1.63 0 0 1-1.63-1.629c0-.898.732-1.629 1.63-1.629.898 0 1.629.731 1.629 1.63a1.63 1.63 0 0 1-1.63 1.628zm-7.106 1.486a3.98 3.98 0 0 0-3.976 3.975 3.981 3.981 0 0 0 3.976 3.976 3.98 3.98 0 0 0 3.975-3.976 3.98 3.98 0 0 0-3.975-3.975zm13.366 10.598a6.75 6.75 0 0 1-6.743 6.743H25.366a6.75 6.75 0 0 1-6.743-6.743V13.366a6.75 6.75 0 0 1 6.743-6.743H38.61a6.75 6.75 0 0 1 6.743 6.743V26.61zM38.61 9.53H25.366a3.839 3.839 0 0 0-3.834 3.835V26.61a3.839 3.839 0 0 0 3.834 3.834H38.61a3.839 3.839 0 0 0 3.834-3.834V13.366a3.839 3.839 0 0 0-3.834-3.834zm-6.623 17.342a6.893 6.893 0 0 1-6.884-6.885 6.892 6.892 0 0 1 6.884-6.884 6.893 6.893 0 0 1 6.885 6.884 6.893 6.893 0 0 1-6.885 6.885zm7.106-12.346a1.63 1.63 0 0 1-1.63-1.629c0-.898.732-1.629 1.63-1.629.898 0 1.629.731 1.629 1.63a1.63 1.63 0 0 1-1.63 1.628zm-7.106 1.486a3.98 3.98 0 0 0-3.976 3.975 3.981 3.981 0 0 0 3.976 3.976 3.98 3.98 0 0 0 3.975-3.976 3.98 3.98 0 0 0-3.975-3.975zm0 0a3.98 3.98 0 0 0-3.976 3.975 3.981 3.981 0 0 0 3.976 3.976 3.98 3.98 0 0 0 3.975-3.976 3.98 3.98 0 0 0-3.975-3.975zm0 0a3.98 3.98 0 0 0-3.976 3.975 3.981 3.981 0 0 0 3.976 3.976 3.98 3.98 0 0 0 3.975-3.976 3.98 3.98 0 0 0-3.975-3.975zm6.623-6.481H25.366a3.839 3.839 0 0 0-3.834 3.834V26.61a3.839 3.839 0 0 0 3.834 3.834H38.61a3.839 3.839 0 0 0 3.834-3.834V13.366a3.839 3.839 0 0 0-3.834-3.834zm-6.623 17.34a6.893 6.893 0 0 1-6.884-6.884 6.892 6.892 0 0 1 6.884-6.884 6.893 6.893 0 0 1 6.885 6.884 6.893 6.893 0 0 1-6.885 6.885zm7.106-12.345a1.63 1.63 0 0 1-1.63-1.629c0-.898.732-1.629 1.63-1.629.898 0 1.629.731 1.629 1.63a1.63 1.63 0 0 1-1.63 1.628zm-7.106 1.486a3.98 3.98 0 0 0-3.976 3.975 3.981 3.981 0 0 0 3.976 3.976 3.98 3.98 0 0 0 3.975-3.976 3.98 3.98 0 0 0-3.975-3.975zm0 0a3.98 3.98 0 0 0-3.976 3.975 3.981 3.981 0 0 0 3.976 3.976 3.98 3.98 0 0 0 3.975-3.976 3.98 3.98 0 0 0-3.975-3.975zm0 0a3.98 3.98 0 0 0-3.976 3.975 3.981 3.981 0 0 0 3.976 3.976 3.98 3.98 0 0 0 3.975-3.976 3.98 3.98 0 0 0-3.975-3.975zm6.623-6.481H25.366a3.839 3.839 0 0 0-3.834 3.834V26.61a3.839 3.839 0 0 0 3.834 3.834H38.61a3.839 3.839 0 0 0 3.834-3.834V13.366a3.839 3.839 0 0 0-3.834-3.834zm-6.623 17.34a6.893 6.893 0 0 1-6.884-6.884 6.892 6.892 0 0 1 6.884-6.884 6.893 6.893 0 0 1 6.885 6.884 6.893 6.893 0 0 1-6.885 6.885zm7.106-12.345a1.63 1.63 0 0 1-1.63-1.629c0-.898.732-1.629 1.63-1.629.898 0 1.629.731 1.629 1.63a1.63 1.63 0 0 1-1.63 1.628zm-7.106 1.486a3.98 3.98 0 0 0-3.976 3.975 3.981 3.981 0 0 0 3.976 3.976 3.98 3.98 0 0 0 3.975-3.976 3.98 3.98 0 0 0-3.975-3.975z" mask="url(#b)"/>
    </g>
</svg>
