<svg height="150" viewBox="0 0 150 150" width="150" xmlns="http://www.w3.org/2000/svg"><g fill="none" fill-rule="evenodd"><path d="m0 0h150v150h-150z" fill="#ff1c1d"/><g fill="#fff"><path d="m12 12v126h126v-126zm-4.5-4.5h135v135h-135z" fill-rule="nonzero"/><path d="m37.515 77.115v8.64c0 .6900035.2924971 1.1774986.8775 1.4625s1.582493.5174991 2.9925.6975c.4200021.0600003.63.3599973.63.9 0 .2400012-.0299997.5099985-.09.81-.8700043-.0600003-1.9574935-.1124998-3.2625-.1575s-2.7224924-.0675-4.2525-.0675c-1.0800054 0-2.122495.0224998-3.1275.0675s-1.9424956.0974997-2.8125.1575c-.0600003-.1200006-.09-.2549992-.09-.405v-.36c0-.5100026.1649984-.7949997.495-.855.6300031-.1200006 1.139998-.2324995 1.53-.3375.3900019-.1050005.6899989-.2249993.9-.36.210001-.1350007.3524996-.299999.4275-.495s.1125-.4424985.1125-.7425v-22.545c0-.600003-.2174978-1.0349986-.6525-1.305-.4350022-.2700013-1.2674938-.4799992-2.4975-.63-.1500007-.0600003-.2699996-.1499994-.36-.27-.0900005-.1200006-.135-.3299985-.135-.63v-.405c0-.1500008.0299997-.2699995.09-.36.8400042.0600003 1.8074945.1124998 2.9025.1575s2.0774956.0675 2.9475.0675h6.795c3.2100161 0 5.714991.7199928 7.515 2.16s2.7 3.4499871 2.7 6.03c0 1.1700058-.2249977 2.2874947-.675 3.3525s-1.1174956 1.994996-2.0025 2.79-1.9574937 1.4324976-3.2175 1.9125-2.6999919.72-4.32.72zm1.35-2.25c1.8300092 0 3.3074944-.4649954 4.4325-1.395 1.1250056-.9300047 1.6875-2.5049889 1.6875-4.725 0-2.0100101-.4424956-3.5699944-1.3275-4.68-.8850044-1.1100055-2.4824884-1.665-4.7925-1.665h-1.35v12.465zm42.8780769-13.86c.1200006-.2700013.3149986-.4799992.585-.63.2700014-.1500007.9299948-.225 1.98-.225.2400012 0 .5924977-.0074999 1.0575-.0225s.9674973-.0299999 1.5075-.045 1.0799973-.0374998 1.62-.0675c.5400027-.0300001 1.004998-.0599998 1.395-.09.0600003.1500008.09.2999993.09.45v.36c0 .4800024-.1649984.7649996-.495.855-.600003.0900005-1.0724983.1799995-1.4175.27s-.6074991.2024993-.7875.3375-.2999997.2924991-.36.4725-.09.3899988-.09.63c0 .0600003.0224998.6299946.0675 1.71s.1124995 2.4149921.2025 4.005c.0900004 1.590008.1799996 3.3149907.27 5.175s.1799996 3.6224917.27 5.2875.1649997 3.1124939.225 4.3425c.0600003 1.2300062.1049998 1.9799987.135 2.25 0 .3000015.0374996.547499.1125.7425s.209999.3674992.405.5175.4724982.2774995.8325.3825.8249971.2024996 1.395.2925c.3300017.0600003.495.3449974.495.855 0 .2100011-.0299997.4649985-.09.765-1.0500053-.0600003-2.0024957-.1124998-2.8575-.1575s-1.8224946-.0675-2.9025-.0675c-.990005 0-2.0474944.0224998-3.1725.0675s-2.0624962.0974997-2.8125.1575c-.0600003-.3000015-.09-.5549989-.09-.765 0-.3300017.0524995-.5549994.1575-.675s.2024995-.18.2925-.18c1.2300061-.210001 2.0249982-.4574986 2.385-.7425s.54-.727497.54-1.3275c0-.0900005-.0224998-.5699957-.0675-1.44-.0450002-.8700044-.0899998-1.9499936-.135-3.24s-.1049996-2.6849925-.18-4.185-.1499996-2.9099934-.225-4.23-.1349998-2.4599952-.18-3.42-.0824999-1.5449989-.1125-1.755l-9.225 21.465c-.1500008.2700013-.2774995.4724993-.3825.6075s-.2474991.2025-.4275.2025h-.27c-.1200006 0-.2099997-.0149998-.27-.045l-10.44-25.02c-.0300001.3900019-.0674998 1.1774941-.1125 2.3625s-.1049996 2.5424924-.18 4.0725c-.0750004 1.5300077-.1499996 3.1424915-.225 4.8375s-.1424997 3.2624928-.2025 4.7025-.1124998 2.6474951-.1575 3.6225-.0675 1.5074996-.0675 1.5975c0 .2700013.0299997.502499.09.6975s.1799991.3674992.36.5175.4499982.2774995.81.3825.8549968.2174994 1.485.3375c.3300017.0600003.495.3449974.495.855 0 .0900005-.0074999.2024993-.0225.3375s-.0374998.2774992-.0675.4275c-.810004-.0600003-1.5599966-.1124998-2.25-.1575-.6900035-.0450002-1.3799965-.0675-2.07-.0675-.600003 0-1.3499955.0224998-2.25.0675s-1.7099964.0974997-2.43.1575c-.0600003-.1200006-.09-.2549992-.09-.405v-.36c0-.3300017.0449996-.5474995.135-.6525.0900005-.1050005.2099993-.1724998.36-.2025.9300047-.210001 1.6049979-.4499987 2.025-.72s.6599997-.6749973.72-1.215c0-.2400012.0299997-.9674939.09-2.1825s.1349996-2.6549917.225-4.32.1799995-3.4349906.27-5.31c.0900004-1.8750094.1724996-3.614992.2475-5.22s.1349998-2.9474946.18-4.0275.0675-1.6499997.0675-1.71c0-.5100025-.1649983-.8774989-.495-1.1025s-1.0499944-.4274991-2.16-.6075c-.3300017-.0300002-.495-.3149973-.495-.855v-.36c0-.1500007.0299997-.2999992.09-.45.390002.0300002.9299966.0599999 1.62.09.6900035.0300002 1.3949964.0524999 2.115.0675s1.3949969.0299999 2.025.045 1.0799987.0225 1.35.0225c.5400027 0 .9599985.0224998 1.26.0675s.5399991.0974997.72.1575.3074996.1499994.3825.27.1424997.2399994.2025.36l8.37 20.205zm36.7580771 28.17c-.720004.1200006-1.394997.2249996-2.025.315-.630003.0900005-1.282497.1724996-1.9575.2475-.675004.0750004-1.409996.1274999-2.205.1575-.795004.0300002-1.717495.045-2.7675.045-2.700014 0-5.03249-.3599964-6.9975-1.08s-3.5774939-1.7474933-4.8375002-3.0825-2.1974969-2.9324907-2.8125-4.7925-.9225-3.9299886-.9225-6.21c0-1.7700088.299997-3.554991.9-5.355s1.5224938-3.4274927 2.7675-4.8825 2.8049902-2.6399954 4.6800002-3.555c1.875009-.9150046 4.072487-1.3725 6.5925-1.3725 1.740008 0 3.517491.1274987 5.3325.3825s3.532492.5924979 5.1525 1.0125c.06.8100041.179999 1.8449937.36 3.105s.434998 2.489994.765 3.69c-.150001.0300002-.329999.0674998-.54.1125s-.375.0675-.495.0675c-.240001 0-.442499-.0374996-.6075-.1125s-.2775-.2324988-.3375-.4725c-.630003-2.0700103-1.664993-3.4874962-3.105-4.2525s-3.22499-1.1475-5.355-1.1475c-1.620008 0-3.052494.2774972-4.2975.8325s-2.279996 1.3499948-3.105 2.385-1.454998 2.2799927-1.89 3.735-.6525 3.0974909-.6525 4.9275c0 2.0100101.239997 3.8549916.72 5.535.480002 1.6800084 1.184995 3.1274939 2.115 4.3425.930004 1.2150061 2.077493 2.1599966 3.4425 2.835s2.932491 1.0125 4.7025 1.0125c.630003 0 1.192497-.0299997 1.6875-.09.495002-.0600003 1.012497-.1649992 1.5525-.315v-6.48c0-.8100041-.224998-1.3724984-.675-1.6875s-1.244994-.5474993-2.385-.6975c-.240001-.0600003-.405-.187499-.495-.3825-.090001-.195001-.135-.3824991-.135-.5625 0-.0900004.0075-.2249991.0225-.405s.0375-.3149995.0675-.405c.450002.0300001.952497.0599998 1.5075.09.555003.0300001 1.124997.0524999 1.71.0675s1.147497.0299999 1.6875.045 1.004998.0225 1.395.0225.847497-.0074999 1.3725-.0225c.525002-.0150001 1.064997-.0299999 1.62-.045s1.094997-.0374999 1.62-.0675c.525002-.0300002.967498-.0599999 1.3275-.09.06.1500008.09.2999993.09.45v.36c0 .2700014-.0525.4724993-.1575.6075-.105001.1350007-.232499.2324997-.3825.2925-.960005.1200006-1.627498.3149987-2.0025.585-.375002.2700014-.5625.7199969-.5625 1.35v7.83c0 .2700014-.074999.4949991-.225.675s-.569997.3299994-1.26.45z"/></g></g></svg>