<?xml version="1.0" encoding="UTF-8"?>
<svg width="109px" height="25px" viewBox="0 0 109 25" version="1.1" xmlns="http://www.w3.org/2000/svg" xmlns:xlink="http://www.w3.org/1999/xlink">
    <!-- Generator: Sketch 52.6 (67491) - http://www.bohemiancoding.com/sketch -->
    <title>pmg_logo_footer</title>
    <desc>Created with Sketch.</desc>
    <g id="Welcome" stroke="none" stroke-width="1" fill="none" fill-rule="evenodd">
        <g id="First---Desktop-HD-Copy" transform="translate(-666.000000, -9543.000000)" fill="#FFFFFF">
            <g id="pmg_logo_footer" transform="translate(666.000000, 9543.000000)">
                <path d="M38.6568781,14.4287834 L38.6568781,21.5504451 C38.6568781,22.1191918 38.8973091,22.5210176 39.3781782,22.7559347 C39.8590474,22.9908518 40.6789786,23.1824918 41.8379966,23.3308605 C42.183236,23.3803168 42.3558531,23.6275942 42.3558531,24.0727003 C42.3558531,24.2705252 42.3311935,24.4930749 42.2818736,24.7403561 C41.5667348,24.6908999 40.6728248,24.6476263 39.6001167,24.6105341 C38.5274086,24.573442 37.3622432,24.5548961 36.1045854,24.5548961 C35.216827,24.5548961 34.3599064,24.573442 33.5337978,24.6105341 C32.7076893,24.6476263 31.9370772,24.6908999 31.2219385,24.7403561 C31.1726186,24.6414436 31.147959,24.5301688 31.147959,24.4065282 L31.147959,24.1097923 C31.147959,23.6894143 31.2835867,23.4545007 31.5548462,23.4050445 C32.0727053,23.306132 32.4919183,23.213403 32.8124977,23.1268546 C33.1330772,23.0403062 33.379673,22.9413952 33.5522927,22.8301187 C33.7249124,22.7188422 33.8420454,22.5828396 33.9036953,22.4221068 C33.9653452,22.2613741 33.9961697,22.0573702 33.9961697,21.810089 L33.9961697,3.22700297 C33.9961697,2.73244065 33.8173877,2.37388835 33.4598183,2.15133531 C33.102249,1.92878227 32.4179454,1.75568806 31.4068872,1.63204748 C31.2835875,1.58259125 31.1849491,1.50840801 31.1109692,1.40949555 C31.0369894,1.31058309 31,1.13748887 31,0.890207715 L31,0.556379822 C31,0.432739243 31.0246596,0.333828264 31.0739795,0.259643917 C31.7644583,0.309100148 32.5597299,0.352373702 33.4598183,0.389465875 C34.3599067,0.426558049 35.1675082,0.445103858 35.8826469,0.445103858 L41.4680991,0.445103858 C44.1067144,0.445103858 46.1657899,1.03856973 47.6453872,2.22551929 C49.1249846,3.41246884 49.8647722,5.06922774 49.8647722,7.1958457 C49.8647722,8.16024221 49.6798253,9.0813507 49.309926,9.95919881 C48.9400266,10.8370469 48.3913508,11.603607 47.6638821,12.2589021 C46.9364134,12.9141971 46.0548332,13.4396617 45.019115,13.8353116 C43.9833969,14.2309614 42.7997367,14.4287834 41.4680991,14.4287834 L38.6568781,14.4287834 Z M39.7665706,12.574184 C41.2708279,12.574184 42.4853126,12.1909039 43.4100609,11.4243323 C44.3348093,10.6577608 44.7971765,9.35955415 44.7971765,7.52967359 C44.7971765,5.87288984 44.4334476,4.58704711 43.7059789,3.67210682 C42.9785102,2.75716654 41.6653872,2.29970326 39.7665706,2.29970326 L38.6568781,2.29970326 L38.6568781,12.574184 L39.7665706,12.574184 Z M75.012111,1.14985163 C75.1107509,0.927298591 75.2710382,0.754204377 75.4929778,0.630563798 C75.7149174,0.50692322 76.2574283,0.445103858 77.1205268,0.445103858 C77.3178064,0.445103858 77.6075566,0.438921921 77.9897859,0.426557864 C78.3720152,0.414193806 78.7850633,0.401829933 79.2289425,0.389465875 C79.6728217,0.377101818 80.1166942,0.358556009 80.5605735,0.333827893 C81.0044527,0.309099777 81.3866763,0.284372033 81.7072557,0.259643917 C81.7565756,0.383284496 81.7812352,0.50692322 81.7812352,0.630563798 L81.7812352,0.927299703 C81.7812352,1.32294955 81.6456075,1.55786313 81.3743479,1.63204748 C80.8811488,1.70623182 80.4927603,1.78041506 80.2091708,1.85459941 C79.9255813,1.92878375 79.70981,2.0215128 79.5618502,2.13278932 C79.4138905,2.24406584 79.3152521,2.3738865 79.2659322,2.52225519 C79.2166123,2.67062389 79.1919527,2.8437181 79.1919527,3.04154303 C79.1919527,3.09099926 79.2104474,3.56082641 79.2474374,4.45103858 C79.2844273,5.34125074 79.3399114,6.44163539 79.4138912,7.75222552 C79.4878711,9.06281565 79.5618499,10.484661 79.6358297,12.0178042 C79.7098096,13.5509473 79.7837883,15.0037023 79.8577682,16.3761128 C79.9317481,17.7485232 79.9933971,18.9416369 80.042717,19.9554896 C80.0920369,20.9693424 80.1290263,21.587536 80.1536862,21.810089 C80.1536862,22.0573702 80.1845107,22.2613741 80.2461606,22.4221068 C80.3078105,22.5828396 80.4187786,22.7250241 80.5790683,22.8486647 C80.739358,22.9723053 80.9674592,23.0773982 81.2633787,23.1639466 C81.5592982,23.250495 81.9415218,23.3308602 82.4100609,23.4050445 C82.6813204,23.4545007 82.8169482,23.6894143 82.8169482,24.1097923 C82.8169482,24.2828891 82.7922886,24.4930749 82.7429687,24.7403561 C81.8798702,24.6908999 81.0969283,24.6476263 80.3941196,24.6105341 C79.6913108,24.573442 78.8960392,24.5548961 78.0082807,24.5548961 C77.1945022,24.5548961 76.3252518,24.573442 75.4005034,24.6105341 C74.4757551,24.6476263 73.705143,24.6908999 73.0886441,24.7403561 C73.0393242,24.4930749 73.0146646,24.2828891 73.0146646,24.1097923 C73.0146646,23.837783 73.0578189,23.6523249 73.1441287,23.5534125 C73.2304385,23.4545 73.3105822,23.4050445 73.3845621,23.4050445 C74.3956203,23.2319477 75.0490993,23.0279438 75.3450188,22.7930267 C75.6409383,22.5581096 75.7888958,22.1933754 75.7888958,21.6988131 C75.7888958,21.6246287 75.7704011,21.2289848 75.7334112,20.5118694 C75.6964212,19.7947541 75.6594318,18.9045553 75.6224419,17.8412463 C75.585452,16.7779373 75.5361328,15.6280972 75.4744829,14.3916914 C75.412833,13.1552856 75.3511841,11.9930816 75.2895342,10.9050445 C75.2278843,9.81700742 75.1785651,8.87735312 75.1415752,8.08605341 C75.1045852,7.29475371 75.0737608,6.81256269 75.0491008,6.63946588 L67.4662022,24.3323442 C67.3429024,24.5548973 67.2380991,24.7218095 67.1517893,24.8330861 C67.0654794,24.9443626 66.9483464,25 66.8003867,25 L66.5784482,25 C66.4798084,25 66.4058296,24.9876361 66.3565097,24.962908 L57.7748878,4.33976261 C57.7502279,4.66122812 57.7194034,5.31033142 57.6824134,6.28709199 C57.6454235,7.26385256 57.5961043,8.38278301 57.5344544,9.64391691 C57.4728046,10.9050508 57.4111556,12.2341671 57.3495057,13.6313056 C57.2878558,15.0284442 57.2323717,16.3204688 57.1830518,17.5074184 C57.1337319,18.694368 57.0905776,19.6896597 57.0535877,20.4933234 C57.0165978,21.2969872 56.9981031,21.7359047 56.9981031,21.810089 C56.9981031,22.0326421 57.0227627,22.2242821 57.0720826,22.3850148 C57.1214025,22.5457476 57.2200408,22.6879321 57.3680006,22.8115727 C57.5159603,22.9352133 57.7378966,23.0403062 58.0338161,23.1268546 C58.3297355,23.213403 58.7366187,23.306132 59.2544778,23.4050445 C59.5257373,23.4545007 59.661365,23.6894143 59.661365,24.1097923 C59.661365,24.1839766 59.6552001,24.2767057 59.6428702,24.3879822 C59.6305402,24.4992587 59.6120455,24.6167155 59.5873855,24.7403561 C58.9215667,24.6908999 58.3050771,24.6476263 57.7378981,24.6105341 C57.1707191,24.573442 56.6035486,24.5548961 56.0363696,24.5548961 C55.5431705,24.5548961 54.9266808,24.573442 54.1868821,24.6105341 C53.4470834,24.6476263 52.7812746,24.6908999 52.1894357,24.7403561 C52.1401157,24.6414436 52.1154562,24.5301688 52.1154562,24.4065282 L52.1154562,24.1097923 C52.1154562,23.837783 52.1524455,23.6585069 52.2264254,23.5719585 C52.3004053,23.4854101 52.3990436,23.4297726 52.5223434,23.4050445 C53.286802,23.2319477 53.8416427,23.0341257 54.1868821,22.8115727 C54.5321215,22.5890197 54.7293982,22.2551951 54.7787181,21.810089 C54.7787181,21.6122641 54.8033777,21.0126163 54.8526976,20.0111276 C54.9020175,19.0096389 54.9636665,17.8227072 55.0376464,16.4502967 C55.1116262,15.0778863 55.185605,13.6189494 55.2595849,12.0734421 C55.3335647,10.5279349 55.4013786,9.0937257 55.4630285,7.77077151 C55.5246784,6.44781732 55.5739975,5.34125074 55.6109875,4.45103858 C55.6479774,3.56082641 55.6664721,3.09099926 55.6664721,3.04154303 C55.6664721,2.62116506 55.5308444,2.31825019 55.2595849,2.13278932 C54.9883253,1.94732845 54.3964953,1.78041617 53.4840769,1.63204748 C53.2128174,1.60731936 53.0771896,1.37240579 53.0771896,0.927299703 L53.0771896,0.630563798 C53.0771896,0.50692322 53.1018492,0.383284496 53.1511691,0.259643917 C53.4717486,0.284372033 53.9156211,0.309099777 54.4828001,0.333827893 C55.0499791,0.358556009 55.6294794,0.377101818 56.2213183,0.389465875 C56.8131573,0.401829933 57.367998,0.414193806 57.8858571,0.426557864 C58.4037162,0.438921921 58.7736099,0.445103858 58.9955496,0.445103858 C59.4394288,0.445103858 59.784663,0.463649666 60.0312625,0.50074184 C60.2778621,0.537834013 60.4751388,0.581107567 60.6230985,0.630563798 C60.7710583,0.68002003 60.8758615,0.754203264 60.9375114,0.853115727 C60.9991613,0.95202819 61.0546454,1.05093917 61.1039653,1.14985163 L67.9840587,17.8041543 L75.012111,1.14985163 Z M105.227046,24.3694362 C104.635207,24.4683487 104.080366,24.5548958 103.562507,24.6290801 C103.044648,24.7032645 102.508302,24.7712658 101.953453,24.8330861 C101.398604,24.8949063 100.794444,24.9381799 100.140955,24.962908 C99.4874662,24.9876361 98.7291839,25 97.8660854,25 C95.6466894,25 93.7294065,24.7032671 92.1141794,24.1097923 C90.4989523,23.5163175 89.1734995,22.6693922 88.1377813,21.5689911 C87.1020632,20.4685899 86.3314511,19.1518375 85.825922,17.6186944 C85.3203929,16.0855512 85.0676321,14.3793368 85.0676321,12.5 C85.0676321,11.0410412 85.314228,9.56974036 85.8074271,8.08605341 C86.3006262,6.60236647 87.0589085,5.26088631 88.0822967,4.0615727 C89.1056849,2.86225909 90.3879834,1.88551317 91.9292306,1.13130564 C93.4704779,0.377098108 95.2767926,0 97.3482289,0 C98.7785064,0 100.239587,0.105092915 101.731514,0.315281899 C103.223442,0.525470883 104.635203,0.803658012 105.966841,1.14985163 C106.01616,1.81751076 106.114799,2.67061795 106.262759,3.70919881 C106.410718,4.74777967 106.620325,5.76161721 106.891584,6.75074184 C106.768285,6.77546996 106.620327,6.80637964 106.447707,6.84347181 C106.275088,6.88056398 106.13946,6.89910979 106.04082,6.89910979 C105.84354,6.89910979 105.677088,6.86820011 105.541458,6.80637982 C105.405829,6.74455953 105.313355,6.61473887 105.264035,6.41691395 C104.746176,4.71067396 103.895421,3.54228802 102.711743,2.91172107 C101.528065,2.28115412 100.060819,1.96587537 98.3099624,1.96587537 C96.9783248,1.96587537 95.8008295,2.19460701 94.7774414,2.65207715 C93.7540532,3.10954729 92.9032974,3.76483253 92.2251486,4.61795252 C91.5469998,5.47107251 91.0291485,6.49727392 90.6715792,7.69658754 C90.3140098,8.89590115 90.1352278,10.2497452 90.1352278,11.7581602 C90.1352278,13.414944 90.3325045,14.9357003 90.7270638,16.3204748 C91.1216231,17.7052493 91.7011234,18.8983629 92.465582,19.8998516 C93.2300407,20.9013403 94.1732698,21.6802643 95.2952978,22.2366469 C96.4173259,22.7930295 97.7057892,23.0712166 99.1607267,23.0712166 C99.6785857,23.0712166 100.140953,23.0464889 100.547842,22.9970326 C100.954732,22.9475764 101.380109,22.8610293 101.823989,22.7373887 L101.823989,17.3961424 C101.823989,16.7284833 101.639042,16.2648381 101.269142,16.0051929 C100.899243,15.7455477 100.245764,15.5539076 99.3086857,15.4302671 C99.111406,15.3808108 98.9757783,15.2757179 98.9017984,15.1149852 C98.8278185,14.9542524 98.7908292,14.799704 98.7908292,14.6513353 C98.7908292,14.577151 98.7969941,14.4658761 98.809324,14.3175074 C98.821654,14.1691387 98.8401487,14.0578639 98.8648087,13.9836795 C99.234708,14.0084076 99.6477561,14.0331354 100.103965,14.0578635 C100.560174,14.0825916 101.028707,14.1011374 101.509576,14.1135015 C101.990445,14.1258655 102.452812,14.1382294 102.896691,14.1505935 C103.340571,14.1629575 103.722794,14.1691395 104.043374,14.1691395 C104.363953,14.1691395 104.740012,14.1629575 105.171561,14.1505935 C105.60311,14.1382294 106.046983,14.1258655 106.503192,14.1135015 C106.959401,14.1011374 107.403274,14.0825916 107.834823,14.0578635 C108.266372,14.0331354 108.630101,14.0084076 108.926021,13.9836795 C108.97534,14.1073201 109,14.2309588 109,14.3545994 L109,14.6513353 C109,14.8738884 108.956846,15.0408006 108.870536,15.1520772 C108.784226,15.2633537 108.679423,15.3437188 108.556123,15.3931751 C107.767004,15.4920875 107.218329,15.6528179 106.910079,15.8753709 C106.60183,16.097924 106.447707,16.4688401 106.447707,16.9881306 L106.447707,23.4421365 C106.447707,23.6646895 106.386058,23.8501476 106.262759,23.9985163 C106.139459,24.146885 105.794225,24.2705237 105.227046,24.3694362 Z" id="PMG_logo_footer"></path>
                <g id="Group-9">
                    <rect id="Rectangle" x="4" y="4" width="16" height="16"></rect>
                    <path d="M2,2 L2,22 L22,22 L22,2 L2,2 Z M0,0 L24,0 L24,24 L0,24 L0,0 Z" id="Rectangle" fill-rule="nonzero"></path>
                </g>
            </g>
        </g>
    </g>
</svg>