<?xml version="1.0" encoding="UTF-8"?>
<svg width="109px" height="25px" viewBox="0 0 109 25" version="1.1" xmlns="http://www.w3.org/2000/svg" xmlns:xlink="http://www.w3.org/1999/xlink">
    <!-- Generator: Sketch 52.6 (67491) - http://www.bohemiancoding.com/sketch -->
    <title>pmg_toplogo</title>
    <desc>Created with Sketch.</desc>
    <g id="Welcome" stroke="none" stroke-width="1" fill="none" fill-rule="evenodd">
        <g id="First---Desktop-HD-Copy" transform="translate(-48.000000, -28.000000)" fill="#FF1C1D">
            <g id="top_menu">
                <g id="pmg_toplogo" transform="translate(48.000000, 28.000000)">
                    <g id="Group-9" transform="translate(0.000000, 1.000000)">
                        <rect id="Rectangle" x="4" y="4" width="16" height="16"></rect>
                        <path d="M2,2 L2,22 L22,22 L22,2 L2,2 Z M0,0 L24,0 L24,24 L0,24 L0,0 Z" id="Rectangle" fill-rule="nonzero"></path>
                    </g>
                    <path d="M37.6780415,14.4287834 L37.6780415,21.5504451 C37.6780415,22.1191918 37.9191371,22.5210176 38.4013353,22.7559347 C38.8835336,22.9908518 39.7057311,23.1824918 40.8679525,23.3308605 C41.2141461,23.3803168 41.3872404,23.6275942 41.3872404,24.0727003 C41.3872404,24.2705252 41.3625126,24.4930749 41.3130564,24.7403561 C40.595941,24.6908999 39.6995603,24.6476263 38.6238872,24.6105341 C37.5482142,24.573442 36.3798283,24.5548961 35.1186944,24.5548961 C34.2284822,24.5548961 33.3691931,24.573442 32.5408012,24.6105341 C31.7124093,24.6476263 30.9396673,24.6908999 30.2225519,24.7403561 C30.1730957,24.6414436 30.148368,24.5301688 30.148368,24.4065282 L30.148368,24.1097923 C30.148368,23.6894143 30.2843705,23.4545007 30.5563798,23.4050445 C31.0756703,23.306132 31.4960419,23.213403 31.8175074,23.1268546 C32.1389729,23.0403062 32.3862504,22.9413952 32.5593472,22.8301187 C32.732444,22.7188422 32.8499008,22.5828396 32.9117211,22.4221068 C32.9735414,22.2613741 33.004451,22.0573702 33.004451,21.810089 L33.004451,3.22700297 C33.004451,2.73244065 32.8251749,2.37388835 32.4666172,2.15133531 C32.1080595,1.92878227 31.4218646,1.75568806 30.4080119,1.63204748 C30.2843713,1.58259125 30.1854603,1.50840801 30.111276,1.40949555 C30.0370916,1.31058309 30,1.13748887 30,0.890207715 L30,0.556379822 C30,0.432739243 30.0247277,0.333828264 30.074184,0.259643917 C30.7665712,0.309100148 31.564041,0.352373702 32.4666172,0.389465875 C33.3691934,0.426558049 34.1790271,0.445103858 34.8961424,0.445103858 L40.4970326,0.445103858 C43.142941,0.445103858 45.2077077,1.03856973 46.6913947,2.22551929 C48.1750816,3.41246884 48.9169139,5.06922774 48.9169139,7.1958457 C48.9169139,8.16024221 48.7314559,9.0813507 48.3605341,9.95919881 C47.9896124,10.8370469 47.4394201,11.603607 46.7099407,12.2589021 C45.9804612,12.9141971 45.0964444,13.4396617 44.0578635,13.8353116 C43.0192826,14.2309614 41.8323509,14.4287834 40.4970326,14.4287834 L37.6780415,14.4287834 Z M38.7908012,12.574184 C40.2992162,12.574184 41.5170577,12.1909039 42.444362,11.4243323 C43.3716664,10.6577608 43.8353116,9.35955415 43.8353116,7.52967359 C43.8353116,5.87288984 43.4705773,4.58704711 42.7410979,3.67210682 C42.0116185,2.75716654 40.6948661,2.29970326 38.7908012,2.29970326 L37.6780415,2.29970326 L37.6780415,12.574184 L38.7908012,12.574184 Z M74.1337594,1.14985163 C74.2326719,0.927298591 74.3934022,0.754204377 74.6159552,0.630563798 C74.8385083,0.50692322 75.3825187,0.445103858 76.2480027,0.445103858 C76.4458276,0.445103858 76.7363786,0.438921921 77.1196644,0.426557864 C77.5029502,0.414193806 77.91714,0.401829933 78.362246,0.389465875 C78.8073521,0.377101818 79.2524515,0.358556009 79.6975576,0.333827893 C80.1426637,0.309099777 80.5259437,0.284372033 80.8474092,0.259643917 C80.8968655,0.383284496 80.9215932,0.50692322 80.9215932,0.630563798 L80.9215932,0.927299703 C80.9215932,1.32294955 80.7855906,1.55786313 80.5135814,1.63204748 C80.019019,1.70623182 79.6295571,1.78041506 79.3451837,1.85459941 C79.0608104,1.92878375 78.8444426,2.0215128 78.6960739,2.13278932 C78.5477052,2.24406584 78.4487943,2.3738865 78.399338,2.52225519 C78.3498818,2.67062389 78.3251541,2.8437181 78.3251541,3.04154303 C78.3251541,3.09099926 78.3436999,3.56082641 78.380792,4.45103858 C78.4178842,5.34125074 78.4735216,6.44163539 78.547706,7.75222552 C78.6218903,9.06281565 78.6960736,10.484661 78.7702579,12.0178042 C78.8444423,13.5509473 78.9186255,15.0037023 78.9928098,16.3761128 C79.0669942,17.7485232 79.1288136,18.9416369 79.1782698,19.9554896 C79.227726,20.9693424 79.2648176,21.587536 79.2895457,21.810089 C79.2895457,22.0573702 79.3204554,22.2613741 79.3822757,22.4221068 C79.444096,22.5828396 79.5553709,22.7250241 79.7161036,22.8486647 C79.8768364,22.9723053 80.105568,23.0773982 80.4023054,23.1639466 C80.6990428,23.250495 81.0823228,23.3308602 81.552157,23.4050445 C81.8241663,23.4545007 81.9601689,23.6894143 81.9601689,24.1097923 C81.9601689,24.2828891 81.9354411,24.4930749 81.8859849,24.7403561 C81.0205009,24.6908999 80.235395,24.6476263 79.5306437,24.6105341 C78.8258924,24.573442 78.0284226,24.5548961 77.1382104,24.5548961 C76.3221826,24.5548961 75.4505296,24.573442 74.5232253,24.6105341 C73.5959209,24.6476263 72.8231789,24.6908999 72.204976,24.7403561 C72.1555198,24.4930749 72.130792,24.2828891 72.130792,24.1097923 C72.130792,23.837783 72.1740656,23.6523249 72.260614,23.5534125 C72.3471624,23.4545 72.4275276,23.4050445 72.5017119,23.4050445 C73.5155647,23.2319477 74.1708499,23.0279438 74.4675873,22.7930267 C74.7643247,22.5581096 74.9126911,22.1933754 74.9126911,21.6988131 C74.9126911,21.6246287 74.8941453,21.2289848 74.8570532,20.5118694 C74.819961,19.7947541 74.7828694,18.9045553 74.7457772,17.8412463 C74.708685,16.7779373 74.6592295,15.6280972 74.5974092,14.3916914 C74.535589,13.1552856 74.4737696,11.9930816 74.4119493,10.9050445 C74.350129,9.81700742 74.3006735,8.87735312 74.2635814,8.08605341 C74.2264892,7.29475371 74.1955795,6.81256269 74.1708514,6.63946588 L66.5669938,24.3323442 C66.4433532,24.5548973 66.3382603,24.7218095 66.2517119,24.8330861 C66.1651635,24.9443626 66.0477067,25 65.899338,25 L65.6767861,25 C65.5778736,25 65.5036904,24.9876361 65.4542342,24.962908 L56.8488929,4.33976261 C56.8241648,4.66122812 56.7932551,5.31033142 56.756163,6.28709199 C56.7190708,7.26385256 56.6696153,8.38278301 56.607795,9.64391691 C56.5459747,10.9050508 56.4841554,12.2341671 56.4223351,13.6313056 C56.3605148,15.0284442 56.3048773,16.3204688 56.2554211,17.5074184 C56.2059649,18.694368 56.1626913,19.6896597 56.1255992,20.4933234 C56.088507,21.2969872 56.0699612,21.7359047 56.0699612,21.810089 C56.0699612,22.0326421 56.0946889,22.2242821 56.1441452,22.3850148 C56.1936014,22.5457476 56.2925124,22.6879321 56.4408811,22.8115727 C56.5892498,22.9352133 56.8117995,23.0403062 57.1085368,23.1268546 C57.4052742,23.213403 57.813282,23.306132 58.3325725,23.4050445 C58.6045817,23.4545007 58.7405843,23.6894143 58.7405843,24.1097923 C58.7405843,24.1839766 58.7344024,24.2767057 58.7220383,24.3879822 C58.7096743,24.4992587 58.6911285,24.6167155 58.6664003,24.7403561 C57.9987412,24.6908999 57.3805476,24.6476263 56.8118009,24.6105341 C56.2430543,24.573442 55.6743161,24.5548961 55.1055695,24.5548961 C54.6110072,24.5548961 53.9928136,24.573442 53.2509701,24.6105341 C52.5091266,24.6476263 51.8414775,24.6908999 51.2480027,24.7403561 C51.1985465,24.6414436 51.1738187,24.5301688 51.1738187,24.4065282 L51.1738187,24.1097923 C51.1738187,23.837783 51.2109104,23.6585069 51.2850947,23.5719585 C51.3592791,23.4854101 51.45819,23.4297726 51.5818306,23.4050445 C52.3484022,23.2319477 52.9047765,23.0341257 53.2509701,22.8115727 C53.5971637,22.5890197 53.7949857,22.2551951 53.8444419,21.810089 C53.8444419,21.6122641 53.8691696,21.0126163 53.9186259,20.0111276 C53.9680821,19.0096389 54.0299015,17.8227072 54.1040858,16.4502967 C54.1782702,15.0778863 54.2524534,13.6189494 54.3266377,12.0734421 C54.4008221,10.5279349 54.4688234,9.0937257 54.5306437,7.77077151 C54.592464,6.44781732 54.6419194,5.34125074 54.6790116,4.45103858 C54.7161038,3.56082641 54.7346496,3.09099926 54.7346496,3.04154303 C54.7346496,2.62116506 54.598647,2.31825019 54.3266377,2.13278932 C54.0546285,1.94732845 53.4611626,1.78041617 52.5462223,1.63204748 C52.274213,1.60731936 52.1382104,1.37240579 52.1382104,0.927299703 L52.1382104,0.630563798 C52.1382104,0.50692322 52.1629382,0.383284496 52.2123944,0.259643917 C52.5338599,0.284372033 52.9789593,0.309099777 53.547706,0.333827893 C54.1164526,0.358556009 54.6975546,0.377101818 55.2910294,0.389465875 C55.8845042,0.401829933 56.4408785,0.414193806 56.9601689,0.426557864 C57.4794593,0.438921921 57.8503755,0.445103858 58.0729285,0.445103858 C58.5180346,0.445103858 58.864223,0.463649666 59.1115042,0.50074184 C59.3587854,0.537834013 59.5566073,0.581107567 59.704976,0.630563798 C59.8533447,0.68002003 59.9584376,0.754203264 60.0202579,0.853115727 C60.0820782,0.95202819 60.1377156,1.05093917 60.1871719,1.14985163 L67.0862817,17.8041543 L74.1337594,1.14985163 Z M104.432207,24.3694362 C103.838732,24.4683487 103.282358,24.5548958 102.763068,24.6290801 C102.243777,24.7032645 101.705949,24.7712658 101.149566,24.8330861 C100.593184,24.8949063 99.9873539,24.9381799 99.3320589,24.962908 C98.6767638,24.9876361 97.9163856,25 97.0509016,25 C94.8253712,25 92.902789,24.7032671 91.2830974,24.1097923 C89.6634058,23.5163175 88.3342896,22.6693922 87.2957087,21.5689911 C86.2571278,20.4685899 85.4843858,19.1518375 84.9774594,17.6186944 C84.4705331,16.0855512 84.2170737,14.3793368 84.2170737,12.5 C84.2170737,11.0410412 84.4643511,9.56974036 84.9589135,8.08605341 C85.4534758,6.60236647 86.2138539,5.26088631 87.2400707,4.0615727 C88.2662875,2.86225909 89.5521303,1.88551317 91.0976375,1.13130564 C92.6431447,0.377098108 94.454452,0 96.5316137,0 C97.9658445,0 99.4309633,0.105092915 100.927014,0.315281899 C102.423065,0.525470883 103.838729,0.803658012 105.174047,1.14985163 C105.223503,1.81751076 105.322414,2.67061795 105.470783,3.70919881 C105.619152,4.74777967 105.829337,5.76161721 106.101347,6.75074184 C105.977706,6.77546996 105.82934,6.80637964 105.656243,6.84347181 C105.483146,6.88056398 105.347143,6.89910979 105.248231,6.89910979 C105.050406,6.89910979 104.883494,6.86820011 104.747489,6.80637982 C104.611484,6.74455953 104.518755,6.61473887 104.469299,6.41691395 C103.950009,4.71067396 103.096902,3.54228802 101.909952,2.91172107 C100.723002,2.28115412 99.2517017,1.96587537 97.4960054,1.96587537 C96.1606872,1.96587537 94.9799374,2.19460701 93.9537206,2.65207715 C92.9275038,3.10954729 92.0743966,3.76483253 91.3943734,4.61795252 C90.7143502,5.47107251 90.1950676,6.49727392 89.8365099,7.69658754 C89.4779522,8.89590115 89.2986761,10.2497452 89.2986761,11.7581602 C89.2986761,13.414944 89.496498,14.9357003 89.8921479,16.3204748 C90.2877977,17.7052493 90.8688997,18.8983629 91.6354713,19.8998516 C92.4020429,20.9013403 93.3478791,21.6802643 94.4730084,22.2366469 C95.5981377,22.7930295 96.8901623,23.0712166 98.3491212,23.0712166 C98.8684116,23.0712166 99.3320568,23.0464889 99.7400707,22.9970326 C100.148085,22.9475764 100.574638,22.8610293 101.019744,22.7373887 L101.019744,17.3961424 C101.019744,16.7284833 100.834286,16.2648381 100.463364,16.0051929 C100.092443,15.7455477 99.4371575,15.5539076 98.4974891,15.4302671 C98.2996642,15.3808108 98.1636616,15.2757179 98.0894773,15.1149852 C98.0152929,14.9542524 97.9782013,14.799704 97.9782013,14.6513353 C97.9782013,14.577151 97.9843832,14.4658761 97.9967473,14.3175074 C98.0091113,14.1691387 98.0276571,14.0578639 98.0523853,13.9836795 C98.423307,14.0084076 98.8374967,14.0331354 99.2949669,14.0578635 C99.752437,14.0825916 100.222264,14.1011374 100.704462,14.1135015 C101.186661,14.1258655 101.650306,14.1382294 102.095412,14.1505935 C102.540518,14.1629575 102.923798,14.1691395 103.245264,14.1691395 C103.566729,14.1691395 103.943827,14.1629575 104.376569,14.1505935 C104.809311,14.1382294 105.254411,14.1258655 105.711881,14.1135015 C106.169351,14.1011374 106.61445,14.0825916 107.047192,14.0578635 C107.479934,14.0331354 107.844669,14.0084076 108.141406,13.9836795 C108.190862,14.1073201 108.21559,14.2309588 108.21559,14.3545994 L108.21559,14.6513353 C108.21559,14.8738884 108.172316,15.0408006 108.085768,15.1520772 C107.99922,15.2633537 107.894127,15.3437188 107.770486,15.3931751 C106.979186,15.4920875 106.428994,15.6528179 106.119893,15.8753709 C105.810791,16.097924 105.656243,16.4688401 105.656243,16.9881306 L105.656243,23.4421365 C105.656243,23.6646895 105.594423,23.8501476 105.470783,23.9985163 C105.347142,24.146885 105.000954,24.2705237 104.432207,24.3694362 Z" id="PMG_logo_small"></path>
                </g>
            </g>
        </g>
    </g>
</svg>