<svg xmlns="http://www.w3.org/2000/svg" xmlns:xlink="http://www.w3.org/1999/xlink" width="65" height="40" viewBox="0 0 65 40">
    <defs>
        <path id="a" d="M20 0h45L45 40H0z"/>
    </defs>
    <g fill="none" fill-rule="evenodd">
        <mask id="b" fill="#fff">
            <use xlink:href="#a"/>
        </mask>
        <use fill="#FFF" xlink:href="#a"/>
        <g mask="url(#b)">
            <path fill="#50ABF1" d="M-2 0h68.976v39.976H-2z"/>
            <path fill="#FFF" d="M18.296 29.634a17.12 17.12 0 0 0 9.2 2.663c9.504 0 17.209-7.705 17.209-17.208 0-.238-.005-.473-.015-.708.344-.27 2.47-1.975 2.991-3.07 0 0-1.726.717-3.416.886l-.01.001.008-.006c.156-.104 2.333-1.586 2.628-3.351 0 0-1.222.652-2.931 1.222-.284.094-.58.186-.885.272a6.021 6.021 0 0 0-4.408-1.91 6.037 6.037 0 0 0-5.882 7.403c-.467-.02-7.565-.417-12.394-6.265 0 0-2.886 3.94 1.72 7.991 0 0-1.4-.056-2.608-.777 0 0-.444 4.773 4.772 5.993 0 0-1.026.39-2.664.112 0 0 .916 3.857 5.55 4.217 0 0-3.664 3.31-8.866 2.534h.001z"/>
        </g>
    </g>
</svg>
