<?xml version="1.0" encoding="UTF-8"?>
<svg width="31px" height="16px" viewBox="0 0 31 16" version="1.1" xmlns="http://www.w3.org/2000/svg" xmlns:xlink="http://www.w3.org/1999/xlink">
    <!-- Generator: Sketch 52.6 (67491) - http://www.bohemiancoding.com/sketch -->
    <title>websee_logo</title>
    <desc>Created with Sketch.</desc>
    <g id="Welcome" stroke="none" stroke-width="1" fill="none" fill-rule="evenodd">
        <g id="First---Desktop-HD-Copy" transform="translate(-588.000000, -9709.000000)" fill="#D2CDC8">
            <g id="websee_logo" transform="translate(588.000000, 9709.000000)">
                <path d="M6.5302104,14.0946939 C6.53129143,14.0908843 6.53183192,14.087619 6.53345341,14.0838095 L8.65383131,7.0068027 L7.08638396,1.77469388 C6.8334304,0.92952381 6.18807451,0.245442177 5.64487291,0.245442177 L4.33578415,0.245442177 L2.09595596,0.245442177 L0.78578619,0.245442177 C0.243125115,0.245442177 0.0085485147,0.92952381 0.260961585,1.77469388 L3.94013882,14.0555102 C4.1866064,14.8772789 4.80331585,15.5461224 5.33624796,15.5814966 C5.33138347,15.579864 5.32705947,15.5793197 5.32219497,15.5771429 C5.80432015,15.4236735 6.3113083,14.8190476 6.5302104,14.0946939 L6.5302104,14.0946939 L6.5302104,14.0946939 Z" id="Shape"></path>
                <path d="M18.6487403,0.313469388 C18.5860424,0.287891157 18.5179395,0.273741497 18.4428101,0.273741497 L17.2958711,0.273741497 L16.9131978,0.273741497 L15.7673397,0.273741497 L13.3648213,0.273741497 L12.2178822,0.273741497 C11.6746806,0.273741497 11.0293248,0.959455783 10.7763712,1.80353741 L7.09773444,14.0843538 C7.09665345,14.0881633 7.09611295,14.0914286 7.09449147,14.0952381 C6.87558933,14.8195918 6.36860118,15.4236735 5.886476,15.5782313 C5.9491739,15.6032653 6.0178173,15.617415 6.09348716,15.617415 L11.9427682,15.6146939 L11.9265532,15.617415 C11.9373632,15.617415 11.9470922,15.6146939 11.9589832,15.6146939 L12.3178746,15.6141497 C12.8616166,15.6141497 13.5058915,14.9295238 13.7588451,14.0843538 L17.4374819,1.80353741 C17.656384,1.07482993 18.1644531,0.468027211 18.6487403,0.313469388 L18.6487403,0.313469388 L18.6487403,0.313469388 Z" id="Shape"></path>
                <path d="M30.2921715,0.280816326 L28.9814612,0.280816326 L26.742714,0.280816326 L25.4320037,0.280816326 C24.8893427,0.280816326 24.2439868,0.966530613 23.9910332,1.81115646 L20.311856,14.0914286 C20.3102345,14.0957823 20.3091535,14.1006803 20.3080725,14.105034 C20.0886298,14.8277551 19.5816417,15.4318367 19.101138,15.5853061 C19.1638359,15.6103402 19.2313983,15.6244898 19.3076087,15.6244898 L20.6183189,15.6244898 L20.8361401,15.6244898 L22.1463098,15.6244898 C22.1333379,15.6244898 22.1198254,15.6223129 22.1068534,15.6212245 L22.1463098,15.6212245 L24.386138,15.6212245 L25.6957673,15.6212245 C26.2384284,15.6212245 26.8837843,14.9365986 27.1367379,14.0908843 L30.8159151,1.81061224 C31.0688686,0.966530613 30.834292,0.280816326 30.2921715,0.280816326 L30.2921715,0.280816326 L30.2921715,0.280816326 Z" id="Shape"></path>
                <path d="M19.7005515,14.0914286 L21.8576833,6.88870747 L20.3350974,1.80680272 C20.1243028,1.1014966 19.6394751,0.508843538 19.1692409,0.332517007 C18.6990067,0.508843538 18.214179,1.09714286 18.0033844,1.8029932 L15.7565297,9.30231291 L17.1893928,14.0870748 C17.4353198,14.9077551 17.8633951,15.5760544 18.3963272,15.6130612 C18.3622758,15.6065306 18.5201015,15.5972789 18.4892931,15.5853061 C18.9714182,15.4318367 19.4773254,14.8277551 19.6962275,14.105034 C19.6973085,14.1006803 19.6983895,14.0957823 19.7005515,14.0914286 L19.7005515,14.0914286 L19.7005515,14.0914286 Z" id="Shape"></path>
            </g>
        </g>
    </g>
</svg>