<svg xmlns="http://www.w3.org/2000/svg" width="31" height="16" viewBox="0 0 31 16">
    <g fill="#ffffff" fill-rule="evenodd">
        <path d="M6.53 14.095l.003-.011 2.12-7.077-1.567-5.232C6.833.93 6.188.245 5.645.245H.786C.243.245.009.93.26 1.775l3.68 12.28c.246.822.862 1.491 1.395 1.526l-.014-.004c.482-.153.99-.758 1.208-1.482z"/>
        <path d="M18.649.313a.539.539 0 0 0-.206-.04H12.218c-.543 0-1.189.686-1.442 1.53L7.098 14.085l-.004.011c-.218.725-.725 1.329-1.208 1.483.063.025.132.04.207.04l5.85-.003-.016.002.032-.002h.359c.544 0 1.188-.685 1.44-1.53l3.68-12.281c.218-.73.726-1.336 1.21-1.49zM30.292.28h-4.86c-.543 0-1.188.687-1.441 1.531l-3.68 12.28c0 .005-.002.01-.003.014-.22.723-.726 1.327-1.207 1.48.063.025.13.04.207.04h2.838c-.013 0-.026-.003-.04-.004H25.697c.542 0 1.188-.684 1.44-1.53l3.68-12.28c.253-.844.018-1.53-.524-1.53z"/>
        <path d="M19.7 14.091l2.158-7.202-1.523-5.082C20.125 1.1 19.64.509 19.17.333c-.47.176-.955.764-1.166 1.47l-2.246 7.5 1.432 4.784c.246.82.674 1.49 1.207 1.526-.034-.006.124-.016.093-.028.482-.153.988-.757 1.207-1.48.001-.004.002-.01.005-.014z"/>
    </g>
</svg>
