<svg xmlns="http://www.w3.org/2000/svg" width="25" height="30" viewBox="0 0 25 30">
    <defs>
        <linearGradient id="a" x1="0%" y1="50%" y2="50%">
            <stop offset="0%" stop-color="#B69A81"/>
            <stop offset="63.83%" stop-color="#E0CEBC"/>
            <stop offset="100%" stop-color="#DBC6B3"/>
        </linearGradient>
    </defs>
    <path fill="url(#a)" fill-rule="evenodd" d="M18.68 18.62l-.009-.008L4.912 4.766v4.808L15.52 20.047c.529.522.833 1.223.848 1.958l.026 1.29.008 1.956c.003.844-.695 1.529-1.558 1.529H3.924V16.633h3.348l1.718-1.62-1.727-1.718H3.924V3.2h11.019c.773 0 1.404.607 1.416 1.364l.035 2.122-.026 1.289a2.834 2.834 0 0 1-.848 1.958l-2.075 2.037 2.33 2.308 2.896-2.91.008-.008a4.284 4.284 0 0 0 1.256-2.677c.025-.322.017-2.56.017-2.56l-.01-1.99C19.932 1.846 18.035 0 15.7 0H0v30h3.924v-.02H15.86c2.247 0 4.07-1.776 4.082-3.975l.01-2.148s.008-2.238-.017-2.56a4.284 4.284 0 0 0-1.256-2.677zm-9.001-2.946l-4.776 4.73v4.793l7.135-7.177-2.36-2.346zM24.878 0v30h-3.924V16.633h-2.828l-1.66-1.67 1.575-1.668h2.913V0h3.924z"/>
</svg>
