<?xml version="1.0" encoding="UTF-8"?>
<svg width="180px" height="180px" viewBox="0 0 180 180" version="1.1" xmlns="http://www.w3.org/2000/svg" xmlns:xlink="http://www.w3.org/1999/xlink">
    <!-- Generator: Sketch 52.6 (67491) - http://www.bohemiancoding.com/sketch -->
    <title>epic_logo</title>
    <desc>Created with Sketch.</desc>
    <defs>
        <linearGradient x1="19.7705729%" y1="17.7676923%" x2="159.844271%" y2="160.418654%" id="linearGradient-1">
            <stop stop-color="#CB1A1A" offset="0%"></stop>
            <stop stop-color="#A0003C" stop-opacity="0" offset="100%"></stop>
        </linearGradient>
        <linearGradient x1="-38.31247%" y1="-32.1352113%" x2="70.1261391%" y2="54.4760563%" id="linearGradient-2">
            <stop stop-color="#E79595" offset="0%"></stop>
            <stop stop-color="#A0003C" stop-opacity="0" offset="100%"></stop>
        </linearGradient>
        <linearGradient x1="-14.8421674%" y1="50.0269231%" x2="100.035193%" y2="50.0269231%" id="linearGradient-3">
            <stop stop-color="#CB1A1A" offset="0%"></stop>
            <stop stop-color="#A0003C" stop-opacity="0" offset="100%"></stop>
        </linearGradient>
    </defs>
    <g id="Page-1" stroke="none" stroke-width="1" fill="none" fill-rule="evenodd">
        <g id="epic.agency-005" transform="translate(-631.000000, -841.000000)">
            <g id="epic_logo" transform="translate(620.000000, 830.000000)">
                <rect id="Rectangle-6" x="0" y="0" width="200" height="200"></rect>
                <path d="M17,17 L17,185 L185,185 L185,17 L17,17 Z M11,11 L191,11 L191,191 L11,191 L11,11 Z" id="Rectangle-6" fill="#FF1C1D" fill-rule="nonzero"></path>
                <g id="logo_red" transform="translate(47.000000, 31.000000)">
                    <g id="Group">
                        <path d="M102.621324,135.775824 L0.984558824,135.775824 L0.757352941,131.068132 C-0.833088235,101.626374 2.87794118,84.589011 14.9198529,68 C2.87794118,51.410989 -0.908823529,34.3736264 0.757352941,4.93186813 L0.984558824,0.224175824 L102.621324,0.224175824 L102.621324,10.2373626 L10.6029412,10.2373626 C9.61838235,39.3054945 14.9955882,52.0835165 25.2198529,64.9362637 L27.6433824,68 L25.2198529,71.0637363 C15.0713235,83.9164835 9.61838235,96.6945055 10.6029412,125.762637 L102.621324,125.762637 L102.621324,135.775824 Z" id="Path" fill="#FF1C1D"></path>
                        <path d="M102.621324,118.514286 L19.9183824,118.514286 L19.9183824,112.162637 C19.9183824,94.7516484 27.4919118,78.9846154 39.5338235,68 C27.4919118,57.0153846 19.9183824,41.3230769 19.9183824,23.8373626 L19.9183824,17.4857143 L102.621324,17.4857143 L102.621324,29.1428571 L32.0360294,29.1428571 C33.3992647,41.8461538 39.8367647,53.0549451 49.1522059,60.8263736 C58.3919118,55.2967033 69.2220588,52.0835165 80.8095588,52.0835165 L86.5654412,52.0835165 C95.4264706,52.0835165 102.621324,59.1824176 102.621324,67.9252747 L102.621324,68.1494505 C102.621324,76.8923077 95.4264706,83.9912088 86.5654412,83.9912088 L80.8095588,83.9912088 C69.2220588,83.9912088 58.3919118,80.778022 49.1522059,75.2483516 C39.8367647,82.9450549 33.475,94.1538462 32.0360294,106.857143 L102.621324,106.857143 L102.621324,118.514286 Z M60.6639706,68 C66.7985294,70.7648352 73.6147059,72.2593407 80.8095588,72.2593407 L86.5654412,72.2593407 C88.9132353,72.2593407 90.8066176,70.3912088 90.8066176,68.0747253 L90.8066176,67.8505495 C90.8066176,65.5340659 88.9132353,63.6659341 86.5654412,63.6659341 L80.8095588,63.6659341 C73.6904412,63.7406593 66.8742647,65.2351648 60.6639706,68 Z" id="Shape" fill="#FF1C1D" fill-rule="nonzero"></path>
                        <g transform="translate(19.691176, 29.142857)" id="Path">
                            <path d="M19.9183824,38.8571429 C22.8720588,36.167033 26.0529412,33.7758242 29.5367647,31.6835165 C20.1455882,23.8373626 13.7838235,12.6285714 12.3448529,7.10542736e-15 L0.454411765,7.10542736e-15 C1.89338235,15.3186813 9.08823529,28.9934066 19.9183824,38.8571429 Z" fill="url(#linearGradient-1)"></path>
                            <path d="M41.0485294,38.8571429 C36.8830882,40.7252747 33.0205882,43.1164835 29.5367647,46.0307692 C38.7764706,51.5604396 49.6066176,54.7736264 61.1183824,54.7736264 L61.1183824,43.1164835 C53.9992647,43.1164835 47.1830882,41.5472527 41.0485294,38.8571429 Z" fill="url(#linearGradient-2)"></path>
                        </g>
                        <rect id="Rectangle" fill="url(#linearGradient-3)" x="32.0360294" y="106.857143" width="70.5852941" height="11.6571429"></rect>
                    </g>
                </g>
            </g>
        </g>
    </g>
</svg>