<?xml version="1.0" encoding="UTF-8"?>
<svg width="271px" height="60px" viewBox="0 0 271 60" version="1.1" xmlns="http://www.w3.org/2000/svg" xmlns:xlink="http://www.w3.org/1999/xlink">
    <!-- Generator: Sketch 52.6 (67491) - http://www.bohemiancoding.com/sketch -->
    <title>LG_Electronics</title>
    <desc>Created with Sketch.</desc>
    <g id="Media" stroke="none" stroke-width="1" fill="none" fill-rule="evenodd">
        <g id="BHX.Media---Desktop-Black" transform="translate(-1046.000000, -7733.000000)">
            <g id="LG_Electronics" transform="translate(1046.000000, 7733.000000)">
                <polyline id="Path" fill="#68737A" points="76.4589474 19.8252632 82.2915789 19.8252632 82.2915789 34.6421053 90.9552632 34.6421053 90.9552632 39.5778947 76.4589474 39.5778947 76.4589474 19.8252632"></polyline>
                <path d="M106.068947,37.6121053 C105.037895,39.18 103.143158,40.0768421 100.754211,40.0768421 C95.6068421,40.0768421 92.2689474,35.9873684 92.2689474,29.6715789 C92.2689474,23.2594737 96.0489474,19.3310526 102.254211,19.3310526 C104.753684,19.3310526 106.874211,19.98 108.500526,21.2431579 C110.167895,22.56 110.794737,23.85 111.063158,26.4473684 L104.930526,26.4473684 C104.771053,24.9142105 103.645263,23.9510526 102.113684,23.9510526 C99.7784211,23.9510526 98.3842105,26.1315789 98.3842105,29.7615789 C98.3842105,33.4373684 99.8321053,35.6447368 102.227368,35.6447368 C104.144211,35.6447368 105.225789,34.5931579 105.661579,32.2263158 L101.921053,32.2263158 L101.921053,28.0721053 L111.061579,28.0721053 L111.061579,39.5810526 L106.068947,39.5810526 L106.068947,37.6121053" id="Path" fill="#68737A"></path>
                <polyline id="Path" fill="#68737A" points="119.91 19.8252632 134.147368 19.8252632 134.147368 24.7042105 125.73 24.7042105 125.73 27.2336842 133.397368 27.2336842 133.397368 31.9626316 125.73 31.9626316 125.73 34.6421053 134.147368 34.6421053 134.147368 39.5778947 119.91 39.5778947 119.91 19.8252632"></polyline>
                <rect id="Rectangle" fill="#68737A" x="136.250526" y="19.8252632" width="5.34473684" height="19.7542105"></rect>
                <path d="M153.020526,30.6189474 C152.843684,29.1221053 152.161579,28.4194737 150.871579,28.4194737 C149.630526,28.4194737 148.790526,29.2547368 148.632632,30.6189474 L153.020526,30.6189474 M158.494737,35.0905263 C157.672105,38.1773684 154.833158,39.9836842 150.84,39.9836842 C145.956316,39.9836842 142.962632,37.0578947 142.962632,32.2815789 C142.962632,27.7863158 146.137895,24.8494737 150.967895,24.8494737 C155.832632,24.8494737 158.726842,27.9173684 158.726842,33.0378947 C158.726842,33.1168421 158.726842,33.4057895 158.7,33.6852632 L148.605789,33.6852632 C148.673684,35.4568421 149.450526,36.4294737 150.841579,36.4294737 C151.763684,36.4294737 152.395263,36.0063158 152.79,35.0921053 L158.494737,35.0921053" id="Shape" fill="#68737A" fill-rule="nonzero"></path>
                <path d="M175.143158,33.6047368 C174.639474,37.6831579 171.849474,39.9836842 167.411053,39.9836842 C162.817895,39.9836842 159.792632,37.0057895 159.792632,32.4678947 C159.792632,27.9189474 162.890526,24.8494737 167.478947,24.8494737 C169.968947,24.8494737 172.207895,25.7305263 173.58,27.2526316 C174.497368,28.2884211 174.775263,28.9878947 174.956842,30.8794737 L169.531579,30.8794737 C169.463684,29.5689474 168.75,28.7763158 167.677895,28.7763158 C166.310526,28.7763158 165.511579,30.1642105 165.511579,32.5642105 C165.511579,34.7668421 166.252105,36.0047368 167.542105,36.0047368 C168.669474,36.0047368 169.41,35.1347368 169.582105,33.6031579 L175.143158,33.6031579" id="Path" fill="#68737A"></path>
                <path d="M185.605263,39.6063158 C184.378421,39.84 183.783158,39.9173684 182.902105,39.9173684 C179.177368,39.9173684 177.677368,38.4473684 177.677368,34.8031579 L177.677368,29.1221053 L175.501579,29.1221053 L175.501579,25.2584211 L177.677368,25.2584211 L177.677368,21.4784211 L183.023684,21.4784211 L183.023684,25.2584211 L185.603684,25.2584211 L185.603684,29.1221053 L183.023684,29.1221053 L183.023684,33.1184211 C183.023684,35.0589474 183.415263,35.6447368 184.727368,35.6447368 C184.986316,35.6447368 185.204211,35.6163158 185.603684,35.5105263 L185.603684,39.6063158" id="Path" fill="#68737A"></path>
                <path d="M187.5,25.2584211 L192.451579,25.2584211 L192.451579,27.6521053 C193.373684,25.7936842 194.767895,24.9126316 196.817368,24.9126316 C197.103158,24.9126316 197.681053,24.9726316 198.257368,25.0578947 L198.257368,29.7252632 C197.707895,29.5957895 197.344737,29.5484211 196.836316,29.5484211 C195.127895,29.5484211 193.924737,30.15 193.346842,31.2931579 C192.961579,32.0605263 192.852632,32.8578947 192.852632,35.0573684 L192.852632,39.5794737 L187.501579,39.5794737 L187.501579,25.2584211" id="Path" fill="#68737A"></path>
                <path d="M204.145263,32.4047368 C204.145263,34.6784211 204.903158,36.0047368 206.272105,36.0047368 C207.666316,36.0047368 208.416316,34.7178947 208.416316,32.4047368 C208.416316,30.15 207.607895,28.7763158 206.245263,28.7763158 C204.931579,28.7763158 204.145263,30.1263158 204.145263,32.4047368 M214.147895,32.3589474 C214.147895,37.1415789 211.2,39.9836842 206.270526,39.9836842 C201.495789,39.9836842 198.415263,37.0578947 198.415263,32.4378947 C198.415263,27.8557895 201.513158,24.8494737 206.242105,24.8494737 C210.950526,24.8494737 214.147895,27.8889474 214.147895,32.3589474" id="Shape" fill="#68737A" fill-rule="nonzero"></path>
                <path d="M220.44,25.2584211 L220.44,27.2336842 C221.461579,25.6484211 222.838421,24.9126316 224.873684,24.9126316 C226.822105,24.9126316 228.348947,25.7573684 229.130526,27.2526316 C229.684737,28.3042105 229.83,29.2563158 229.83,31.8568421 L229.83,39.5794737 L224.510526,39.5794737 L224.510526,31.6563158 C224.510526,29.6984211 223.997368,28.8568421 222.798947,28.8568421 C222.012632,28.8568421 221.358947,29.3826316 221.073158,30.2589474 C220.901053,30.7784211 220.823684,31.5426316 220.823684,32.9605263 L220.823684,39.5794737 L215.504211,39.5794737 L215.504211,25.2584211 L220.44,25.2584211" id="Path" fill="#68737A"></path>
                <path d="M232.241053,24.1042105 L232.241053,19.8252632 L237.587368,19.8252632 L237.587368,24.1042105 L232.241053,24.1042105 Z M232.241053,39.5778947 L232.241053,25.2568421 L237.587368,25.2568421 L237.587368,39.5778947 L232.241053,39.5778947 Z" id="Shape" fill="#68737A" fill-rule="nonzero"></path>
                <path d="M254.324211,33.6047368 C253.820526,37.6831579 251.049474,39.9836842 246.601579,39.9836842 C241.998947,39.9836842 238.987895,37.0057895 238.987895,32.4678947 C238.987895,27.9189474 242.085789,24.8494737 246.674211,24.8494737 C249.172105,24.8494737 251.407895,25.7305263 252.78,27.2526316 C253.692632,28.2884211 253.961053,28.9878947 254.142632,30.8794737 L248.728421,30.8794737 C248.641579,29.5689474 247.942105,28.7763158 246.865263,28.7763158 C245.497895,28.7763158 244.711579,30.1642105 244.711579,32.5642105 C244.711579,34.7668421 245.437895,36.0047368 246.737368,36.0047368 C247.850526,36.0047368 248.591053,35.1347368 248.782105,33.6031579 L254.324211,33.6031579" id="Path" fill="#68737A"></path>
                <path d="M260.657368,34.7178947 C260.807368,36.0584211 261.407368,36.5873684 262.774737,36.5873684 C263.783684,36.5873684 264.423158,36.2194737 264.423158,35.6147368 C264.423158,34.9547368 263.941579,34.6657895 262.474737,34.2978947 L260.688947,33.8478947 C257.118947,32.9589474 255.464211,31.5410526 255.464211,29.3115789 C255.464211,26.6794737 258.353684,24.8478947 262.473158,24.8478947 C264.636316,24.8478947 266.597368,25.3610526 267.937895,26.2926316 C269.068421,27.0378947 269.532632,27.9678947 269.651053,29.6494737 L264.140526,29.6494737 C264.053684,28.6768421 263.436316,28.1621053 262.455789,28.1621053 C261.584211,28.1621053 261.025263,28.5221053 261.025263,29.0794737 C261.025263,29.8089474 261.238421,29.9115789 264.532105,30.7578947 C266.671579,31.2915789 267.412105,31.5663158 268.307368,32.1442105 C269.437895,32.8847368 270.101053,34.0878947 270.101053,35.49 C270.101053,38.2863158 267.298421,39.9836842 262.746316,39.9836842 C257.726842,39.9836842 255.178421,38.2626316 255.033158,34.7194737 L260.657368,34.7194737" id="Path" fill="#68737A"></path>
                <path d="M29.7189474,59.4189474 C46.1321053,59.4189474 59.4157895,46.1131579 59.4157895,29.6984211 C59.4142105,13.2915789 46.1321053,0 29.7189474,0 C13.2963158,0 0,13.2915789 0,29.6984211 C0,46.1131579 13.2963158,59.4189474 29.7189474,59.4189474" id="Path" fill="#C80651"></path>
                <polyline id="Path" fill="#FFFFFF" points="28.5284211 16.6721053 28.5284211 42.7136842 36.81 42.7136842 36.81 40.3926316 30.9047368 40.3926316 30.9047368 16.6721053 28.5284211 16.6721053"></polyline>
                <path d="M20.2247368,23.7726316 C22.1921053,23.7726316 23.7915789,22.1778947 23.7915789,20.2168421 C23.7915789,18.2447368 22.1921053,16.6594737 20.2247368,16.6594737 C18.2621053,16.6594737 16.6689474,18.2447368 16.6689474,20.2168421 C16.6673684,22.1778947 18.2621053,23.7726316 20.2247368,23.7726316" id="Path" fill="#FFFFFF"></path>
                <path d="M30.9047368,4.85210526 C30.5826316,4.83 30.0047368,4.83 29.7189474,4.83 C15.9963158,4.83 4.85684211,15.9821053 4.85684211,29.6984211 C4.85684211,36.3426316 7.42736842,42.5936842 12.1342105,47.2863158 C16.8221053,51.9852632 23.0589474,54.5684211 29.7189474,54.5684211 C36.3521053,54.5684211 42.6031579,51.9852632 47.2989474,47.2863158 C51.9868421,42.5936842 54.5905263,36.3426316 54.5905263,29.6984211 L54.5905263,28.5710526 L36.8321053,28.5710526 L36.8321053,30.8794737 L52.2236842,30.8794737 C52.2236842,30.9315789 52.2110526,31.1636842 52.2063158,31.2205263 C51.4294737,42.9473684 41.64,52.2457895 29.7189474,52.2457895 C23.6763158,52.2457895 18.03,49.8994737 13.7731579,45.63 C9.52105263,41.3842105 7.16842105,35.7126316 7.16842105,29.6984211 C7.16842105,23.6857895 9.52105263,18.0126316 13.7731579,13.7510526 C18.03,9.50368421 23.6763158,7.14947368 29.7189474,7.14947368 C29.9778947,7.14947368 30.6189474,7.15894737 30.9047368,7.15894737 L30.9047368,4.85210526" id="Path" fill="#FFFFFF"></path>
            </g>
        </g>
    </g>
</svg>