<?xml version="1.0" encoding="UTF-8"?>
<svg width="64px" height="30px" viewBox="0 0 64 30" version="1.1" xmlns="http://www.w3.org/2000/svg" xmlns:xlink="http://www.w3.org/1999/xlink">
    <!-- Generator: Sketch 52.6 (67491) - http://www.bohemiancoding.com/sketch -->
    <title>LG_logo_b</title>
    <desc>Created with Sketch.</desc>
    <defs>
        <polygon id="path-1" points="0 0.025443038 29.9748608 0.025443038 29.9748608 30 0 30"></polygon>
        <polygon id="path-3" points="0.275892169 0.330536585 14.5309371 0.330536585 14.5309371 16.0720348 0.275892169 16.0720348"></polygon>
    </defs>
    <g id="Media" stroke="none" stroke-width="1" fill="none" fill-rule="evenodd">
        <g id="BHX.Media---Desktop-Black" transform="translate(-742.000000, -9032.000000)">
            <g id="LG_logo_b" transform="translate(742.000000, 9032.000000)">
                <g id="Group-3">
                    <mask id="mask-2" fill="white">
                        <use xlink:href="#path-1"></use>
                    </mask>
                    <g id="Clip-2"></g>
                    <path d="M14.9873924,30 C23.2647342,30 29.9748608,23.2898734 29.9748608,15.0125316 C29.9748608,6.73556962 23.2647342,0.025443038 14.9873924,0.025443038 C6.71005063,0.025443038 -7.59493671e-05,6.73556962 -7.59493671e-05,15.0125316 C-7.59493671e-05,23.2898734 6.71005063,30 14.9873924,30" id="Fill-1" fill="#C30452" mask="url(#mask-2)"></path>
                </g>
                <polygon id="Fill-4" fill="#FEFEFE" points="19.0243902 20.0354736 15.8214401 20.0354736 15.8214401 8.04878049 14.6341463 8.04878049 14.6341463 21.2195122 15.8214401 21.2195122 15.8214401 21.2109744 19.0243902 21.2109744"></polygon>
                <path d="M26.6312849,15.4891263 L18.7432506,15.4891263 L18.7432506,14.3151456 L27.7870494,14.3151456 C27.7990643,14.5422677 27.804878,14.7697773 27.804878,15 C27.804878,22.0721778 22.0721778,27.804878 15,27.804878 C7.92820979,27.804878 2.19512195,22.0721778 2.19512195,15 C2.19512195,7.92820979 7.92820979,2.19512195 15,2.19512195 C15.1868137,2.19512195 15.3724647,2.19899775 15.5573405,2.20713694 L15.5557902,3.37297849 C15.3716895,3.36445173 15.1864261,3.36018834 15,3.36018834 C8.5715931,3.36018834 3.36018834,8.5715931 3.36018834,15 C3.36018834,21.4287945 8.5715931,26.6401992 15,26.6401992 C21.2532206,26.6401992 26.3545526,21.7094026 26.6285718,15.5240086 L26.6312849,15.4891263 Z" id="Fill-6" fill="#FEFEFE"></path>
                <path d="M10.6097561,11.7073171 C11.6197549,11.7073171 12.4390244,10.8883535 12.4390244,9.87785172 C12.4390244,8.86774408 11.6197549,8.04878049 10.6097561,8.04878049 C9.59936318,8.04878049 8.7804878,8.86774408 8.7804878,9.87785172 C8.7804878,10.8883535 9.59936318,11.7073171 10.6097561,11.7073171" id="Fill-8" fill="#FEFEFE"></path>
                <polygon id="Fill-10" fill="#808184" points="38.0487805 21.9512195 49.0243902 21.9512195 49.0243902 18.7570328 42.4001038 18.7570328 42.079398 18.7570328 42.079398 18.4475912 42.079398 7.31707317 38.0487805 7.31707317"></polygon>
                <g id="Group-14" transform="translate(49.024390, 6.585366)">
                    <mask id="mask-4" fill="white">
                        <use xlink:href="#path-3"></use>
                    </mask>
                    <g id="Clip-13"></g>
                    <path d="M12.6340436,1.7774007 C11.3882157,0.817296167 9.78577664,0.330536585 7.87216945,0.330536585 C5.60002567,0.330536585 3.70220796,1.02464808 2.38282413,2.33736585 C1.00451861,3.70910801 0.275892169,5.72935192 0.275892169,8.18078049 C0.275892169,10.7989338 1.04688062,13.0085157 2.44675225,14.401338 C3.54469833,15.4940557 5.01003851,16.0720348 6.68526316,16.0720348 C10.3630552,16.0720348 11.209525,13.877784 11.209525,13.877784 L11.209525,14.8857979 L11.209525,15.6780279 L14.5310911,15.6780279 L14.5310911,7.23255749 L7.91915276,7.23255749 L7.91915276,9.87485714 L10.5794865,9.87485714 L10.9626701,9.87485714 C10.9626701,9.87485714 10.9919384,13.2016864 7.85137356,13.2016864 C7.05342747,13.2016864 6.34213094,12.9138467 5.79489089,12.3692125 C4.94264442,11.5214077 4.49283697,10.0944739 4.49283697,8.24287108 C4.49283697,5.17628571 5.71748395,3.34614634 7.76780488,3.34614634 C9.04829268,3.34614634 10.0110655,4.12879443 10.2579204,5.31503136 L14.488344,5.31503136 C14.2684467,3.59144251 13.7936072,2.6930453 12.6340436,1.7774007" id="Fill-12" fill="#808184" mask="url(#mask-4)"></path>
                </g>
            </g>
        </g>
    </g>
</svg>